G75*
G70*
%OFA0B0*%
%FSLAX24Y24*%
%IPPOS*%
%LPD*%
%AMOC8*
5,1,8,0,0,1.08239X$1,22.5*
%
%ADD10C,0.0110*%
%ADD11R,0.0039X0.0394*%
%ADD12R,0.0039X0.0197*%
%ADD13R,0.0197X0.0787*%
%ADD14R,0.0394X0.0433*%
%ADD15R,0.0157X0.0354*%
%ADD16R,0.0433X0.0394*%
%ADD17C,0.1000*%
%ADD18C,0.0554*%
%ADD19R,0.0780X0.0210*%
%ADD20R,0.0600X0.0600*%
%ADD21C,0.0600*%
%ADD22C,0.0945*%
%ADD23R,0.0591X0.0197*%
%ADD24R,0.0197X0.0591*%
%ADD25R,0.0787X0.0866*%
%ADD26R,0.0580X0.0180*%
%ADD27R,0.0180X0.0580*%
%ADD28R,0.0591X0.0630*%
%ADD29R,0.0554X0.0554*%
%ADD30R,0.0790X0.0590*%
%ADD31R,0.0790X0.1500*%
%ADD32R,0.1024X0.0866*%
%ADD33C,0.1581*%
%ADD34R,0.0866X0.1024*%
%ADD35R,0.0590X0.0790*%
%ADD36R,0.1500X0.0790*%
%ADD37C,0.1502*%
%ADD38C,0.1266*%
%ADD39R,0.0394X0.0551*%
%ADD40R,0.0520X0.0140*%
%ADD41R,0.0591X0.0512*%
%ADD42C,0.0357*%
%ADD43C,0.0560*%
%ADD44C,0.0100*%
%ADD45C,0.0160*%
%ADD46C,0.0400*%
%ADD47C,0.0320*%
%ADD48C,0.0098*%
%ADD49C,0.0197*%
%ADD50C,0.0500*%
%ADD51C,0.0120*%
%ADD52C,0.0240*%
D10*
X015983Y002917D02*
X015983Y003507D01*
X016278Y003212D01*
X015884Y003212D01*
X016529Y002917D02*
X016922Y002917D01*
X016726Y002917D02*
X016726Y003507D01*
X016922Y003310D01*
X017173Y003409D02*
X017173Y003015D01*
X017272Y002917D01*
X017469Y002917D01*
X017567Y003015D01*
X017173Y003409D01*
X017272Y003507D01*
X017469Y003507D01*
X017567Y003409D01*
X017567Y003015D01*
X017818Y002917D02*
X018212Y002917D01*
X017818Y003310D01*
X017818Y003409D01*
X017916Y003507D01*
X018113Y003507D01*
X018212Y003409D01*
X018444Y003015D02*
X018543Y003015D01*
X018543Y002917D01*
X018444Y002917D01*
X018444Y003015D01*
X018444Y002917D02*
X018641Y002720D01*
X018892Y003114D02*
X018892Y003507D01*
X018892Y003114D02*
X019089Y002917D01*
X019286Y003114D01*
X019286Y003507D01*
X019537Y003507D02*
X019537Y003114D01*
X019733Y002917D01*
X019930Y003114D01*
X019930Y003507D01*
X020181Y003507D02*
X020181Y002917D01*
X020378Y003310D02*
X020181Y003507D01*
X020378Y003310D02*
X020575Y003507D01*
X020575Y002917D01*
X020808Y003114D02*
X020808Y003310D01*
X021005Y003507D01*
X021255Y003409D02*
X021354Y003507D01*
X021551Y003507D01*
X021649Y003409D01*
X021649Y003015D01*
X021551Y002917D01*
X021354Y002917D01*
X021255Y003015D01*
X021005Y002917D02*
X020808Y003114D01*
X021882Y002917D02*
X022079Y003114D01*
X022079Y003310D01*
X021882Y003507D01*
X008195Y028311D02*
X008195Y028901D01*
X007900Y028901D01*
X007802Y028803D01*
X007802Y028606D01*
X007900Y028507D01*
X008195Y028507D01*
X007998Y028507D02*
X007802Y028311D01*
X007551Y028409D02*
X007551Y028606D01*
X007452Y028704D01*
X007256Y028704D01*
X007157Y028606D01*
X007157Y028507D01*
X007551Y028507D01*
X007551Y028409D02*
X007452Y028311D01*
X007256Y028311D01*
X006906Y028507D02*
X006906Y028901D01*
X006513Y028901D02*
X006513Y028507D01*
X006709Y028311D01*
X006906Y028507D01*
X006262Y028507D02*
X005868Y028507D01*
X005868Y028606D01*
X005966Y028704D01*
X006163Y028704D01*
X006262Y028606D01*
X006262Y028409D01*
X006163Y028311D01*
X005966Y028311D01*
X005617Y028311D02*
X005617Y028704D01*
X005617Y028507D02*
X005420Y028704D01*
X005322Y028704D01*
X005080Y028704D02*
X004982Y028606D01*
X004785Y028606D01*
X004686Y028507D01*
X004686Y028409D01*
X004785Y028311D01*
X004982Y028311D01*
X005080Y028409D01*
X005080Y028704D02*
X005080Y028803D01*
X004982Y028901D01*
X004785Y028901D01*
X004686Y028803D01*
X004435Y028901D02*
X004435Y028311D01*
X004042Y028311D01*
X004239Y028606D02*
X004435Y028606D01*
X004435Y028901D02*
X004042Y028901D01*
X003146Y028901D02*
X003146Y028409D01*
X003048Y028311D01*
X002851Y028311D01*
X002753Y028409D01*
X002753Y028901D01*
X002502Y028704D02*
X002305Y028901D01*
X002305Y028311D01*
X002502Y028311D02*
X002108Y028311D01*
X001857Y028409D02*
X001857Y028606D01*
X001562Y028606D01*
X001464Y028507D01*
X001464Y028409D01*
X001562Y028311D01*
X001759Y028311D01*
X001857Y028409D01*
X001857Y028606D02*
X001660Y028803D01*
X001464Y028901D01*
D11*
X020382Y014476D03*
D12*
X017823Y019299D03*
X012665Y014378D03*
D13*
X020461Y019397D03*
D14*
X017350Y022645D03*
X016681Y022645D03*
X014850Y022685D03*
X014850Y022015D03*
X012134Y025106D03*
X011465Y025106D03*
X012094Y027724D03*
X012094Y028393D03*
X014909Y027074D03*
X015579Y027074D03*
X018000Y027822D03*
X018000Y028492D03*
X020953Y028492D03*
X020953Y027822D03*
X011445Y018807D03*
X010776Y018807D03*
X010776Y017822D03*
X010776Y017232D03*
X011445Y017232D03*
X011445Y017822D03*
X011445Y015854D03*
X011445Y015263D03*
X010776Y015263D03*
X010776Y015854D03*
X011110Y021425D03*
X011110Y022094D03*
X008650Y023984D03*
X008650Y024653D03*
X005008Y024456D03*
X005008Y023787D03*
X004220Y020913D03*
X004220Y020244D03*
X004968Y019889D03*
X005638Y019889D03*
X003433Y018551D03*
X003433Y017881D03*
X003236Y020244D03*
X003236Y020913D03*
X002646Y022409D03*
X002646Y023078D03*
X004083Y010342D03*
X003571Y009752D03*
X002902Y009752D03*
X002882Y008964D03*
X002213Y008964D03*
X004417Y007330D03*
X004417Y006661D03*
X004752Y010342D03*
X007823Y006405D03*
X007823Y005815D03*
X008492Y005815D03*
X008492Y006405D03*
X008492Y004633D03*
X008492Y004043D03*
X007823Y004043D03*
X007823Y004633D03*
X015638Y010598D03*
X015638Y011267D03*
X018059Y013689D03*
X018728Y013689D03*
D15*
X018748Y014897D03*
X019063Y014897D03*
X019378Y014897D03*
X019693Y014897D03*
X020008Y014897D03*
X020323Y014897D03*
X018433Y014897D03*
X018118Y014897D03*
X017803Y014897D03*
X017488Y014897D03*
X017173Y014897D03*
X016858Y014897D03*
X016543Y014897D03*
X016228Y014897D03*
X015913Y014897D03*
X015598Y014897D03*
X015283Y014897D03*
X014968Y014897D03*
X014654Y014897D03*
X014339Y014897D03*
X014024Y014897D03*
X013709Y014897D03*
X013394Y014897D03*
X013079Y014897D03*
X012764Y014897D03*
X012449Y014897D03*
X012134Y014897D03*
X012134Y019370D03*
X012449Y019370D03*
X012764Y019370D03*
X013079Y019370D03*
X013394Y019370D03*
X013709Y019370D03*
X014024Y019370D03*
X014339Y019370D03*
X014654Y019370D03*
X014968Y019370D03*
X015283Y019370D03*
X015598Y019370D03*
X015913Y019370D03*
X016228Y019370D03*
X016543Y019370D03*
X016858Y019370D03*
X017173Y019370D03*
X017488Y019370D03*
X017803Y019370D03*
X018118Y019370D03*
X018433Y019370D03*
X018748Y019370D03*
X019063Y019370D03*
X019378Y019370D03*
X019693Y019370D03*
X020008Y019370D03*
X020323Y019370D03*
D16*
X021602Y019791D03*
X022272Y019791D03*
X022272Y016051D03*
X021602Y016051D03*
X020992Y013885D03*
X020323Y013885D03*
X018138Y008570D03*
X017468Y008570D03*
X016957Y005815D03*
X016287Y005815D03*
X016287Y005027D03*
X016957Y005027D03*
X011248Y007389D03*
X010579Y007389D03*
X006917Y006405D03*
X006917Y005815D03*
X006248Y005815D03*
X006248Y006405D03*
X006248Y004633D03*
X006248Y004043D03*
X006917Y004043D03*
X006917Y004633D03*
X003827Y006661D03*
X003827Y007330D03*
X006051Y008964D03*
X006720Y008964D03*
X005992Y010795D03*
X005992Y011464D03*
X003571Y010342D03*
X002902Y010342D03*
X002193Y013295D03*
X001524Y013295D03*
X001524Y014082D03*
X002193Y014082D03*
X002252Y016700D03*
X002842Y016700D03*
X002842Y017370D03*
X002842Y017881D03*
X002842Y018551D03*
X002252Y017370D03*
X001661Y017370D03*
X001661Y016700D03*
X002646Y020244D03*
X002646Y020913D03*
X004811Y021208D03*
X005402Y021208D03*
X005402Y020539D03*
X004811Y020539D03*
X004417Y023787D03*
X004417Y024456D03*
X010776Y025893D03*
X011445Y025893D03*
X012685Y027724D03*
X012685Y028393D03*
X013276Y028393D03*
X013276Y027724D03*
X014457Y027527D03*
X014457Y028196D03*
X015047Y024456D03*
X015047Y023787D03*
X017409Y026641D03*
X017409Y027311D03*
X018000Y027311D03*
X018591Y027311D03*
X019181Y027311D03*
X019181Y026641D03*
X018591Y026641D03*
X018000Y026641D03*
X019772Y026641D03*
X020362Y026641D03*
X020953Y026641D03*
X020953Y027311D03*
X020362Y027311D03*
X019772Y027311D03*
X016563Y019988D03*
X015894Y019988D03*
X012094Y023000D03*
X012094Y023669D03*
G36*
X012976Y014430D02*
X012671Y014125D01*
X012392Y014404D01*
X012697Y014709D01*
X012976Y014430D01*
G37*
G36*
X012503Y013957D02*
X012198Y013652D01*
X011919Y013931D01*
X012224Y014236D01*
X012503Y013957D01*
G37*
X010657Y013492D03*
X009988Y013492D03*
X009279Y013492D03*
X008610Y013492D03*
D17*
X007370Y011541D03*
X007370Y019423D03*
D18*
X008248Y022153D03*
X009248Y022153D03*
X002055Y014639D03*
X002055Y012739D03*
X003146Y008208D03*
X003146Y007208D03*
X003146Y006208D03*
X003146Y005208D03*
X003146Y004208D03*
X002146Y004208D03*
X002146Y005208D03*
X002146Y006208D03*
X002146Y007208D03*
X005886Y009752D03*
X006886Y009752D03*
X007370Y008252D03*
X008157Y008252D03*
X008157Y007189D03*
X007370Y007189D03*
X006386Y007189D03*
X006386Y008252D03*
X009142Y008252D03*
X009142Y007189D03*
X016425Y006371D03*
X016425Y004471D03*
X020059Y008448D03*
X020059Y009448D03*
X020059Y010448D03*
X020059Y011448D03*
X021059Y011448D03*
X021059Y010448D03*
X021059Y009448D03*
D19*
X011293Y022978D03*
X011293Y023478D03*
X011293Y023978D03*
X011293Y024478D03*
X009353Y024478D03*
X009353Y023978D03*
X009353Y023478D03*
X009353Y022978D03*
D20*
X006364Y022833D03*
D21*
X005864Y021833D03*
X005364Y022833D03*
X004864Y021833D03*
X004364Y022833D03*
X003864Y021833D03*
X003364Y022833D03*
X002864Y021833D03*
X003014Y027283D03*
X002014Y027283D03*
X006214Y027283D03*
X007214Y027283D03*
D22*
X007764Y024183D03*
X001464Y024183D03*
D23*
X002921Y016248D03*
X002921Y015933D03*
X002921Y015618D03*
X002921Y015303D03*
X002921Y014988D03*
X002921Y014673D03*
X002921Y014358D03*
X002921Y014043D03*
X002921Y013728D03*
X002921Y013413D03*
X002921Y013098D03*
X007488Y013098D03*
X007488Y013413D03*
X007488Y013728D03*
X007488Y014043D03*
X007488Y014358D03*
X007488Y014673D03*
X007488Y014988D03*
X007488Y015303D03*
X007488Y015618D03*
X007488Y015933D03*
X007488Y016248D03*
D24*
X006779Y016956D03*
X006465Y016956D03*
X006150Y016956D03*
X005835Y016956D03*
X005520Y016956D03*
X005205Y016956D03*
X004890Y016956D03*
X004575Y016956D03*
X004260Y016956D03*
X003945Y016956D03*
X003630Y016956D03*
X003630Y012389D03*
X003945Y012389D03*
X004260Y012389D03*
X004575Y012389D03*
X004890Y012389D03*
X005205Y012389D03*
X005520Y012389D03*
X005835Y012389D03*
X006150Y012389D03*
X006465Y012389D03*
X006779Y012389D03*
D25*
X002842Y011523D03*
X001661Y011523D03*
D26*
X012049Y006521D03*
X012049Y006211D03*
X012049Y005891D03*
X012049Y005581D03*
X012049Y005261D03*
X012049Y004951D03*
X012049Y004631D03*
X012049Y004321D03*
X015289Y004321D03*
X015289Y004631D03*
X015289Y004951D03*
X015289Y005261D03*
X015289Y005581D03*
X015289Y005891D03*
X015289Y006211D03*
X015289Y006521D03*
D27*
X014769Y007041D03*
X014459Y007041D03*
X014139Y007041D03*
X013829Y007041D03*
X013509Y007041D03*
X013199Y007041D03*
X012879Y007041D03*
X012569Y007041D03*
X012569Y003801D03*
X012879Y003801D03*
X013199Y003801D03*
X013509Y003801D03*
X013829Y003801D03*
X014139Y003801D03*
X014459Y003801D03*
X014769Y003801D03*
D28*
X010087Y014555D03*
X008591Y014555D03*
X008591Y016563D03*
X010087Y016563D03*
D29*
X002146Y008208D03*
X021059Y008448D03*
D30*
X014909Y009629D03*
X014909Y010529D03*
X014909Y011429D03*
X010972Y011429D03*
X010972Y010529D03*
X010972Y009629D03*
D31*
X012429Y010539D03*
X008492Y010539D03*
D32*
X008157Y020972D03*
X010126Y020972D03*
D33*
X019575Y007359D03*
X021465Y006178D03*
X019575Y004996D03*
D34*
X018197Y005421D03*
X018197Y007389D03*
X021346Y021173D03*
X021346Y023141D03*
D35*
X018299Y009299D03*
X017399Y009299D03*
X016499Y009299D03*
D36*
X017409Y011779D03*
D37*
X016130Y017133D03*
X015342Y025874D03*
X009634Y025874D03*
D38*
X009634Y028220D03*
X015342Y028220D03*
X010350Y008358D03*
X010350Y006122D03*
X005177Y006122D03*
X005177Y008358D03*
D39*
X016429Y026417D03*
X016055Y027283D03*
X016803Y027283D03*
D40*
X014192Y024502D03*
X014192Y024252D03*
X014192Y023992D03*
X014192Y023742D03*
X012752Y023742D03*
X012752Y023992D03*
X012752Y024252D03*
X012752Y024502D03*
D41*
X005205Y019181D03*
X005205Y018433D03*
D42*
X004220Y019791D03*
X003433Y017232D03*
X002055Y018019D03*
X001661Y018610D03*
X004417Y015854D03*
X005008Y015854D03*
X005402Y015460D03*
X005992Y015460D03*
X004811Y014476D03*
X004417Y014082D03*
X006386Y011523D03*
X006583Y013295D03*
X006583Y013885D03*
X008157Y015657D03*
X008945Y015657D03*
X009732Y015263D03*
X010126Y015657D03*
X010913Y016444D03*
X010126Y017232D03*
X010126Y017822D03*
X010323Y018807D03*
X009535Y019200D03*
X008945Y018216D03*
X008945Y017429D03*
X007961Y017429D03*
X006976Y017822D03*
X008157Y018807D03*
X008551Y019791D03*
X008945Y020185D03*
X011110Y020185D03*
X011110Y020972D03*
X012882Y018413D03*
X013276Y018807D03*
X014063Y018807D03*
X014457Y019988D03*
X015244Y019988D03*
X015244Y020578D03*
X014457Y021956D03*
X013866Y021956D03*
X014063Y022941D03*
X015638Y022744D03*
X016425Y023137D03*
X017016Y023137D03*
X017803Y023137D03*
X017803Y022547D03*
X018394Y022547D03*
X018000Y021956D03*
X018197Y020578D03*
X018787Y019988D03*
X019378Y019988D03*
X019378Y018413D03*
X018787Y018413D03*
X018394Y018019D03*
X018197Y018807D03*
X017606Y018413D03*
X017213Y018807D03*
X016425Y018807D03*
X015835Y018807D03*
X015047Y018807D03*
X013669Y019988D03*
X013669Y020578D03*
X012488Y017429D03*
X012488Y016248D03*
X013472Y015657D03*
X014260Y015657D03*
X015047Y015657D03*
X015638Y015657D03*
X016228Y015657D03*
X017016Y015657D03*
X017606Y015460D03*
X018197Y015460D03*
X018984Y016051D03*
X018591Y016444D03*
X018984Y017035D03*
X019378Y017429D03*
X019772Y017035D03*
X020953Y016051D03*
X019772Y015460D03*
X019181Y015460D03*
X019772Y014476D03*
X019772Y013885D03*
X019378Y013492D03*
X018787Y012311D03*
X017606Y013689D03*
X018394Y014476D03*
X017213Y012311D03*
X018197Y010539D03*
X017803Y010145D03*
X018591Y010145D03*
X020559Y012311D03*
X020953Y014279D03*
X020953Y018807D03*
X021543Y019397D03*
X020953Y019988D03*
X019772Y021956D03*
X018787Y023531D03*
X017213Y025106D03*
X016228Y024515D03*
X016622Y021956D03*
X016819Y020578D03*
X018591Y025893D03*
X019181Y025893D03*
X019772Y025893D03*
X020756Y025106D03*
X021346Y025106D03*
X014457Y027074D03*
X013866Y027468D03*
X013669Y026878D03*
X013079Y027074D03*
X012094Y026878D03*
X011504Y026878D03*
X006386Y020775D03*
X010717Y013885D03*
X011307Y013689D03*
X011307Y012704D03*
X010717Y012114D03*
X010126Y012114D03*
X010126Y012704D03*
X010126Y010539D03*
X012291Y007783D03*
X013472Y007783D03*
X014063Y007783D03*
X014654Y007783D03*
X015244Y007783D03*
X014063Y009752D03*
X013669Y010145D03*
X013276Y009752D03*
X012685Y012311D03*
X012882Y013689D03*
X013472Y014279D03*
X014260Y014279D03*
X014850Y014279D03*
X014654Y013689D03*
X015441Y013689D03*
X016031Y014279D03*
X014260Y012311D03*
X011307Y006996D03*
X012882Y006405D03*
X013276Y005224D03*
X013276Y004633D03*
X014063Y004437D03*
X014063Y005224D03*
X014654Y005224D03*
X007370Y004633D03*
X007370Y004043D03*
X007370Y005815D03*
X004811Y009752D03*
X004024Y011326D03*
X003630Y010933D03*
X002252Y009752D03*
D43*
X005598Y010539D02*
X005992Y010539D01*
X009339Y010539D01*
X009339Y013689D01*
X009339Y014555D01*
X010087Y014555D01*
X010106Y014574D01*
X011405Y014574D01*
X011602Y014378D01*
X011602Y015263D01*
X011602Y015657D01*
X011602Y016248D01*
X011602Y017232D01*
X011602Y017429D01*
X011602Y017822D01*
X011602Y018807D01*
X011602Y019397D01*
X011504Y019496D01*
X010815Y019496D01*
X010323Y019988D01*
X010323Y020874D01*
X010323Y023531D01*
X010323Y024712D01*
X010717Y025106D01*
X012094Y021956D02*
X011110Y020972D01*
X012094Y019988D02*
X011602Y019496D01*
X011504Y019496D01*
X012094Y019988D02*
X012291Y020185D01*
X012685Y020578D01*
X013669Y020578D01*
X014850Y020578D01*
X015244Y020578D01*
X016819Y020578D01*
X018197Y020578D01*
X018000Y021956D02*
X019772Y021956D01*
X019968Y021956D01*
X021051Y020874D01*
X021248Y020677D01*
X021642Y020283D01*
X021642Y019299D01*
X021642Y016051D01*
X021602Y016051D01*
X020953Y016051D01*
X021642Y016051D02*
X021642Y013295D01*
X020657Y012311D01*
X020559Y012311D01*
X018787Y012311D01*
X017409Y012311D01*
X017409Y011720D01*
X017409Y012311D02*
X017213Y012311D01*
X014260Y012311D01*
X012685Y012311D01*
X012882Y013689D02*
X012291Y013689D01*
X012144Y013836D01*
X011602Y014378D01*
X012882Y013689D02*
X013866Y013689D01*
X014654Y013689D01*
X015441Y013689D01*
X017606Y013689D01*
X014909Y009629D02*
X014909Y008964D01*
X016499Y008964D01*
X016499Y009299D01*
X016499Y008299D01*
X017409Y007389D01*
X018197Y007389D01*
X018197Y007359D01*
X019575Y007359D01*
X020059Y007843D01*
X020059Y008448D01*
X017409Y009102D02*
X017399Y009299D01*
X014909Y008964D02*
X011701Y008964D01*
X011307Y009358D01*
X010972Y010529D02*
X010962Y010539D01*
X010126Y010539D01*
X009339Y010539D01*
X009339Y014555D02*
X008591Y014555D01*
X012094Y021956D02*
X013866Y021956D01*
X014457Y021956D01*
X015047Y021956D01*
X016622Y021956D01*
X018000Y021956D01*
D44*
X014850Y019889D02*
X014654Y019693D01*
X014654Y019370D01*
D45*
X014850Y019889D02*
X014850Y020578D01*
X015598Y019693D02*
X015894Y019988D01*
X015598Y019693D02*
X015598Y019370D01*
X016228Y019370D02*
X016228Y019594D01*
X016425Y019791D01*
X016425Y019850D01*
X016563Y019988D01*
X016563Y020322D02*
X016819Y020578D01*
X015047Y024456D02*
X014063Y025441D01*
X014063Y027271D01*
X013866Y027468D01*
X013866Y028059D01*
X013531Y028393D01*
X013276Y028393D01*
X012685Y028393D01*
X012094Y028393D01*
X012094Y023669D02*
X011839Y023669D01*
X011648Y023478D01*
X011293Y023478D01*
X010323Y023478D01*
X009353Y023478D02*
X008892Y023478D01*
X008248Y022834D01*
X008248Y022153D01*
X009248Y022153D02*
X009248Y022886D01*
X009353Y023978D02*
X008655Y023978D01*
X008650Y023984D01*
X005008Y023787D02*
X005008Y023531D01*
X004358Y023728D02*
X003039Y023728D01*
X002646Y023334D01*
X002646Y023078D01*
X002587Y023137D02*
X002449Y023137D01*
X002154Y022842D01*
X002154Y021464D01*
X002646Y020972D01*
X002646Y020913D01*
X002646Y020244D02*
X003236Y020244D01*
X003236Y019988D01*
X004614Y018610D01*
X004614Y018118D01*
X005205Y017527D01*
X005205Y016956D01*
X004890Y016956D02*
X004890Y017350D01*
X004220Y018019D01*
X004220Y018511D01*
X003039Y019693D01*
X002350Y019693D01*
X001760Y020283D01*
X001760Y022941D01*
X002842Y024122D01*
X003827Y024122D01*
X004161Y024456D01*
X004417Y024456D01*
X005008Y024456D01*
X001661Y018610D02*
X001661Y017370D01*
X001661Y016700D02*
X001661Y016346D01*
X002390Y015618D01*
X002921Y015618D01*
X002921Y015933D02*
X002567Y015933D01*
X002252Y016248D01*
X002252Y016700D01*
X002252Y017370D02*
X002252Y017822D01*
X002055Y018019D01*
X004260Y017429D02*
X004260Y016956D01*
X005835Y016956D02*
X005835Y016326D01*
X006779Y016326D01*
X006779Y016956D01*
X006779Y017626D01*
X006976Y017822D01*
X006779Y017133D02*
X006779Y016956D01*
X006976Y013413D02*
X006976Y013098D01*
X008059Y013098D01*
X008059Y013413D01*
X007488Y013413D01*
X006996Y013413D01*
X003945Y013078D02*
X003945Y012389D01*
X003945Y011700D01*
X003630Y011917D02*
X003236Y011523D01*
X002842Y011523D01*
X003630Y011917D02*
X003630Y012389D01*
X003827Y013098D02*
X002921Y013098D01*
X003827Y013098D02*
X003945Y013078D01*
X007173Y009358D02*
X006878Y009063D01*
X006878Y008964D01*
X006720Y008964D01*
X006779Y008964D01*
X006878Y008964D02*
X006878Y007681D01*
X006386Y007189D01*
X011307Y007330D02*
X011307Y006996D01*
X011307Y006208D01*
X011624Y005891D01*
X012049Y005891D01*
X013312Y005891D01*
X013352Y005891D01*
X013768Y006307D01*
X013866Y006208D01*
X013869Y006211D01*
X015289Y006211D01*
X015289Y005891D02*
X014927Y005891D01*
X014654Y005618D01*
X014654Y005224D01*
X014063Y005224D02*
X014656Y004631D01*
X015289Y004631D01*
X013768Y006307D02*
X013509Y006565D01*
X013509Y007041D01*
X013312Y005891D02*
X013669Y005534D01*
X013669Y004437D01*
X013509Y004277D01*
X013509Y003801D01*
X012882Y003803D02*
X012879Y003803D01*
X012879Y003801D01*
X012569Y003801D02*
X012569Y004911D01*
X012587Y004929D01*
X012587Y004951D02*
X012049Y004951D01*
X013866Y013689D02*
X013866Y014476D01*
X013709Y014633D01*
X013709Y014897D01*
X012764Y014897D02*
X012764Y014555D01*
X012685Y014476D02*
X012684Y014476D01*
X012684Y014417D01*
X012684Y014476D02*
X012291Y014476D01*
X012134Y014633D02*
X012134Y014897D01*
X012134Y015303D01*
X014654Y014897D02*
X014654Y016051D01*
X015598Y014897D02*
X015598Y013728D01*
X016228Y014897D02*
X016228Y015263D01*
X016524Y015263D01*
X020323Y014897D02*
X020323Y014712D01*
X020362Y014673D01*
X020362Y013885D01*
X020323Y013885D01*
X012764Y019370D02*
X012764Y019712D01*
X012291Y020185D01*
X012134Y019988D02*
X012094Y019988D01*
X012134Y019988D02*
X012134Y019370D01*
D46*
X011307Y020185D02*
X011110Y020185D01*
X011307Y020185D02*
X012390Y021267D01*
X019673Y021267D01*
X020953Y019988D01*
X020953Y018807D01*
X020953Y017133D01*
X020362Y016543D01*
X020362Y015657D01*
X020953Y015067D01*
X020953Y014279D01*
X020953Y013885D01*
X020953Y013590D01*
X020362Y013000D01*
X011996Y013000D01*
X011996Y011819D01*
X012488Y011326D01*
X012488Y010529D01*
X011307Y009358D02*
X010913Y009358D01*
X010972Y009417D01*
X010972Y009629D01*
X010913Y009358D02*
X007173Y009358D01*
X006878Y009653D01*
X010717Y013295D02*
X010717Y013885D01*
X010717Y013295D02*
X010913Y013098D01*
X011307Y012704D01*
X011996Y013000D02*
X011307Y013689D01*
X018197Y020578D02*
X019575Y020578D01*
X020362Y019791D01*
X020362Y019004D02*
X020362Y017626D01*
X019772Y017035D01*
X019772Y015460D01*
X011465Y025106D02*
X010717Y025106D01*
X010717Y025893D01*
X010717Y028452D01*
X011504Y029240D01*
X016031Y029240D01*
X017409Y027862D01*
X017409Y027311D01*
D47*
X018000Y027311D01*
X018000Y027822D01*
X018000Y027311D02*
X018591Y027311D01*
X019181Y027311D01*
X019772Y027311D01*
X020362Y027311D01*
X020953Y027311D01*
X020953Y027822D01*
X019772Y026641D02*
X019772Y025893D01*
X019181Y025893D02*
X019181Y026641D01*
X018591Y026641D02*
X018591Y025893D01*
X017409Y026641D02*
X016976Y026641D01*
X016752Y026417D01*
X016429Y026417D01*
X016055Y027283D02*
X015689Y027086D01*
X014909Y027074D02*
X014457Y027074D01*
X014457Y027527D01*
X010776Y025893D02*
X010717Y025893D01*
X005864Y021833D02*
X005402Y021371D01*
X005402Y021208D01*
X004811Y021208D02*
X004811Y021780D01*
X004864Y021833D01*
X004364Y022833D02*
X004417Y022887D01*
X004417Y023787D01*
X005008Y023531D02*
X005364Y023175D01*
X005364Y022833D01*
X003864Y021833D02*
X003802Y021833D01*
X003728Y021759D01*
X003236Y021304D01*
X003236Y020913D01*
X003433Y017881D02*
X003433Y017429D01*
X003433Y017232D01*
X002842Y017370D02*
X002842Y017881D01*
X002842Y016700D02*
X002842Y016326D01*
X002055Y014639D02*
X002193Y014501D01*
X002193Y014082D01*
X002193Y013295D02*
X002193Y012876D01*
X002055Y012739D01*
X002252Y009752D02*
X002902Y009752D01*
X002213Y008964D02*
X002213Y008275D01*
X002146Y008208D01*
X004752Y009811D02*
X004811Y009752D01*
X004752Y009811D02*
X004752Y010342D01*
X007370Y007189D02*
X007370Y006405D01*
X006917Y006405D01*
X007370Y006405D02*
X007823Y006405D01*
X007823Y005815D02*
X007370Y005815D01*
X006917Y005815D01*
X006917Y004633D02*
X007370Y004633D01*
X007823Y004633D01*
X007823Y004043D02*
X007370Y004043D01*
X006917Y004043D01*
X010776Y015854D02*
X010776Y016307D01*
X010913Y016444D01*
X010776Y017232D02*
X010126Y017232D01*
X010126Y017822D02*
X010776Y017822D01*
X010776Y018807D02*
X010323Y018807D01*
X016563Y019988D02*
X016563Y020322D01*
X017350Y022645D02*
X017705Y022645D01*
X017803Y022547D01*
X020362Y019791D02*
X020362Y019397D01*
X020362Y019004D01*
X018059Y013689D02*
X017606Y013689D01*
X016425Y006371D02*
X016287Y006233D01*
X016287Y005815D01*
X016287Y005027D02*
X016287Y004609D01*
X016425Y004471D01*
D48*
X000923Y002320D02*
X000923Y029387D01*
X011090Y029387D01*
X010492Y028789D01*
X010380Y028677D01*
X010320Y028531D01*
X010320Y025383D01*
X009919Y024982D01*
X009846Y024807D01*
X009846Y024689D01*
X009833Y024701D01*
X009800Y024721D01*
X009762Y024731D01*
X009356Y024731D01*
X009356Y024481D01*
X009350Y024481D01*
X009350Y024731D01*
X008994Y024731D01*
X008994Y024889D01*
X008984Y024927D01*
X008965Y024960D01*
X008937Y024988D01*
X008903Y025007D01*
X008866Y025017D01*
X008699Y025017D01*
X008699Y024702D01*
X008600Y024702D01*
X008600Y024604D01*
X008305Y024604D01*
X008305Y024417D01*
X008315Y024380D01*
X008329Y024355D01*
X008256Y024282D01*
X008256Y023881D01*
X007101Y022726D01*
X007053Y022610D01*
X007053Y020046D01*
X006975Y020014D01*
X006779Y019818D01*
X006673Y019561D01*
X006673Y019284D01*
X006779Y019028D01*
X006975Y018832D01*
X007231Y018726D01*
X007509Y018726D01*
X007765Y018832D01*
X007782Y018849D01*
X007782Y018779D01*
X007752Y018749D01*
X007715Y018659D01*
X007715Y017713D01*
X007642Y017641D01*
X007585Y017503D01*
X007585Y017354D01*
X007642Y017216D01*
X007748Y017111D01*
X007886Y017053D01*
X008035Y017053D01*
X008173Y017111D01*
X008279Y017216D01*
X008336Y017354D01*
X008336Y017503D01*
X008279Y017641D01*
X008207Y017713D01*
X008207Y018431D01*
X008232Y018431D01*
X008370Y018489D01*
X008476Y018594D01*
X008533Y018732D01*
X008533Y018881D01*
X008476Y019019D01*
X008370Y019125D01*
X008232Y019182D01*
X008083Y019182D01*
X008012Y019153D01*
X008067Y019284D01*
X008067Y019561D01*
X007961Y019818D01*
X007765Y020014D01*
X007687Y020046D01*
X007687Y020391D01*
X008108Y020391D01*
X008108Y020923D01*
X008207Y020923D01*
X008207Y021021D01*
X008817Y021021D01*
X008817Y021425D01*
X008807Y021462D01*
X008787Y021496D01*
X008760Y021523D01*
X008726Y021543D01*
X008689Y021553D01*
X008207Y021553D01*
X008207Y021021D01*
X008108Y021021D01*
X008108Y021553D01*
X007687Y021553D01*
X007687Y022416D01*
X007971Y022700D01*
X007971Y022547D01*
X007846Y022422D01*
X007774Y022247D01*
X007774Y022059D01*
X007846Y021885D01*
X007979Y021751D01*
X008154Y021679D01*
X008342Y021679D01*
X008517Y021751D01*
X008650Y021885D01*
X008722Y022059D01*
X008722Y022247D01*
X008650Y022422D01*
X008525Y022547D01*
X008525Y022720D01*
X008766Y022961D01*
X008766Y022791D01*
X008881Y022676D01*
X008971Y022676D01*
X008971Y022547D01*
X008846Y022422D01*
X008774Y022247D01*
X008774Y022059D01*
X008846Y021885D01*
X008979Y021751D01*
X009154Y021679D01*
X009342Y021679D01*
X009517Y021751D01*
X009650Y021885D01*
X009722Y022059D01*
X009722Y022247D01*
X009650Y022422D01*
X009525Y022547D01*
X009525Y022676D01*
X009824Y022676D01*
X009846Y022698D01*
X009846Y021602D01*
X009533Y021602D01*
X009417Y021487D01*
X009417Y020457D01*
X009533Y020342D01*
X009846Y020342D01*
X009846Y019893D01*
X009919Y019718D01*
X010053Y019584D01*
X010411Y019226D01*
X010457Y019180D01*
X010441Y019164D01*
X010397Y019182D01*
X010248Y019182D01*
X010110Y019125D01*
X010005Y019019D01*
X009948Y018881D01*
X009948Y018732D01*
X010005Y018594D01*
X010110Y018489D01*
X010248Y018431D01*
X010397Y018431D01*
X010441Y018449D01*
X010497Y018393D01*
X011054Y018393D01*
X011110Y018450D01*
X011125Y018434D01*
X011125Y018195D01*
X011110Y018180D01*
X011054Y018236D01*
X010497Y018236D01*
X010441Y018179D01*
X010245Y018179D01*
X010201Y018198D01*
X010051Y018198D01*
X009913Y018141D01*
X009808Y018035D01*
X009751Y017897D01*
X009751Y017748D01*
X009808Y017610D01*
X009891Y017527D01*
X009808Y017444D01*
X009751Y017307D01*
X009751Y017157D01*
X009785Y017074D01*
X009710Y017074D01*
X009594Y016959D01*
X009594Y016166D01*
X009710Y016051D01*
X009880Y016051D01*
X009880Y015942D01*
X009808Y015870D01*
X009751Y015732D01*
X009751Y015639D01*
X009705Y015639D01*
X009585Y015759D01*
X009585Y018825D01*
X009610Y018825D01*
X009748Y018882D01*
X009854Y018988D01*
X009911Y019126D01*
X009911Y019275D01*
X009854Y019413D01*
X009748Y019519D01*
X009610Y019576D01*
X009508Y019576D01*
X009191Y019893D01*
X009191Y019900D01*
X009263Y019972D01*
X009320Y020110D01*
X009320Y020259D01*
X009263Y020397D01*
X009157Y020503D01*
X009020Y020560D01*
X008870Y020560D01*
X008817Y020538D01*
X008817Y020923D01*
X008207Y020923D01*
X008207Y020391D01*
X008624Y020391D01*
X008570Y020259D01*
X008570Y020166D01*
X008477Y020166D01*
X008339Y020109D01*
X008233Y020004D01*
X008176Y019866D01*
X008176Y019716D01*
X008233Y019578D01*
X008333Y019479D01*
X008343Y019455D01*
X008412Y019385D01*
X009092Y018705D01*
X009092Y018561D01*
X009020Y018591D01*
X008870Y018591D01*
X008732Y018534D01*
X008627Y018429D01*
X008570Y018291D01*
X008570Y018141D01*
X008627Y018004D01*
X008699Y017931D01*
X008699Y017713D01*
X008627Y017641D01*
X008570Y017503D01*
X008570Y017354D01*
X008627Y017216D01*
X008732Y017111D01*
X008870Y017053D01*
X009020Y017053D01*
X009092Y017084D01*
X009092Y015608D01*
X009130Y015518D01*
X009357Y015291D01*
X009357Y015189D01*
X009414Y015051D01*
X009433Y015032D01*
X009002Y015032D01*
X008967Y015067D01*
X008214Y015067D01*
X008098Y014951D01*
X008098Y014158D01*
X008214Y014043D01*
X008862Y014043D01*
X008862Y013832D01*
X008846Y013836D01*
X008659Y013836D01*
X008659Y013541D01*
X008561Y013541D01*
X008561Y013836D01*
X008374Y013836D01*
X008337Y013826D01*
X008303Y013807D01*
X008276Y013779D01*
X008256Y013746D01*
X008246Y013708D01*
X008246Y013541D01*
X008561Y013541D01*
X008561Y013443D01*
X008246Y013443D01*
X008246Y013275D01*
X008256Y013238D01*
X008276Y013204D01*
X008303Y013177D01*
X008337Y013157D01*
X008374Y013147D01*
X008561Y013147D01*
X008561Y013443D01*
X008659Y013443D01*
X008659Y013147D01*
X008846Y013147D01*
X008862Y013151D01*
X008862Y011486D01*
X008016Y011486D01*
X007900Y011371D01*
X007900Y011016D01*
X006405Y011016D01*
X006405Y011073D01*
X006349Y011130D01*
X006368Y011148D01*
X006460Y011148D01*
X006598Y011205D01*
X006704Y011311D01*
X006761Y011449D01*
X006761Y011551D01*
X006988Y011778D01*
X007026Y011868D01*
X007026Y011963D01*
X007075Y012013D01*
X007075Y012766D01*
X006959Y012881D01*
X006711Y012881D01*
X006711Y012942D01*
X006795Y012977D01*
X006901Y013082D01*
X006958Y013220D01*
X006958Y013370D01*
X006901Y013507D01*
X006795Y013613D01*
X006657Y013670D01*
X006508Y013670D01*
X006396Y013624D01*
X006396Y015352D01*
X006367Y015420D01*
X006367Y015535D01*
X006310Y015673D01*
X006205Y015778D01*
X006067Y015836D01*
X005917Y015836D01*
X005780Y015778D01*
X005697Y015696D01*
X005614Y015778D01*
X005476Y015836D01*
X005327Y015836D01*
X005189Y015778D01*
X005083Y015673D01*
X005026Y015535D01*
X005026Y015386D01*
X005083Y015248D01*
X005189Y015142D01*
X005327Y015085D01*
X005429Y015085D01*
X005589Y014925D01*
X005589Y012881D01*
X004555Y012881D01*
X004555Y013511D01*
X004510Y013620D01*
X004427Y013703D01*
X003925Y014205D01*
X003925Y016027D01*
X003949Y016051D01*
X005362Y016051D01*
X005470Y016096D01*
X005553Y016179D01*
X005770Y016395D01*
X005815Y016504D01*
X005815Y016513D01*
X005835Y016513D01*
X005920Y016513D01*
X005970Y016464D01*
X006645Y016464D01*
X006694Y016513D01*
X006779Y016513D01*
X006779Y016956D01*
X006780Y016956D01*
X006780Y016956D01*
X007026Y016956D01*
X007026Y016642D01*
X007015Y016604D01*
X006996Y016570D01*
X006969Y016543D01*
X006935Y016523D01*
X006897Y016513D01*
X006780Y016513D01*
X006780Y016956D01*
X007026Y016956D01*
X007026Y017271D01*
X007015Y017309D01*
X006996Y017342D01*
X006969Y017370D01*
X006935Y017389D01*
X006897Y017399D01*
X006780Y017399D01*
X006780Y016956D01*
X006779Y016956D01*
X006779Y017399D01*
X006760Y017399D01*
X006760Y017999D01*
X006715Y018108D01*
X006484Y018338D01*
X006484Y019865D01*
X006553Y019934D01*
X006636Y020017D01*
X006681Y020126D01*
X006681Y020540D01*
X006704Y020563D01*
X006761Y020701D01*
X006761Y020850D01*
X006704Y020988D01*
X006598Y021093D01*
X006481Y021142D01*
X006833Y021494D01*
X006878Y021602D01*
X006878Y022674D01*
X006861Y022715D01*
X006861Y023215D01*
X006746Y023330D01*
X005983Y023330D01*
X005867Y023215D01*
X005867Y022452D01*
X005983Y022337D01*
X006287Y022337D01*
X006287Y022110D01*
X006285Y022115D01*
X006146Y022255D01*
X005963Y022330D01*
X005765Y022330D01*
X005583Y022255D01*
X005443Y022115D01*
X005367Y021932D01*
X005367Y021841D01*
X005361Y021835D01*
X005361Y021932D01*
X005285Y022115D01*
X005146Y022255D01*
X004963Y022330D01*
X004765Y022330D01*
X004583Y022255D01*
X004443Y022115D01*
X004367Y021932D01*
X004367Y021735D01*
X004443Y021552D01*
X004453Y021542D01*
X004398Y021487D01*
X004398Y021479D01*
X004348Y021459D01*
X004265Y021376D01*
X004216Y021326D01*
X003942Y021326D01*
X003827Y021211D01*
X003827Y020615D01*
X003900Y020542D01*
X003886Y020517D01*
X003876Y020480D01*
X003876Y020293D01*
X004171Y020293D01*
X004171Y020194D01*
X004270Y020194D01*
X004270Y019880D01*
X004437Y019880D01*
X004474Y019890D01*
X004508Y019909D01*
X004535Y019937D01*
X004555Y019970D01*
X004565Y020008D01*
X004565Y020145D01*
X004575Y020145D01*
X004575Y019591D01*
X004690Y019476D01*
X004713Y019476D01*
X004713Y018903D01*
X003630Y019986D01*
X003630Y020542D01*
X003593Y020578D01*
X003630Y020615D01*
X003630Y021182D01*
X003797Y021337D01*
X003963Y021337D01*
X004146Y021412D01*
X004285Y021552D01*
X004361Y021735D01*
X004361Y021932D01*
X004285Y022115D01*
X004146Y022255D01*
X003963Y022330D01*
X003765Y022330D01*
X003583Y022255D01*
X003443Y022115D01*
X003367Y021932D01*
X003367Y021912D01*
X003041Y021609D01*
X003034Y021606D01*
X002989Y021561D01*
X002942Y021518D01*
X002939Y021511D01*
X002934Y021506D01*
X002909Y021447D01*
X002882Y021389D01*
X002882Y021382D01*
X002879Y021375D01*
X002879Y021311D01*
X002879Y021307D01*
X002703Y021307D01*
X002430Y021579D01*
X002430Y022045D01*
X002596Y022045D01*
X002596Y022360D01*
X002695Y022360D01*
X002695Y022458D01*
X002990Y022458D01*
X002990Y022505D01*
X003083Y022412D01*
X003265Y022337D01*
X003463Y022337D01*
X003646Y022412D01*
X003785Y022552D01*
X003861Y022735D01*
X003861Y022932D01*
X003785Y023115D01*
X003646Y023255D01*
X003463Y023330D01*
X003265Y023330D01*
X003083Y023255D01*
X003039Y023211D01*
X003039Y023336D01*
X003154Y023451D01*
X004060Y023451D01*
X004060Y023232D01*
X003943Y023115D01*
X003867Y022932D01*
X003867Y022735D01*
X003943Y022552D01*
X004083Y022412D01*
X004265Y022337D01*
X004463Y022337D01*
X004646Y022412D01*
X004785Y022552D01*
X004861Y022735D01*
X004861Y022932D01*
X004785Y023115D01*
X004774Y023126D01*
X004774Y023260D01*
X004936Y023098D01*
X004867Y022932D01*
X004867Y022735D01*
X004943Y022552D01*
X005083Y022412D01*
X005265Y022337D01*
X005463Y022337D01*
X005646Y022412D01*
X005785Y022552D01*
X005861Y022735D01*
X005861Y022932D01*
X005785Y023115D01*
X005721Y023179D01*
X005721Y023246D01*
X005667Y023377D01*
X005402Y023642D01*
X005402Y024085D01*
X005365Y024122D01*
X005402Y024158D01*
X005402Y024754D01*
X005286Y024870D01*
X004729Y024870D01*
X004710Y024850D01*
X004119Y024850D01*
X004004Y024735D01*
X004004Y024690D01*
X003927Y024613D01*
X003712Y024399D01*
X002891Y024399D01*
X002885Y024401D01*
X002836Y024399D01*
X002787Y024399D01*
X002782Y024396D01*
X002775Y024396D01*
X002731Y024375D01*
X002686Y024356D01*
X002681Y024352D01*
X002676Y024349D01*
X002642Y024313D01*
X002608Y024278D01*
X002605Y024273D01*
X001560Y023132D01*
X001525Y023097D01*
X001523Y023092D01*
X001519Y023087D01*
X001502Y023041D01*
X001483Y022996D01*
X001483Y022989D01*
X001481Y022984D01*
X001483Y022935D01*
X001483Y020228D01*
X001525Y020126D01*
X002194Y019458D01*
X002295Y019416D01*
X002925Y019416D01*
X003482Y018858D01*
X003482Y018600D01*
X003384Y018600D01*
X003384Y018915D01*
X003217Y018915D01*
X003179Y018905D01*
X003146Y018885D01*
X003135Y018874D01*
X003116Y018885D01*
X003078Y018895D01*
X002892Y018895D01*
X002892Y018600D01*
X003384Y018600D01*
X003384Y018502D01*
X003089Y018502D01*
X002892Y018502D01*
X002892Y018600D01*
X002793Y018600D01*
X002793Y018502D01*
X002478Y018502D01*
X002478Y018334D01*
X002488Y018297D01*
X002508Y018263D01*
X002520Y018251D01*
X002429Y018160D01*
X002429Y018097D01*
X002373Y018232D01*
X002268Y018337D01*
X002130Y018395D01*
X001980Y018395D01*
X001974Y018392D01*
X001980Y018397D01*
X002037Y018535D01*
X002037Y018684D01*
X001980Y018822D01*
X001874Y018928D01*
X001736Y018985D01*
X001587Y018985D01*
X001449Y018928D01*
X001343Y018822D01*
X001286Y018684D01*
X001286Y018535D01*
X001343Y018397D01*
X001385Y018356D01*
X001385Y017763D01*
X001363Y017763D01*
X001248Y017648D01*
X001248Y017091D01*
X001304Y017035D01*
X001248Y016979D01*
X001248Y016422D01*
X001363Y016307D01*
X001385Y016307D01*
X001385Y016291D01*
X001427Y016189D01*
X001505Y016111D01*
X002233Y015383D01*
X002335Y015341D01*
X002429Y015341D01*
X002429Y014935D01*
X002324Y015040D01*
X002149Y015113D01*
X001961Y015113D01*
X001787Y015040D01*
X001653Y014907D01*
X001581Y014733D01*
X001581Y014544D01*
X001630Y014427D01*
X001573Y014427D01*
X001573Y014131D01*
X001474Y014131D01*
X001474Y014033D01*
X001159Y014033D01*
X001159Y013866D01*
X001169Y013828D01*
X001189Y013795D01*
X001216Y013767D01*
X001250Y013748D01*
X001288Y013738D01*
X001474Y013738D01*
X001474Y014033D01*
X001573Y014033D01*
X001573Y013738D01*
X001760Y013738D01*
X001797Y013748D01*
X001821Y013762D01*
X001895Y013689D01*
X002298Y013689D01*
X001895Y013689D01*
X001821Y013615D01*
X001797Y013629D01*
X001760Y013639D01*
X001573Y013639D01*
X001573Y013344D01*
X001474Y013344D01*
X001474Y013246D01*
X001159Y013246D01*
X001159Y013079D01*
X001169Y013041D01*
X001189Y013007D01*
X001216Y012980D01*
X001250Y012960D01*
X001288Y012950D01*
X001474Y012950D01*
X001474Y013246D01*
X001573Y013246D01*
X001573Y012950D01*
X001630Y012950D01*
X001581Y012833D01*
X001581Y012644D01*
X001653Y012470D01*
X001787Y012337D01*
X001961Y012265D01*
X002149Y012265D01*
X002324Y012337D01*
X002457Y012470D01*
X002529Y012644D01*
X002529Y012756D01*
X002550Y012805D01*
X002550Y012873D01*
X002569Y012862D01*
X002607Y012852D01*
X002921Y012852D01*
X002921Y013098D01*
X002606Y013098D01*
X002606Y013098D01*
X002921Y013098D01*
X002921Y013098D01*
X002921Y013098D01*
X002842Y013098D01*
X002921Y013098D02*
X002921Y012852D01*
X003236Y012852D01*
X003273Y012862D01*
X003307Y012881D01*
X003335Y012909D01*
X003354Y012943D01*
X003364Y012980D01*
X003364Y013098D01*
X002921Y013098D01*
X002921Y013098D01*
X003364Y013098D01*
X003364Y013184D01*
X003413Y013233D01*
X003413Y013748D01*
X003547Y013748D01*
X003965Y013330D01*
X003965Y012832D01*
X003945Y012832D01*
X003945Y012389D01*
X003945Y011946D01*
X003965Y011946D01*
X003965Y011819D01*
X004009Y011710D01*
X004167Y011552D01*
X004167Y011434D01*
X004235Y011270D01*
X004271Y011234D01*
X003814Y010778D01*
X003805Y010756D01*
X003804Y010756D01*
X003785Y010736D01*
X003273Y010736D01*
X003199Y010662D01*
X003175Y010677D01*
X003138Y010687D01*
X002951Y010687D01*
X002951Y010391D01*
X002852Y010391D01*
X002852Y010293D01*
X002537Y010293D01*
X002537Y010126D01*
X002542Y010108D01*
X002371Y010108D01*
X002327Y010127D01*
X002177Y010127D01*
X002039Y010070D01*
X001934Y009964D01*
X001877Y009826D01*
X001877Y009724D01*
X001453Y009300D01*
X001415Y009210D01*
X001415Y006801D01*
X001415Y006754D01*
X001415Y006752D01*
X001415Y006750D01*
X001433Y006706D01*
X001451Y006663D01*
X001452Y006661D01*
X001453Y006659D01*
X001486Y006626D01*
X001710Y006395D01*
X001672Y006303D01*
X001672Y006114D01*
X001744Y005940D01*
X001877Y005806D01*
X002051Y005734D01*
X002240Y005734D01*
X002383Y005793D01*
X002262Y005673D01*
X002240Y005682D01*
X002051Y005682D01*
X001877Y005610D01*
X001744Y005477D01*
X001672Y005303D01*
X001672Y005114D01*
X001744Y004940D01*
X001877Y004806D01*
X002051Y004734D01*
X002197Y004734D01*
X002255Y004676D01*
X002240Y004682D01*
X002051Y004682D01*
X001877Y004610D01*
X001744Y004477D01*
X001672Y004303D01*
X001672Y004114D01*
X001744Y003940D01*
X001877Y003806D01*
X002051Y003734D01*
X002240Y003734D01*
X002414Y003806D01*
X002547Y003940D01*
X002620Y004114D01*
X002620Y004303D01*
X002547Y004477D01*
X002538Y004486D01*
X003823Y004486D01*
X005656Y002653D01*
X005746Y002616D01*
X014506Y002616D01*
X014596Y002653D01*
X014978Y003035D01*
X015015Y003125D01*
X015015Y003389D01*
X015056Y003429D01*
X015056Y004083D01*
X015289Y004083D01*
X015289Y004321D01*
X015289Y004321D01*
X014852Y004321D01*
X014852Y004354D01*
X014711Y004354D01*
X014601Y004354D01*
X014499Y004396D01*
X014438Y004457D01*
X014438Y004362D01*
X014407Y004288D01*
X014852Y004288D01*
X014852Y004321D01*
X015289Y004321D01*
X015289Y004321D01*
X015727Y004321D01*
X015727Y004410D01*
X015776Y004459D01*
X015776Y004802D01*
X015727Y004852D01*
X015727Y004951D01*
X015727Y004984D01*
X015823Y004888D01*
X015874Y004837D01*
X015874Y004749D01*
X015931Y004692D01*
X015931Y004538D01*
X015951Y004488D01*
X015951Y004377D01*
X016023Y004202D01*
X016157Y004069D01*
X016331Y003997D01*
X016519Y003997D01*
X016694Y004069D01*
X016827Y004202D01*
X016899Y004377D01*
X016899Y004565D01*
X016851Y004683D01*
X016907Y004683D01*
X016907Y004978D01*
X017006Y004978D01*
X017006Y005076D01*
X017321Y005076D01*
X017321Y005243D01*
X017311Y005281D01*
X017291Y005315D01*
X017264Y005342D01*
X017230Y005362D01*
X017193Y005372D01*
X017006Y005372D01*
X017006Y005076D01*
X016907Y005076D01*
X016907Y005372D01*
X016721Y005372D01*
X016683Y005362D01*
X016659Y005348D01*
X016585Y005421D01*
X016659Y005494D01*
X016683Y005480D01*
X016721Y005470D01*
X016907Y005470D01*
X016907Y005765D01*
X017006Y005765D01*
X017006Y005470D01*
X017193Y005470D01*
X017230Y005480D01*
X017264Y005500D01*
X017291Y005527D01*
X017311Y005561D01*
X017321Y005598D01*
X017321Y005765D01*
X017006Y005765D01*
X017006Y005864D01*
X016907Y005864D01*
X016907Y006159D01*
X016851Y006159D01*
X016899Y006277D01*
X016899Y006465D01*
X016827Y006639D01*
X016694Y006773D01*
X016519Y006845D01*
X016331Y006845D01*
X016157Y006773D01*
X016023Y006639D01*
X015951Y006465D01*
X015951Y006354D01*
X015931Y006304D01*
X015931Y006149D01*
X015874Y006093D01*
X015874Y006005D01*
X015823Y005954D01*
X015776Y005907D01*
X015776Y006382D01*
X015727Y006432D01*
X015727Y006521D01*
X015727Y006630D01*
X016019Y006630D01*
X015979Y006533D02*
X015727Y006533D01*
X015727Y006521D02*
X015289Y006521D01*
X015289Y006521D01*
X014852Y006521D01*
X014852Y006554D01*
X013912Y006554D01*
X013925Y006541D01*
X013978Y006488D01*
X014852Y006488D01*
X014852Y006521D01*
X015289Y006521D01*
X015289Y006759D01*
X015056Y006759D01*
X015056Y007247D01*
X015217Y007408D01*
X015319Y007408D01*
X015457Y007465D01*
X015562Y007570D01*
X015619Y007708D01*
X015619Y007858D01*
X015562Y007996D01*
X015457Y008101D01*
X015319Y008158D01*
X015169Y008158D01*
X015031Y008101D01*
X014949Y008019D01*
X014866Y008101D01*
X014728Y008158D01*
X014579Y008158D01*
X014441Y008101D01*
X014358Y008019D01*
X014276Y008101D01*
X014138Y008158D01*
X013988Y008158D01*
X013850Y008101D01*
X013768Y008019D01*
X013685Y008101D01*
X013547Y008158D01*
X013398Y008158D01*
X013260Y008101D01*
X013154Y007996D01*
X013097Y007858D01*
X013097Y007708D01*
X013154Y007570D01*
X013246Y007479D01*
X013199Y007479D01*
X013100Y007479D01*
X013051Y007528D01*
X012567Y007528D01*
X012609Y007570D01*
X012667Y007708D01*
X012667Y007858D01*
X012609Y007996D01*
X012504Y008101D01*
X012366Y008158D01*
X012217Y008158D01*
X012079Y008101D01*
X011973Y007996D01*
X011916Y007858D01*
X011916Y007756D01*
X011886Y007726D01*
X011848Y007635D01*
X011848Y006808D01*
X011678Y006808D01*
X011584Y006714D01*
X011584Y006742D01*
X011625Y006783D01*
X011682Y006921D01*
X011682Y007070D01*
X011661Y007121D01*
X011661Y007668D01*
X011546Y007783D01*
X010950Y007783D01*
X010877Y007710D01*
X010852Y007724D01*
X010815Y007734D01*
X010628Y007734D01*
X010628Y007439D01*
X010530Y007439D01*
X010530Y007734D01*
X010343Y007734D01*
X010305Y007724D01*
X010272Y007704D01*
X010244Y007677D01*
X010225Y007643D01*
X010215Y007606D01*
X010215Y007439D01*
X010529Y007439D01*
X010529Y007340D01*
X010215Y007340D01*
X010215Y007173D01*
X010225Y007136D01*
X010244Y007102D01*
X010272Y007074D01*
X010305Y007055D01*
X010343Y007045D01*
X010530Y007045D01*
X010530Y007340D01*
X010628Y007340D01*
X010628Y007045D01*
X010815Y007045D01*
X010852Y007055D01*
X010877Y007069D01*
X010932Y007014D01*
X010932Y006921D01*
X010989Y006783D01*
X011030Y006742D01*
X011030Y006153D01*
X011072Y006051D01*
X011150Y005974D01*
X011304Y005820D01*
X011229Y005789D01*
X010910Y005470D01*
X010031Y005470D01*
X008957Y006545D01*
X008887Y006614D01*
X008886Y006614D01*
X008886Y006703D01*
X008770Y006819D01*
X008458Y006819D01*
X008559Y006920D01*
X008631Y007094D01*
X008631Y007283D01*
X008559Y007457D01*
X008426Y007590D01*
X008252Y007663D01*
X008063Y007663D01*
X007889Y007590D01*
X007764Y007465D01*
X007639Y007590D01*
X007464Y007663D01*
X007276Y007663D01*
X007148Y007610D01*
X007155Y007626D01*
X007155Y007828D01*
X007276Y007778D01*
X007464Y007778D01*
X007639Y007850D01*
X007764Y007975D01*
X007889Y007850D01*
X008063Y007778D01*
X008252Y007778D01*
X008426Y007850D01*
X008559Y007983D01*
X008631Y008157D01*
X008631Y008346D01*
X008559Y008520D01*
X008426Y008653D01*
X008252Y008726D01*
X008063Y008726D01*
X007889Y008653D01*
X007764Y008528D01*
X007639Y008653D01*
X007464Y008726D01*
X007276Y008726D01*
X007155Y008676D01*
X007155Y008948D01*
X007168Y008961D01*
X011030Y008961D01*
X011297Y008694D01*
X011431Y008560D01*
X011606Y008487D01*
X016023Y008487D01*
X016023Y008205D01*
X016095Y008029D01*
X017005Y007119D01*
X017139Y006985D01*
X017315Y006913D01*
X017567Y006913D01*
X017567Y006796D01*
X017682Y006681D01*
X018711Y006681D01*
X018784Y006753D01*
X019015Y006522D01*
X019378Y006371D01*
X019771Y006371D01*
X020134Y006522D01*
X020412Y006799D01*
X020562Y007162D01*
X020562Y007555D01*
X020509Y007683D01*
X020536Y007748D01*
X020536Y008543D01*
X020463Y008719D01*
X020329Y008853D01*
X020154Y008925D01*
X019964Y008925D01*
X019789Y008853D01*
X019655Y008719D01*
X019582Y008543D01*
X019582Y008346D01*
X019378Y008346D01*
X019015Y008196D01*
X018815Y007995D01*
X018711Y008098D01*
X017682Y008098D01*
X017567Y007983D01*
X017567Y007906D01*
X017296Y008177D01*
X017767Y008177D01*
X017840Y008250D01*
X017864Y008236D01*
X017902Y008226D01*
X018089Y008226D01*
X018089Y008521D01*
X018187Y008521D01*
X018187Y008226D01*
X018374Y008226D01*
X018411Y008236D01*
X018445Y008255D01*
X018472Y008283D01*
X018492Y008317D01*
X018502Y008354D01*
X018502Y008521D01*
X018187Y008521D01*
X018187Y008620D01*
X018502Y008620D01*
X018502Y008756D01*
X018614Y008756D01*
X018651Y008766D01*
X018685Y008786D01*
X018713Y008813D01*
X018732Y008847D01*
X018742Y008885D01*
X018742Y009250D01*
X018349Y009250D01*
X018349Y009348D01*
X018742Y009348D01*
X018742Y009713D01*
X018732Y009751D01*
X018713Y009785D01*
X018685Y009812D01*
X018651Y009832D01*
X018614Y009842D01*
X018349Y009842D01*
X018349Y009348D01*
X018250Y009348D01*
X018250Y009842D01*
X017985Y009842D01*
X017947Y009832D01*
X017914Y009812D01*
X017886Y009785D01*
X017885Y009782D01*
X017776Y009891D01*
X017023Y009891D01*
X016949Y009817D01*
X016876Y009891D01*
X016123Y009891D01*
X016008Y009776D01*
X016008Y009441D01*
X015501Y009441D01*
X015501Y010006D01*
X015428Y010079D01*
X015501Y010152D01*
X015501Y010185D01*
X015916Y010185D01*
X016031Y010300D01*
X016031Y010896D01*
X015958Y010969D01*
X015972Y010994D01*
X015982Y011031D01*
X015982Y011218D01*
X015687Y011218D01*
X015687Y011317D01*
X015589Y011317D01*
X015589Y011631D01*
X015452Y011631D01*
X015452Y011743D01*
X015442Y011781D01*
X015422Y011815D01*
X015403Y011834D01*
X016463Y011834D01*
X016463Y011302D01*
X016578Y011187D01*
X018241Y011187D01*
X018356Y011302D01*
X018356Y011834D01*
X020752Y011834D01*
X020789Y011849D01*
X020657Y011717D01*
X020585Y011543D01*
X020585Y011354D01*
X020657Y011180D01*
X020791Y011047D01*
X020965Y010974D01*
X021153Y010974D01*
X021328Y011047D01*
X021461Y011180D01*
X021533Y011354D01*
X021533Y011543D01*
X021461Y011717D01*
X021328Y011850D01*
X021153Y011922D01*
X020965Y011922D01*
X020929Y011908D01*
X021062Y012041D01*
X022046Y013025D01*
X022119Y013200D01*
X022119Y015706D01*
X022222Y015706D01*
X022222Y016002D01*
X022321Y016002D01*
X022321Y015706D01*
X022478Y015706D01*
X022478Y002320D01*
X000923Y002320D01*
X000923Y002365D02*
X022478Y002365D01*
X022478Y002462D02*
X000923Y002462D01*
X000923Y002559D02*
X018446Y002559D01*
X018499Y002506D02*
X018317Y002688D01*
X018262Y002665D01*
X017768Y002665D01*
X017675Y002703D01*
X017643Y002735D01*
X017611Y002703D01*
X017519Y002665D01*
X017222Y002665D01*
X017129Y002703D01*
X017097Y002735D01*
X017065Y002703D01*
X016973Y002665D01*
X016479Y002665D01*
X016386Y002703D01*
X016315Y002774D01*
X016277Y002867D01*
X016277Y002960D01*
X016234Y002960D01*
X016234Y002867D01*
X016196Y002774D01*
X016125Y002703D01*
X016033Y002665D01*
X015933Y002665D01*
X015840Y002703D01*
X015769Y002774D01*
X015731Y002867D01*
X015731Y003009D01*
X015671Y003069D01*
X015632Y003162D01*
X015632Y003262D01*
X015671Y003355D01*
X015731Y003415D01*
X015731Y003557D01*
X015769Y003650D01*
X015840Y003721D01*
X015933Y003759D01*
X016033Y003759D01*
X016125Y003721D01*
X016421Y003426D01*
X016474Y003372D01*
X016474Y003557D01*
X016485Y003584D01*
X016512Y003650D01*
X016583Y003721D01*
X016676Y003759D01*
X016776Y003759D01*
X016802Y003748D01*
X016868Y003721D01*
X016939Y003650D01*
X016939Y003650D01*
X016999Y003590D01*
X017058Y003650D01*
X017058Y003650D01*
X017126Y003718D01*
X017129Y003721D01*
X017129Y003721D01*
X017182Y003743D01*
X017222Y003759D01*
X017519Y003759D01*
X017556Y003744D01*
X017611Y003721D01*
X017682Y003650D01*
X017682Y003650D01*
X017692Y003640D01*
X017703Y003650D01*
X017703Y003650D01*
X017774Y003721D01*
X017829Y003744D01*
X017866Y003759D01*
X018163Y003759D01*
X018203Y003743D01*
X018256Y003721D01*
X018256Y003721D01*
X018258Y003718D01*
X018327Y003650D01*
X018327Y003650D01*
X018425Y003552D01*
X018463Y003459D01*
X018463Y003359D01*
X018425Y003267D01*
X018593Y003267D01*
X018640Y003247D01*
X018640Y003557D01*
X018679Y003650D01*
X018749Y003721D01*
X018842Y003759D01*
X018942Y003759D01*
X019035Y003721D01*
X019089Y003667D01*
X019143Y003721D01*
X019236Y003759D01*
X019336Y003759D01*
X019411Y003728D01*
X019487Y003759D01*
X019587Y003759D01*
X019679Y003721D01*
X019733Y003667D01*
X019788Y003721D01*
X019880Y003759D01*
X019980Y003759D01*
X020056Y003728D01*
X020131Y003759D01*
X020231Y003759D01*
X020258Y003748D01*
X020324Y003721D01*
X020378Y003667D01*
X020432Y003721D01*
X020497Y003748D01*
X020525Y003759D01*
X020625Y003759D01*
X020718Y003721D01*
X020788Y003650D01*
X020789Y003648D01*
X020862Y003721D01*
X020954Y003759D01*
X021055Y003759D01*
X021147Y003721D01*
X021179Y003689D01*
X021211Y003721D01*
X021267Y003744D01*
X021304Y003759D01*
X021601Y003759D01*
X021640Y003743D01*
X021693Y003721D01*
X021693Y003721D01*
X021696Y003718D01*
X021716Y003698D01*
X021739Y003721D01*
X021832Y003759D01*
X021932Y003759D01*
X022025Y003721D01*
X022221Y003524D01*
X022221Y003524D01*
X022292Y003453D01*
X022331Y003361D01*
X022331Y003064D01*
X022292Y002971D01*
X022221Y002900D01*
X022025Y002703D01*
X021932Y002665D01*
X021832Y002665D01*
X021739Y002703D01*
X021716Y002726D01*
X021693Y002703D01*
X021601Y002665D01*
X021304Y002665D01*
X021211Y002703D01*
X021179Y002735D01*
X021147Y002703D01*
X021055Y002665D01*
X020954Y002665D01*
X020862Y002703D01*
X020789Y002776D01*
X020788Y002774D01*
X020718Y002703D01*
X020625Y002665D01*
X020525Y002665D01*
X020432Y002703D01*
X020378Y002757D01*
X020324Y002703D01*
X020231Y002665D01*
X020131Y002665D01*
X020039Y002703D01*
X019968Y002774D01*
X019962Y002789D01*
X019947Y002774D01*
X019876Y002703D01*
X019784Y002665D01*
X019683Y002665D01*
X019591Y002703D01*
X019411Y002883D01*
X019302Y002774D01*
X019232Y002703D01*
X019139Y002665D01*
X019039Y002665D01*
X018946Y002703D01*
X018893Y002757D01*
X018893Y002670D01*
X018855Y002577D01*
X018784Y002506D01*
X018691Y002468D01*
X018591Y002468D01*
X018499Y002506D01*
X018349Y002656D02*
X014599Y002656D01*
X014696Y002753D02*
X015790Y002753D01*
X015738Y002850D02*
X014793Y002850D01*
X014890Y002947D02*
X015731Y002947D01*
X015696Y003044D02*
X014981Y003044D01*
X015015Y003141D02*
X015641Y003141D01*
X015632Y003238D02*
X015015Y003238D01*
X015015Y003334D02*
X015662Y003334D01*
X015731Y003431D02*
X015056Y003431D01*
X015056Y003528D02*
X015731Y003528D01*
X015759Y003625D02*
X015056Y003625D01*
X015056Y003722D02*
X015843Y003722D01*
X016122Y003722D02*
X016586Y003722D01*
X016502Y003625D02*
X016221Y003625D01*
X016318Y003528D02*
X016474Y003528D01*
X016474Y003431D02*
X016415Y003431D01*
X016277Y002947D02*
X016234Y002947D01*
X016227Y002850D02*
X016284Y002850D01*
X016337Y002753D02*
X016175Y002753D01*
X016964Y003625D02*
X017033Y003625D01*
X017132Y003722D02*
X016865Y003722D01*
X016735Y004110D02*
X022478Y004110D01*
X022478Y004207D02*
X016829Y004207D01*
X016869Y004304D02*
X022478Y004304D01*
X022478Y004401D02*
X016899Y004401D01*
X016899Y004498D02*
X022478Y004498D01*
X022478Y004594D02*
X016887Y004594D01*
X016907Y004691D02*
X017006Y004691D01*
X017006Y004683D02*
X017193Y004683D01*
X017230Y004693D01*
X017264Y004712D01*
X017291Y004740D01*
X017311Y004773D01*
X017321Y004811D01*
X017321Y004978D01*
X017006Y004978D01*
X017006Y004683D01*
X017006Y004788D02*
X016907Y004788D01*
X016907Y004885D02*
X017006Y004885D01*
X017006Y004982D02*
X017616Y004982D01*
X017616Y004890D02*
X017626Y004852D01*
X017646Y004818D01*
X017673Y004791D01*
X017707Y004771D01*
X017744Y004761D01*
X018148Y004761D01*
X018148Y005372D01*
X018246Y005372D01*
X018246Y005470D01*
X018778Y005470D01*
X018778Y005952D01*
X018767Y005990D01*
X018748Y006023D01*
X018721Y006051D01*
X018687Y006070D01*
X018649Y006080D01*
X018246Y006080D01*
X018246Y005470D01*
X018148Y005470D01*
X018148Y006080D01*
X017744Y006080D01*
X017707Y006070D01*
X017673Y006051D01*
X017646Y006023D01*
X017626Y005990D01*
X017616Y005952D01*
X017616Y005470D01*
X018148Y005470D01*
X018148Y005372D01*
X017616Y005372D01*
X017616Y004890D01*
X017617Y004885D02*
X017321Y004885D01*
X017315Y004788D02*
X017678Y004788D01*
X017616Y005079D02*
X017321Y005079D01*
X017321Y005176D02*
X017616Y005176D01*
X017616Y005273D02*
X017313Y005273D01*
X017199Y005370D02*
X017616Y005370D01*
X017616Y005564D02*
X017312Y005564D01*
X017321Y005661D02*
X017616Y005661D01*
X017616Y005758D02*
X017321Y005758D01*
X017321Y005864D02*
X017006Y005864D01*
X017006Y006159D01*
X017193Y006159D01*
X017230Y006149D01*
X017264Y006130D01*
X017291Y006102D01*
X017311Y006068D01*
X017321Y006031D01*
X017321Y005864D01*
X017321Y005951D02*
X017616Y005951D01*
X017616Y005855D02*
X017006Y005855D01*
X016957Y005815D02*
X016957Y005027D01*
X017006Y005079D02*
X016907Y005079D01*
X016907Y005176D02*
X017006Y005176D01*
X017006Y005273D02*
X016907Y005273D01*
X016907Y005370D02*
X017006Y005370D01*
X017006Y005564D02*
X016907Y005564D01*
X016907Y005661D02*
X017006Y005661D01*
X017006Y005758D02*
X016907Y005758D01*
X016907Y005951D02*
X017006Y005951D01*
X017006Y006048D02*
X016907Y006048D01*
X016907Y006145D02*
X017006Y006145D01*
X016885Y006242D02*
X022478Y006242D01*
X022478Y006145D02*
X017237Y006145D01*
X017316Y006048D02*
X017671Y006048D01*
X018148Y006048D02*
X018246Y006048D01*
X018246Y005951D02*
X018148Y005951D01*
X018148Y005855D02*
X018246Y005855D01*
X018246Y005758D02*
X018148Y005758D01*
X018148Y005661D02*
X018246Y005661D01*
X018246Y005564D02*
X018148Y005564D01*
X018148Y005467D02*
X016631Y005467D01*
X016585Y005421D02*
X015989Y005421D01*
X015988Y005423D01*
X015986Y005421D01*
X015988Y005419D01*
X015989Y005421D01*
X016585Y005421D01*
X016636Y005370D02*
X016714Y005370D01*
X016287Y005027D02*
X016031Y005027D01*
X015798Y005261D01*
X015289Y005261D01*
X015289Y004951D02*
X015727Y004951D01*
X015289Y004951D01*
X015289Y004951D01*
X015727Y004982D02*
X015728Y004982D01*
X015727Y004885D02*
X015825Y004885D01*
X015776Y004788D02*
X015874Y004788D01*
X015931Y004691D02*
X015776Y004691D01*
X015776Y004594D02*
X015931Y004594D01*
X015947Y004498D02*
X015776Y004498D01*
X015727Y004401D02*
X015951Y004401D01*
X015981Y004304D02*
X015727Y004304D01*
X015727Y004321D02*
X015289Y004321D01*
X015289Y004321D01*
X015289Y004083D01*
X015599Y004083D01*
X015636Y004093D01*
X015670Y004113D01*
X015697Y004140D01*
X015717Y004174D01*
X015727Y004211D01*
X015727Y004321D01*
X015726Y004207D02*
X016021Y004207D01*
X016116Y004110D02*
X015665Y004110D01*
X015289Y004110D02*
X015289Y004110D01*
X015289Y004207D02*
X015289Y004207D01*
X015289Y004304D02*
X015289Y004304D01*
X015056Y004013D02*
X016292Y004013D01*
X016558Y004013D02*
X022478Y004013D01*
X022478Y003916D02*
X015056Y003916D01*
X015056Y003819D02*
X022478Y003819D01*
X022478Y003722D02*
X022021Y003722D01*
X022120Y003625D02*
X022478Y003625D01*
X022478Y003528D02*
X022217Y003528D01*
X022301Y003431D02*
X022478Y003431D01*
X022478Y003334D02*
X022331Y003334D01*
X022331Y003238D02*
X022478Y003238D01*
X022478Y003141D02*
X022331Y003141D01*
X022322Y003044D02*
X022478Y003044D01*
X022478Y002947D02*
X022268Y002947D01*
X022171Y002850D02*
X022478Y002850D01*
X022478Y002753D02*
X022074Y002753D01*
X022478Y002656D02*
X018887Y002656D01*
X018893Y002753D02*
X018897Y002753D01*
X018836Y002559D02*
X022478Y002559D01*
X021743Y003722D02*
X021690Y003722D01*
X021214Y003722D02*
X021144Y003722D01*
X020865Y003722D02*
X020714Y003722D01*
X020435Y003722D02*
X020321Y003722D01*
X019791Y003722D02*
X019676Y003722D01*
X019146Y003722D02*
X019032Y003722D01*
X018753Y003722D02*
X018253Y003722D01*
X018256Y003721D02*
X018256Y003721D01*
X018351Y003625D02*
X018668Y003625D01*
X018640Y003528D02*
X018435Y003528D01*
X018463Y003431D02*
X018640Y003431D01*
X018640Y003334D02*
X018453Y003334D01*
X017777Y003722D02*
X017608Y003722D01*
X017225Y004691D02*
X022478Y004691D01*
X022478Y004788D02*
X018716Y004788D01*
X018721Y004791D02*
X018748Y004818D01*
X018767Y004852D01*
X018778Y004890D01*
X018778Y005372D01*
X018246Y005372D01*
X018246Y004761D01*
X018649Y004761D01*
X018687Y004771D01*
X018721Y004791D01*
X018776Y004885D02*
X022478Y004885D01*
X022478Y004982D02*
X018778Y004982D01*
X018778Y005079D02*
X022478Y005079D01*
X022478Y005176D02*
X018778Y005176D01*
X018778Y005273D02*
X022478Y005273D01*
X022478Y005370D02*
X018778Y005370D01*
X018778Y005564D02*
X022478Y005564D01*
X022478Y005661D02*
X018778Y005661D01*
X018778Y005758D02*
X022478Y005758D01*
X022478Y005855D02*
X018778Y005855D01*
X018778Y005951D02*
X022478Y005951D01*
X022478Y006048D02*
X018723Y006048D01*
X019004Y006533D02*
X016871Y006533D01*
X016899Y006436D02*
X019222Y006436D01*
X018907Y006630D02*
X016831Y006630D01*
X016740Y006727D02*
X017636Y006727D01*
X017567Y006824D02*
X016570Y006824D01*
X016280Y006824D02*
X015056Y006824D01*
X015056Y006921D02*
X017295Y006921D01*
X017107Y007018D02*
X015056Y007018D01*
X015056Y007115D02*
X017010Y007115D01*
X016913Y007211D02*
X015056Y007211D01*
X015117Y007308D02*
X016816Y007308D01*
X016719Y007405D02*
X015214Y007405D01*
X015494Y007502D02*
X016622Y007502D01*
X016525Y007599D02*
X015574Y007599D01*
X015614Y007696D02*
X016428Y007696D01*
X016331Y007793D02*
X015619Y007793D01*
X015606Y007890D02*
X016234Y007890D01*
X016138Y007987D02*
X015566Y007987D01*
X015474Y008084D02*
X016073Y008084D01*
X016032Y008181D02*
X008631Y008181D01*
X008631Y008278D02*
X016023Y008278D01*
X016023Y008375D02*
X008620Y008375D01*
X008579Y008471D02*
X016023Y008471D01*
X016008Y009538D02*
X015501Y009538D01*
X015501Y009635D02*
X016008Y009635D01*
X016008Y009732D02*
X015501Y009732D01*
X015501Y009828D02*
X016061Y009828D01*
X015948Y010216D02*
X019642Y010216D01*
X019657Y010180D02*
X019791Y010047D01*
X019965Y009974D01*
X020153Y009974D01*
X020328Y010047D01*
X020461Y010180D01*
X020533Y010354D01*
X020533Y010543D01*
X020461Y010717D01*
X020328Y010850D01*
X020153Y010922D01*
X019965Y010922D01*
X019791Y010850D01*
X019657Y010717D01*
X019585Y010543D01*
X019585Y010354D01*
X019657Y010180D01*
X019718Y010119D02*
X015468Y010119D01*
X015484Y010022D02*
X019849Y010022D01*
X019965Y009922D02*
X019791Y009850D01*
X019657Y009717D01*
X019585Y009543D01*
X019585Y009354D01*
X019657Y009180D01*
X019791Y009047D01*
X019965Y008974D01*
X020153Y008974D01*
X020328Y009047D01*
X020461Y009180D01*
X020533Y009354D01*
X020533Y009543D01*
X020461Y009717D01*
X020328Y009850D01*
X020153Y009922D01*
X019965Y009922D01*
X019769Y009828D02*
X018657Y009828D01*
X018737Y009732D02*
X019672Y009732D01*
X019623Y009635D02*
X018742Y009635D01*
X018742Y009538D02*
X019585Y009538D01*
X019585Y009441D02*
X018742Y009441D01*
X018742Y009247D02*
X019629Y009247D01*
X019589Y009344D02*
X018349Y009344D01*
X018349Y009441D02*
X018250Y009441D01*
X018250Y009538D02*
X018349Y009538D01*
X018349Y009635D02*
X018250Y009635D01*
X018250Y009732D02*
X018349Y009732D01*
X018349Y009828D02*
X018250Y009828D01*
X017942Y009828D02*
X017838Y009828D01*
X018742Y009150D02*
X019687Y009150D01*
X019784Y009053D02*
X018742Y009053D01*
X018742Y008956D02*
X022478Y008956D01*
X022478Y008859D02*
X021481Y008859D01*
X021533Y008807D02*
X021418Y008922D01*
X020700Y008922D01*
X020585Y008807D01*
X020585Y008090D01*
X020700Y007974D01*
X021418Y007974D01*
X021533Y008090D01*
X021533Y008807D01*
X021533Y008762D02*
X022478Y008762D01*
X022478Y008665D02*
X021533Y008665D01*
X021533Y008568D02*
X022478Y008568D01*
X022478Y008471D02*
X021533Y008471D01*
X021533Y008375D02*
X022478Y008375D01*
X022478Y008278D02*
X021533Y008278D01*
X021533Y008181D02*
X022478Y008181D01*
X022478Y008084D02*
X021527Y008084D01*
X021430Y007987D02*
X022478Y007987D01*
X022478Y007890D02*
X020536Y007890D01*
X020536Y007987D02*
X020688Y007987D01*
X020591Y008084D02*
X020536Y008084D01*
X020536Y008181D02*
X020585Y008181D01*
X020585Y008278D02*
X020536Y008278D01*
X020536Y008375D02*
X020585Y008375D01*
X020585Y008471D02*
X020536Y008471D01*
X020525Y008568D02*
X020585Y008568D01*
X020585Y008665D02*
X020485Y008665D01*
X020420Y008762D02*
X020585Y008762D01*
X020637Y008859D02*
X020313Y008859D01*
X020334Y009053D02*
X020784Y009053D01*
X020791Y009047D02*
X020965Y008974D01*
X021153Y008974D01*
X021328Y009047D01*
X021461Y009180D01*
X021533Y009354D01*
X021533Y009543D01*
X021461Y009717D01*
X021328Y009850D01*
X021153Y009922D01*
X020965Y009922D01*
X020791Y009850D01*
X020657Y009717D01*
X020585Y009543D01*
X020585Y009354D01*
X020657Y009180D01*
X020791Y009047D01*
X020687Y009150D02*
X020431Y009150D01*
X020489Y009247D02*
X020629Y009247D01*
X020589Y009344D02*
X020529Y009344D01*
X020533Y009441D02*
X020585Y009441D01*
X020585Y009538D02*
X020533Y009538D01*
X020495Y009635D02*
X020623Y009635D01*
X020672Y009732D02*
X020446Y009732D01*
X020349Y009828D02*
X020769Y009828D01*
X020849Y010022D02*
X020269Y010022D01*
X020400Y010119D02*
X020718Y010119D01*
X020657Y010180D02*
X020791Y010047D01*
X020965Y009974D01*
X021153Y009974D01*
X021328Y010047D01*
X021461Y010180D01*
X021533Y010354D01*
X021533Y010543D01*
X021461Y010717D01*
X021328Y010850D01*
X021153Y010922D01*
X020965Y010922D01*
X020791Y010850D01*
X020657Y010717D01*
X020585Y010543D01*
X020585Y010354D01*
X020657Y010180D01*
X020642Y010216D02*
X020476Y010216D01*
X020516Y010313D02*
X020602Y010313D01*
X020585Y010410D02*
X020533Y010410D01*
X020533Y010507D02*
X020585Y010507D01*
X020610Y010604D02*
X020508Y010604D01*
X020468Y010701D02*
X020650Y010701D01*
X020738Y010798D02*
X020380Y010798D01*
X020220Y010895D02*
X020898Y010895D01*
X020923Y010992D02*
X015971Y010992D01*
X015982Y011088D02*
X020749Y011088D01*
X020655Y011185D02*
X015982Y011185D01*
X015982Y011317D02*
X015982Y011503D01*
X015972Y011541D01*
X015953Y011575D01*
X015925Y011602D01*
X015892Y011621D01*
X015854Y011631D01*
X015687Y011631D01*
X015687Y011317D01*
X015982Y011317D01*
X015982Y011379D02*
X016463Y011379D01*
X016463Y011476D02*
X015982Y011476D01*
X015954Y011573D02*
X016463Y011573D01*
X016463Y011670D02*
X015452Y011670D01*
X015446Y011767D02*
X016463Y011767D01*
X016483Y011282D02*
X015687Y011282D01*
X015687Y011379D02*
X015589Y011379D01*
X015589Y011476D02*
X015687Y011476D01*
X015687Y011573D02*
X015589Y011573D01*
X016031Y010895D02*
X019898Y010895D01*
X019738Y010798D02*
X016031Y010798D01*
X016031Y010701D02*
X019650Y010701D01*
X019610Y010604D02*
X016031Y010604D01*
X016031Y010507D02*
X019585Y010507D01*
X019585Y010410D02*
X016031Y010410D01*
X016031Y010313D02*
X019602Y010313D01*
X020615Y011282D02*
X018336Y011282D01*
X018356Y011379D02*
X020585Y011379D01*
X020585Y011476D02*
X018356Y011476D01*
X018356Y011573D02*
X020598Y011573D01*
X020638Y011670D02*
X018356Y011670D01*
X018356Y011767D02*
X020707Y011767D01*
X020982Y011961D02*
X022478Y011961D01*
X022478Y012058D02*
X021079Y012058D01*
X021062Y012041D02*
X021062Y012041D01*
X021176Y012155D02*
X022478Y012155D01*
X022478Y012252D02*
X021273Y012252D01*
X021370Y012349D02*
X022478Y012349D01*
X022478Y012445D02*
X021467Y012445D01*
X021564Y012542D02*
X022478Y012542D01*
X022478Y012639D02*
X021660Y012639D01*
X021757Y012736D02*
X022478Y012736D01*
X022478Y012833D02*
X021854Y012833D01*
X021951Y012930D02*
X022478Y012930D01*
X022478Y013027D02*
X022047Y013027D01*
X022087Y013124D02*
X022478Y013124D01*
X022478Y013221D02*
X022119Y013221D01*
X022119Y013318D02*
X022478Y013318D01*
X022478Y013415D02*
X022119Y013415D01*
X022119Y013512D02*
X022478Y013512D01*
X022478Y013609D02*
X022119Y013609D01*
X022119Y013705D02*
X022478Y013705D01*
X022478Y013802D02*
X022119Y013802D01*
X022119Y013899D02*
X022478Y013899D01*
X022478Y013996D02*
X022119Y013996D01*
X022119Y014093D02*
X022478Y014093D01*
X022478Y014190D02*
X022119Y014190D01*
X022119Y014287D02*
X022478Y014287D01*
X022478Y014384D02*
X022119Y014384D01*
X022119Y014481D02*
X022478Y014481D01*
X022478Y014578D02*
X022119Y014578D01*
X022119Y014675D02*
X022478Y014675D01*
X022478Y014772D02*
X022119Y014772D01*
X022119Y014869D02*
X022478Y014869D01*
X022478Y014965D02*
X022119Y014965D01*
X022119Y015062D02*
X022478Y015062D01*
X022478Y015159D02*
X022119Y015159D01*
X022119Y015256D02*
X022478Y015256D01*
X022478Y015353D02*
X022119Y015353D01*
X022119Y015450D02*
X022478Y015450D01*
X022478Y015547D02*
X022119Y015547D01*
X022119Y015644D02*
X022478Y015644D01*
X022321Y015741D02*
X022222Y015741D01*
X022222Y015838D02*
X022321Y015838D01*
X022321Y015935D02*
X022222Y015935D01*
X022222Y016100D02*
X022222Y016395D01*
X022119Y016395D01*
X022119Y019446D01*
X022222Y019446D01*
X022222Y019742D01*
X022321Y019742D01*
X022321Y019446D01*
X022478Y019446D01*
X022478Y016395D01*
X022321Y016395D01*
X022321Y016100D01*
X022222Y016100D01*
X022222Y016129D02*
X022321Y016129D01*
X022321Y016226D02*
X022222Y016226D01*
X022222Y016322D02*
X022321Y016322D01*
X022478Y016419D02*
X022119Y016419D01*
X022119Y016516D02*
X022478Y016516D01*
X022478Y016613D02*
X022119Y016613D01*
X022119Y016710D02*
X022478Y016710D01*
X022478Y016807D02*
X022119Y016807D01*
X022119Y016904D02*
X022478Y016904D01*
X022478Y017001D02*
X022119Y017001D01*
X022119Y017098D02*
X022478Y017098D01*
X022478Y017195D02*
X022119Y017195D01*
X022119Y017292D02*
X022478Y017292D01*
X022478Y017389D02*
X022119Y017389D01*
X022119Y017486D02*
X022478Y017486D01*
X022478Y017582D02*
X022119Y017582D01*
X022119Y017679D02*
X022478Y017679D01*
X022478Y017776D02*
X022119Y017776D01*
X022119Y017873D02*
X022478Y017873D01*
X022478Y017970D02*
X022119Y017970D01*
X022119Y018067D02*
X022478Y018067D01*
X022478Y018164D02*
X022119Y018164D01*
X022119Y018261D02*
X022478Y018261D01*
X022478Y018358D02*
X022119Y018358D01*
X022119Y018455D02*
X022478Y018455D01*
X022478Y018552D02*
X022119Y018552D01*
X022119Y018649D02*
X022478Y018649D01*
X022478Y018746D02*
X022119Y018746D01*
X022119Y018843D02*
X022478Y018843D01*
X022478Y018939D02*
X022119Y018939D01*
X022119Y019036D02*
X022478Y019036D01*
X022478Y019133D02*
X022119Y019133D01*
X022119Y019230D02*
X022478Y019230D01*
X022478Y019327D02*
X022119Y019327D01*
X022119Y019424D02*
X022478Y019424D01*
X022321Y019521D02*
X022222Y019521D01*
X022222Y019618D02*
X022321Y019618D01*
X022321Y019715D02*
X022222Y019715D01*
X022222Y019840D02*
X022222Y020135D01*
X022119Y020135D01*
X022119Y020378D01*
X022046Y020553D01*
X021976Y020623D01*
X021976Y021766D01*
X021861Y021881D01*
X020832Y021881D01*
X020775Y021824D01*
X020239Y022361D01*
X020063Y022433D01*
X018753Y022433D01*
X018769Y022472D01*
X018769Y022574D01*
X018927Y022732D01*
X018996Y022801D01*
X019033Y022892D01*
X019033Y023246D01*
X019106Y023319D01*
X019163Y023456D01*
X019163Y023606D01*
X019106Y023744D01*
X019000Y023849D01*
X018862Y023906D01*
X018713Y023906D01*
X018575Y023849D01*
X018469Y023744D01*
X018412Y023606D01*
X018412Y023456D01*
X018469Y023319D01*
X018541Y023246D01*
X018541Y023042D01*
X018421Y022922D01*
X018319Y022922D01*
X018181Y022865D01*
X018098Y022782D01*
X018016Y022865D01*
X017971Y022883D01*
X017907Y022948D01*
X017776Y023002D01*
X017685Y023002D01*
X017629Y023059D01*
X017389Y023059D01*
X017391Y023063D01*
X017391Y023165D01*
X019086Y024860D01*
X020471Y024860D01*
X020543Y024788D01*
X020681Y024731D01*
X020831Y024731D01*
X020968Y024788D01*
X021051Y024870D01*
X021134Y024788D01*
X021272Y024731D01*
X021421Y024731D01*
X021559Y024788D01*
X021665Y024893D01*
X021722Y025031D01*
X021722Y025181D01*
X021665Y025318D01*
X021594Y025389D01*
X021664Y025418D01*
X021822Y025576D01*
X021907Y025782D01*
X021907Y026005D01*
X021822Y026211D01*
X021664Y026369D01*
X021458Y026454D01*
X021366Y026454D01*
X021366Y026920D01*
X021310Y026976D01*
X021366Y027032D01*
X021366Y027589D01*
X021346Y027609D01*
X021346Y028121D01*
X021273Y028194D01*
X021287Y028218D01*
X021297Y028256D01*
X021297Y028443D01*
X021002Y028443D01*
X021002Y028541D01*
X020904Y028541D01*
X020904Y028856D01*
X020736Y028856D01*
X020699Y028846D01*
X020665Y028826D01*
X018288Y028826D01*
X018287Y028826D02*
X018254Y028846D01*
X018216Y028856D01*
X018049Y028856D01*
X018049Y028541D01*
X017951Y028541D01*
X017951Y028856D01*
X017784Y028856D01*
X017746Y028846D01*
X017712Y028826D01*
X017007Y028826D01*
X017104Y028729D02*
X017656Y028729D01*
X017655Y028728D02*
X017655Y028541D01*
X017951Y028541D01*
X017951Y028443D01*
X017655Y028443D01*
X017655Y028256D01*
X017666Y028218D01*
X017680Y028194D01*
X017659Y028173D01*
X016445Y029387D01*
X022478Y029387D01*
X022478Y020135D01*
X022321Y020135D01*
X022321Y019840D01*
X022222Y019840D01*
X022222Y019909D02*
X022321Y019909D01*
X022321Y020006D02*
X022222Y020006D01*
X022222Y020103D02*
X022321Y020103D01*
X022478Y020199D02*
X022119Y020199D01*
X022119Y020296D02*
X022478Y020296D01*
X022478Y020393D02*
X022112Y020393D01*
X022072Y020490D02*
X022478Y020490D01*
X022478Y020587D02*
X022012Y020587D01*
X021976Y020684D02*
X022478Y020684D01*
X022478Y020781D02*
X021976Y020781D01*
X021976Y020878D02*
X022478Y020878D01*
X022478Y020975D02*
X021976Y020975D01*
X021976Y021072D02*
X022478Y021072D01*
X022478Y021169D02*
X021976Y021169D01*
X021976Y021266D02*
X022478Y021266D01*
X022478Y021363D02*
X021976Y021363D01*
X021976Y021459D02*
X022478Y021459D01*
X022478Y021556D02*
X021976Y021556D01*
X021976Y021653D02*
X022478Y021653D01*
X022478Y021750D02*
X021976Y021750D01*
X021895Y021847D02*
X022478Y021847D01*
X022478Y021944D02*
X020655Y021944D01*
X020752Y021847D02*
X020798Y021847D01*
X020558Y022041D02*
X022478Y022041D01*
X022478Y022138D02*
X020461Y022138D01*
X020364Y022235D02*
X022478Y022235D01*
X022478Y022332D02*
X020267Y022332D01*
X020074Y022429D02*
X022478Y022429D01*
X022478Y022526D02*
X021884Y022526D01*
X021898Y022539D02*
X021917Y022573D01*
X021927Y022610D01*
X021927Y023092D01*
X021396Y023092D01*
X021396Y023191D01*
X021297Y023191D01*
X021297Y023801D01*
X020894Y023801D01*
X020856Y023791D01*
X020823Y023771D01*
X020795Y023744D01*
X020776Y023710D01*
X020766Y023673D01*
X020766Y023191D01*
X021297Y023191D01*
X021297Y023092D01*
X020766Y023092D01*
X020766Y022610D01*
X020776Y022573D01*
X020795Y022539D01*
X020823Y022511D01*
X020856Y022492D01*
X020894Y022482D01*
X021297Y022482D01*
X021297Y023092D01*
X021396Y023092D01*
X021396Y022482D01*
X021799Y022482D01*
X021836Y022492D01*
X021870Y022511D01*
X021898Y022539D01*
X021927Y022623D02*
X022478Y022623D01*
X022478Y022720D02*
X021927Y022720D01*
X021927Y022816D02*
X022478Y022816D01*
X022478Y022913D02*
X021927Y022913D01*
X021927Y023010D02*
X022478Y023010D01*
X022478Y023107D02*
X021396Y023107D01*
X021396Y023191D02*
X021927Y023191D01*
X021927Y023673D01*
X021917Y023710D01*
X021898Y023744D01*
X021870Y023771D01*
X021836Y023791D01*
X021799Y023801D01*
X021396Y023801D01*
X021396Y023191D01*
X021396Y023204D02*
X021297Y023204D01*
X021297Y023107D02*
X019033Y023107D01*
X019033Y023010D02*
X020766Y023010D01*
X020766Y022913D02*
X019033Y022913D01*
X019002Y022816D02*
X020766Y022816D01*
X020766Y022720D02*
X018914Y022720D01*
X018817Y022623D02*
X020766Y022623D01*
X020808Y022526D02*
X018769Y022526D01*
X018394Y022547D02*
X018787Y022941D01*
X018787Y023531D01*
X018511Y023786D02*
X018012Y023786D01*
X018109Y023883D02*
X018655Y023883D01*
X018919Y023883D02*
X022478Y023883D01*
X022478Y023980D02*
X018206Y023980D01*
X018303Y024076D02*
X022478Y024076D01*
X022478Y024173D02*
X018400Y024173D01*
X018497Y024270D02*
X022478Y024270D01*
X022478Y024367D02*
X018594Y024367D01*
X018690Y024464D02*
X022478Y024464D01*
X022478Y024561D02*
X018787Y024561D01*
X018884Y024658D02*
X022478Y024658D01*
X022478Y024755D02*
X021480Y024755D01*
X021623Y024852D02*
X022478Y024852D01*
X022478Y024949D02*
X021688Y024949D01*
X021722Y025046D02*
X022478Y025046D01*
X022478Y025143D02*
X021722Y025143D01*
X021697Y025240D02*
X022478Y025240D01*
X022478Y025337D02*
X021647Y025337D01*
X021680Y025433D02*
X022478Y025433D01*
X022478Y025530D02*
X021777Y025530D01*
X021843Y025627D02*
X022478Y025627D01*
X022478Y025724D02*
X021884Y025724D01*
X021907Y025821D02*
X022478Y025821D01*
X022478Y025918D02*
X021907Y025918D01*
X021903Y026015D02*
X022478Y026015D01*
X022478Y026112D02*
X021863Y026112D01*
X021823Y026209D02*
X022478Y026209D01*
X022478Y026306D02*
X021727Y026306D01*
X021583Y026403D02*
X022478Y026403D01*
X022478Y026500D02*
X021366Y026500D01*
X021366Y026597D02*
X022478Y026597D01*
X022478Y026693D02*
X021366Y026693D01*
X021366Y026790D02*
X022478Y026790D01*
X022478Y026887D02*
X021366Y026887D01*
X021318Y026984D02*
X022478Y026984D01*
X022478Y027081D02*
X021366Y027081D01*
X021366Y027178D02*
X022478Y027178D01*
X022478Y027275D02*
X021366Y027275D01*
X021366Y027372D02*
X022478Y027372D01*
X022478Y027469D02*
X021366Y027469D01*
X021366Y027566D02*
X022478Y027566D01*
X022478Y027663D02*
X021346Y027663D01*
X021346Y027760D02*
X022478Y027760D01*
X022478Y027857D02*
X021346Y027857D01*
X021346Y027954D02*
X022478Y027954D01*
X022478Y028050D02*
X021346Y028050D01*
X021320Y028147D02*
X022478Y028147D01*
X022478Y028244D02*
X021294Y028244D01*
X021297Y028341D02*
X022478Y028341D01*
X022478Y028438D02*
X021297Y028438D01*
X021297Y028541D02*
X021002Y028541D01*
X021002Y028856D01*
X021169Y028856D01*
X021207Y028846D01*
X021240Y028826D01*
X021268Y028799D01*
X021287Y028765D01*
X021297Y028728D01*
X021297Y028541D01*
X021297Y028632D02*
X022478Y028632D01*
X022478Y028729D02*
X021297Y028729D01*
X021241Y028826D02*
X022478Y028826D01*
X022478Y028923D02*
X016910Y028923D01*
X016813Y029020D02*
X022478Y029020D01*
X022478Y029117D02*
X016716Y029117D01*
X016619Y029214D02*
X022478Y029214D01*
X022478Y029310D02*
X016522Y029310D01*
X016078Y028632D02*
X013689Y028632D01*
X013689Y028627D02*
X013689Y028672D01*
X013574Y028787D01*
X012393Y028787D01*
X012373Y028807D01*
X011816Y028807D01*
X011701Y028691D01*
X011701Y028095D01*
X011774Y028022D01*
X011760Y027998D01*
X011750Y027960D01*
X011750Y027773D01*
X012045Y027773D01*
X012045Y027675D01*
X011750Y027675D01*
X011750Y027488D01*
X011760Y027450D01*
X011779Y027417D01*
X011807Y027389D01*
X011841Y027370D01*
X011878Y027360D01*
X012045Y027360D01*
X012045Y027675D01*
X012144Y027675D01*
X012144Y027360D01*
X012311Y027360D01*
X012348Y027370D01*
X012387Y027330D01*
X012476Y027330D01*
X012476Y027329D01*
X012546Y027260D01*
X012703Y027102D01*
X012703Y027000D01*
X012761Y026862D01*
X012860Y026762D01*
X012870Y026738D01*
X012939Y026669D01*
X013226Y026382D01*
X013226Y025109D01*
X012931Y025405D01*
X012931Y026336D01*
X012894Y026426D01*
X012470Y026850D01*
X012470Y026952D01*
X012413Y027090D01*
X012307Y027196D01*
X012169Y027253D01*
X012020Y027253D01*
X011882Y027196D01*
X011799Y027113D01*
X011716Y027196D01*
X011579Y027253D01*
X011429Y027253D01*
X011291Y027196D01*
X011186Y027090D01*
X011129Y026952D01*
X011129Y026803D01*
X011186Y026665D01*
X011291Y026559D01*
X011429Y026502D01*
X011531Y026502D01*
X011888Y026146D01*
X011888Y025519D01*
X011855Y025519D01*
X011799Y025463D01*
X011743Y025519D01*
X011186Y025519D01*
X011170Y025503D01*
X011113Y025503D01*
X011113Y025539D01*
X011147Y025573D01*
X011171Y025559D01*
X011209Y025549D01*
X011396Y025549D01*
X011396Y025844D01*
X011494Y025844D01*
X011494Y025549D01*
X011681Y025549D01*
X011718Y025559D01*
X011752Y025578D01*
X011780Y025606D01*
X011799Y025639D01*
X011809Y025677D01*
X011809Y025844D01*
X011494Y025844D01*
X011494Y025943D01*
X011396Y025943D01*
X011396Y026238D01*
X011209Y026238D01*
X011171Y026228D01*
X011147Y026214D01*
X011113Y026247D01*
X011113Y028288D01*
X011668Y028843D01*
X015867Y028843D01*
X017004Y027706D01*
X016852Y027706D01*
X016852Y027332D01*
X016754Y027332D01*
X016754Y027234D01*
X016459Y027234D01*
X016459Y026988D01*
X016469Y026950D01*
X016488Y026917D01*
X016516Y026889D01*
X016412Y026889D01*
X016449Y026926D01*
X016449Y027640D01*
X016333Y027756D01*
X015777Y027756D01*
X015661Y027640D01*
X015661Y027488D01*
X015300Y027488D01*
X015244Y027432D01*
X015188Y027488D01*
X014870Y027488D01*
X014870Y027806D01*
X014779Y027897D01*
X014791Y027909D01*
X014811Y027943D01*
X014821Y027980D01*
X014821Y028147D01*
X014506Y028147D01*
X014506Y028246D01*
X014407Y028246D01*
X014407Y028147D01*
X014129Y028147D01*
X014101Y028215D01*
X013766Y028550D01*
X013689Y028627D01*
X013632Y028729D02*
X015981Y028729D01*
X015884Y028826D02*
X011651Y028826D01*
X011738Y028729D02*
X011554Y028729D01*
X011457Y028632D02*
X011701Y028632D01*
X011701Y028535D02*
X011360Y028535D01*
X011264Y028438D02*
X011701Y028438D01*
X011701Y028341D02*
X011167Y028341D01*
X011113Y028244D02*
X011701Y028244D01*
X011701Y028147D02*
X011113Y028147D01*
X011113Y028050D02*
X011746Y028050D01*
X011750Y027954D02*
X011113Y027954D01*
X011113Y027857D02*
X011750Y027857D01*
X011750Y027663D02*
X011113Y027663D01*
X011113Y027760D02*
X012045Y027760D01*
X012045Y027663D02*
X012144Y027663D01*
X012144Y027566D02*
X012045Y027566D01*
X012045Y027469D02*
X012144Y027469D01*
X012144Y027372D02*
X012045Y027372D01*
X011837Y027372D02*
X011113Y027372D01*
X011113Y027469D02*
X011755Y027469D01*
X011750Y027566D02*
X011113Y027566D01*
X011113Y027275D02*
X012530Y027275D01*
X012627Y027178D02*
X012325Y027178D01*
X012416Y027081D02*
X012703Y027081D01*
X012710Y026984D02*
X012456Y026984D01*
X012470Y026887D02*
X012750Y026887D01*
X012832Y026790D02*
X012530Y026790D01*
X012627Y026693D02*
X012915Y026693D01*
X013012Y026597D02*
X012723Y026597D01*
X012820Y026500D02*
X013109Y026500D01*
X013206Y026403D02*
X012903Y026403D01*
X012931Y026306D02*
X013226Y026306D01*
X013226Y026209D02*
X012931Y026209D01*
X012931Y026112D02*
X013226Y026112D01*
X013226Y026015D02*
X012931Y026015D01*
X012931Y025918D02*
X013226Y025918D01*
X013226Y025821D02*
X012931Y025821D01*
X012931Y025724D02*
X013226Y025724D01*
X013226Y025627D02*
X012931Y025627D01*
X012931Y025530D02*
X013226Y025530D01*
X013226Y025433D02*
X012931Y025433D01*
X012999Y025337D02*
X013226Y025337D01*
X013226Y025240D02*
X013096Y025240D01*
X013193Y025143D02*
X013226Y025143D01*
X013276Y024712D02*
X012685Y025303D01*
X012685Y026287D01*
X012094Y026878D01*
X011864Y027178D02*
X011734Y027178D01*
X011504Y026878D02*
X012134Y026248D01*
X012134Y025106D01*
X012134Y024541D01*
X012094Y024502D01*
X011317Y024502D01*
X011293Y024478D01*
X011293Y023978D02*
X011655Y023978D01*
X011929Y024252D01*
X012752Y024252D01*
X013110Y024252D01*
X013276Y024417D01*
X013276Y024712D01*
X013472Y024515D02*
X013472Y026484D01*
X013079Y026878D01*
X013079Y027074D01*
X012685Y027468D01*
X012685Y027724D01*
X013276Y027724D02*
X013276Y027468D01*
X013669Y027074D01*
X013669Y026878D01*
X013669Y024712D01*
X013880Y024502D01*
X014192Y024502D01*
X014192Y024252D02*
X013736Y024252D01*
X013472Y024515D01*
X013423Y024217D02*
X013597Y024043D01*
X013687Y024006D01*
X013736Y024006D01*
X013736Y023590D01*
X013851Y023475D01*
X014534Y023475D01*
X014555Y023496D01*
X014647Y023496D01*
X014749Y023393D01*
X015345Y023393D01*
X015461Y023509D01*
X015461Y024065D01*
X015404Y024122D01*
X015461Y024178D01*
X015461Y024735D01*
X015345Y024850D01*
X015045Y024850D01*
X014340Y025555D01*
X014340Y026717D01*
X014382Y026699D01*
X014531Y026699D01*
X014575Y026717D01*
X014631Y026661D01*
X015188Y026661D01*
X015244Y026717D01*
X015300Y026661D01*
X015857Y026661D01*
X015972Y026776D01*
X015972Y026811D01*
X016072Y026811D01*
X016035Y026774D01*
X016035Y026060D01*
X016151Y025944D01*
X016183Y025944D01*
X016183Y025409D01*
X015626Y024852D01*
X015043Y024852D01*
X014946Y024949D02*
X015723Y024949D01*
X015820Y025046D02*
X014849Y025046D01*
X014752Y025143D02*
X015917Y025143D01*
X016014Y025240D02*
X014655Y025240D01*
X014559Y025337D02*
X016111Y025337D01*
X016183Y025433D02*
X014462Y025433D01*
X014365Y025530D02*
X016183Y025530D01*
X016183Y025627D02*
X014340Y025627D01*
X014340Y025724D02*
X016183Y025724D01*
X016183Y025821D02*
X014340Y025821D01*
X014340Y025918D02*
X016183Y025918D01*
X016080Y026015D02*
X014340Y026015D01*
X014340Y026112D02*
X016035Y026112D01*
X016035Y026209D02*
X014340Y026209D01*
X014340Y026306D02*
X016035Y026306D01*
X016035Y026403D02*
X014340Y026403D01*
X014340Y026500D02*
X016035Y026500D01*
X016035Y026597D02*
X014340Y026597D01*
X014340Y026693D02*
X014599Y026693D01*
X015220Y026693D02*
X015268Y026693D01*
X015579Y027074D02*
X015689Y027086D01*
X015972Y026790D02*
X016052Y026790D01*
X016035Y026693D02*
X015890Y026693D01*
X016429Y026417D02*
X016429Y025307D01*
X015835Y024712D01*
X015835Y022941D01*
X015638Y022744D01*
X015374Y023010D02*
X015147Y023010D01*
X015138Y023019D02*
X015165Y022992D01*
X015185Y022958D01*
X015195Y022921D01*
X015195Y022734D01*
X014900Y022734D01*
X014900Y022635D01*
X015195Y022635D01*
X015195Y022449D01*
X015191Y022433D01*
X015418Y022433D01*
X015320Y022531D01*
X015262Y022669D01*
X015262Y022818D01*
X015320Y022956D01*
X015425Y023062D01*
X015563Y023119D01*
X015589Y023119D01*
X015589Y024761D01*
X015626Y024852D01*
X015589Y024755D02*
X015440Y024755D01*
X015461Y024658D02*
X015589Y024658D01*
X015589Y024561D02*
X015461Y024561D01*
X015461Y024464D02*
X015589Y024464D01*
X015589Y024367D02*
X015461Y024367D01*
X015461Y024270D02*
X015589Y024270D01*
X015589Y024173D02*
X015456Y024173D01*
X015450Y024076D02*
X015589Y024076D01*
X015589Y023980D02*
X015461Y023980D01*
X015461Y023883D02*
X015589Y023883D01*
X015589Y023786D02*
X015461Y023786D01*
X015461Y023689D02*
X015589Y023689D01*
X015589Y023592D02*
X015461Y023592D01*
X015447Y023495D02*
X015589Y023495D01*
X015589Y023398D02*
X015350Y023398D01*
X015589Y023301D02*
X014173Y023301D01*
X014138Y023316D02*
X013988Y023316D01*
X013850Y023259D01*
X013816Y023224D01*
X012508Y023224D01*
X012508Y023278D01*
X012452Y023334D01*
X012508Y023391D01*
X012508Y023524D01*
X012752Y023524D01*
X012752Y023725D01*
X012752Y023725D01*
X012752Y023524D01*
X013032Y023524D01*
X013069Y023534D01*
X013103Y023554D01*
X013131Y023581D01*
X013150Y023615D01*
X013160Y023652D01*
X013160Y023742D01*
X013160Y023791D01*
X013209Y023840D01*
X013209Y024026D01*
X013250Y024043D01*
X013415Y024208D01*
X013423Y024217D01*
X013380Y024173D02*
X013466Y024173D01*
X013563Y024076D02*
X013283Y024076D01*
X013209Y023980D02*
X013736Y023980D01*
X013736Y023883D02*
X013209Y023883D01*
X013160Y023786D02*
X013736Y023786D01*
X013736Y023689D02*
X013160Y023689D01*
X013160Y023742D02*
X013111Y023742D01*
X013160Y023742D01*
X013111Y023742D02*
X013111Y023742D01*
X013137Y023592D02*
X013736Y023592D01*
X013831Y023495D02*
X012508Y023495D01*
X012508Y023398D02*
X014744Y023398D01*
X014648Y023495D02*
X014554Y023495D01*
X014654Y023742D02*
X014654Y023925D01*
X014587Y023992D01*
X014192Y023992D01*
X014192Y023742D02*
X014654Y023742D01*
X015002Y023742D01*
X015047Y023787D01*
X015047Y024456D02*
X014988Y024456D01*
X014850Y025303D02*
X014850Y025775D01*
X015342Y025874D01*
X016449Y026984D02*
X016460Y026984D01*
X016449Y027081D02*
X016459Y027081D01*
X016449Y027178D02*
X016459Y027178D01*
X016449Y027275D02*
X016754Y027275D01*
X016754Y027332D02*
X016459Y027332D01*
X016459Y027578D01*
X016469Y027616D01*
X016488Y027649D01*
X016516Y027677D01*
X016549Y027696D01*
X016587Y027706D01*
X016754Y027706D01*
X016754Y027332D01*
X016754Y027372D02*
X016852Y027372D01*
X016852Y027469D02*
X016754Y027469D01*
X016754Y027566D02*
X016852Y027566D01*
X016852Y027663D02*
X016754Y027663D01*
X016853Y027857D02*
X014819Y027857D01*
X014814Y027954D02*
X016756Y027954D01*
X016660Y028050D02*
X014821Y028050D01*
X014821Y028246D02*
X014506Y028246D01*
X014506Y028541D01*
X014693Y028541D01*
X014730Y028531D01*
X014764Y028511D01*
X014791Y028484D01*
X014811Y028450D01*
X014821Y028413D01*
X014821Y028246D01*
X014821Y028341D02*
X016369Y028341D01*
X016466Y028244D02*
X014506Y028244D01*
X014506Y028147D02*
X016563Y028147D01*
X016272Y028438D02*
X014814Y028438D01*
X014715Y028535D02*
X016175Y028535D01*
X016426Y027663D02*
X016502Y027663D01*
X016459Y027566D02*
X016449Y027566D01*
X016449Y027469D02*
X016459Y027469D01*
X016449Y027372D02*
X016459Y027372D01*
X016950Y027760D02*
X014870Y027760D01*
X014870Y027663D02*
X015684Y027663D01*
X015661Y027566D02*
X014870Y027566D01*
X015207Y027469D02*
X015281Y027469D01*
X014506Y028341D02*
X014407Y028341D01*
X014407Y028246D02*
X014407Y028541D01*
X014221Y028541D01*
X014183Y028531D01*
X014149Y028511D01*
X014122Y028484D01*
X014103Y028450D01*
X014092Y028413D01*
X014092Y028246D01*
X014407Y028246D01*
X014407Y028244D02*
X014072Y028244D01*
X014092Y028341D02*
X013975Y028341D01*
X013878Y028438D02*
X014099Y028438D01*
X014199Y028535D02*
X013781Y028535D01*
X014129Y028147D02*
X014407Y028147D01*
X014407Y028438D02*
X014506Y028438D01*
X014506Y028535D02*
X014407Y028535D01*
X011825Y026209D02*
X011751Y026209D01*
X011752Y026208D02*
X011718Y026228D01*
X011681Y026238D01*
X011494Y026238D01*
X011494Y025943D01*
X011809Y025943D01*
X011809Y026110D01*
X011799Y026147D01*
X011780Y026181D01*
X011752Y026208D01*
X011728Y026306D02*
X011113Y026306D01*
X011113Y026403D02*
X011631Y026403D01*
X011534Y026500D02*
X011113Y026500D01*
X011113Y026597D02*
X011254Y026597D01*
X011174Y026693D02*
X011113Y026693D01*
X011113Y026790D02*
X011134Y026790D01*
X011129Y026887D02*
X011113Y026887D01*
X011113Y026984D02*
X011142Y026984D01*
X011113Y027081D02*
X011182Y027081D01*
X011113Y027178D02*
X011274Y027178D01*
X011396Y026209D02*
X011494Y026209D01*
X011494Y026112D02*
X011396Y026112D01*
X011396Y026015D02*
X011494Y026015D01*
X011494Y025918D02*
X011888Y025918D01*
X011888Y025821D02*
X011809Y025821D01*
X011809Y025724D02*
X011888Y025724D01*
X011888Y025627D02*
X011792Y025627D01*
X011888Y025530D02*
X011113Y025530D01*
X011396Y025627D02*
X011494Y025627D01*
X011494Y025724D02*
X011396Y025724D01*
X011396Y025821D02*
X011494Y025821D01*
X011809Y026015D02*
X011888Y026015D01*
X011888Y026112D02*
X011808Y026112D01*
X012094Y024502D02*
X012752Y024502D01*
X012752Y023689D02*
X012752Y023689D01*
X012752Y023592D02*
X012752Y023592D01*
X012485Y023301D02*
X013953Y023301D01*
X014138Y023316D02*
X014276Y023259D01*
X014381Y023153D01*
X014438Y023015D01*
X014438Y022866D01*
X014381Y022728D01*
X014276Y022622D01*
X014138Y022565D01*
X013988Y022565D01*
X013850Y022622D01*
X013745Y022728D01*
X013743Y022732D01*
X012508Y022732D01*
X012508Y022721D01*
X012393Y022606D01*
X011796Y022606D01*
X011726Y022676D01*
X010821Y022676D01*
X010800Y022698D01*
X010800Y022406D01*
X010823Y022429D01*
X010856Y022448D01*
X010894Y022458D01*
X011061Y022458D01*
X011061Y022143D01*
X011159Y022143D01*
X011159Y022458D01*
X011326Y022458D01*
X011364Y022448D01*
X011398Y022429D01*
X011989Y022429D01*
X012000Y022433D02*
X011824Y022361D01*
X011455Y021991D01*
X011455Y022045D01*
X011159Y022045D01*
X011159Y022143D01*
X011455Y022143D01*
X011455Y022330D01*
X011445Y022368D01*
X011425Y022401D01*
X011398Y022429D01*
X011454Y022332D02*
X011796Y022332D01*
X011699Y022235D02*
X011455Y022235D01*
X011602Y022138D02*
X011159Y022138D01*
X011159Y022235D02*
X011061Y022235D01*
X011061Y022332D02*
X011159Y022332D01*
X011159Y022429D02*
X011061Y022429D01*
X010823Y022429D02*
X010800Y022429D01*
X010800Y022526D02*
X014506Y022526D01*
X014506Y022449D02*
X014510Y022433D01*
X012000Y022433D01*
X011780Y022623D02*
X010800Y022623D01*
X011293Y022978D02*
X012073Y022978D01*
X012094Y023000D01*
X012116Y022978D01*
X014026Y022978D01*
X014063Y022941D01*
X014330Y023204D02*
X015589Y023204D01*
X015535Y023107D02*
X014400Y023107D01*
X014438Y023010D02*
X014554Y023010D01*
X014563Y023019D02*
X014535Y022992D01*
X014516Y022958D01*
X014506Y022921D01*
X014506Y022734D01*
X014801Y022734D01*
X014801Y023049D01*
X014634Y023049D01*
X014597Y023039D01*
X014563Y023019D01*
X014506Y022913D02*
X014438Y022913D01*
X014418Y022816D02*
X014506Y022816D01*
X014373Y022720D02*
X014801Y022720D01*
X014801Y022734D02*
X014801Y022635D01*
X014506Y022635D01*
X014506Y022449D01*
X014506Y022623D02*
X014276Y022623D01*
X013850Y022623D02*
X012409Y022623D01*
X012506Y022720D02*
X013753Y022720D01*
X014801Y022734D02*
X014900Y022734D01*
X014900Y023049D01*
X015067Y023049D01*
X015104Y023039D01*
X015138Y023019D01*
X015195Y022913D02*
X015302Y022913D01*
X015262Y022816D02*
X015195Y022816D01*
X015262Y022720D02*
X014900Y022720D01*
X014900Y022816D02*
X014801Y022816D01*
X014801Y022913D02*
X014900Y022913D01*
X014900Y023010D02*
X014801Y023010D01*
X015195Y022623D02*
X015282Y022623D01*
X015325Y022526D02*
X015195Y022526D01*
X015047Y021956D02*
X014850Y022015D01*
X016031Y022941D02*
X016031Y024319D01*
X016228Y024515D01*
X017213Y023925D02*
X016425Y023137D01*
X016031Y022941D02*
X016327Y022645D01*
X016681Y022645D01*
X017016Y023137D02*
X018984Y025106D01*
X020756Y025106D01*
X020362Y025500D01*
X020362Y026641D01*
X020953Y026641D02*
X020953Y026385D01*
X020756Y026189D01*
X020756Y025598D01*
X021248Y025106D01*
X021346Y025106D01*
X021070Y024852D02*
X021033Y024852D01*
X020889Y024755D02*
X021213Y024755D01*
X020622Y024755D02*
X018981Y024755D01*
X019078Y024852D02*
X020479Y024852D01*
X020848Y023786D02*
X019063Y023786D01*
X019128Y023689D02*
X020770Y023689D01*
X020766Y023592D02*
X019163Y023592D01*
X019163Y023495D02*
X020766Y023495D01*
X020766Y023398D02*
X019138Y023398D01*
X019088Y023301D02*
X020766Y023301D01*
X020766Y023204D02*
X019033Y023204D01*
X018541Y023204D02*
X017430Y023204D01*
X017391Y023107D02*
X018541Y023107D01*
X018509Y023010D02*
X017677Y023010D01*
X017941Y022913D02*
X018298Y022913D01*
X018133Y022816D02*
X018064Y022816D01*
X018487Y023301D02*
X017527Y023301D01*
X017624Y023398D02*
X018436Y023398D01*
X018412Y023495D02*
X017721Y023495D01*
X017818Y023592D02*
X018412Y023592D01*
X018446Y023689D02*
X017915Y023689D01*
X017213Y023925D02*
X017213Y025106D01*
X017508Y025106D01*
X018000Y025598D01*
X018000Y026641D01*
X018000Y027271D02*
X018000Y027311D01*
X018394Y027704D02*
X018394Y028121D01*
X018320Y028194D01*
X018334Y028218D01*
X018344Y028256D01*
X018344Y028443D01*
X018049Y028443D01*
X018049Y028541D01*
X018344Y028541D01*
X018344Y028728D01*
X018334Y028765D01*
X018315Y028799D01*
X018287Y028826D01*
X018344Y028729D02*
X020609Y028729D01*
X020608Y028728D02*
X020608Y028541D01*
X020904Y028541D01*
X020904Y028443D01*
X020608Y028443D01*
X020608Y028256D01*
X020618Y028218D01*
X020632Y028194D01*
X020559Y028121D01*
X020559Y027704D01*
X018394Y027704D01*
X018394Y027760D02*
X020559Y027760D01*
X020559Y027857D02*
X018394Y027857D01*
X018394Y027954D02*
X020559Y027954D01*
X020559Y028050D02*
X018394Y028050D01*
X018367Y028147D02*
X020586Y028147D01*
X020611Y028244D02*
X018341Y028244D01*
X018344Y028341D02*
X020608Y028341D01*
X020608Y028438D02*
X018344Y028438D01*
X018344Y028632D02*
X020608Y028632D01*
X020608Y028728D02*
X020618Y028765D01*
X020638Y028799D01*
X020665Y028826D01*
X020904Y028826D02*
X021002Y028826D01*
X021002Y028729D02*
X020904Y028729D01*
X020904Y028632D02*
X021002Y028632D01*
X021002Y028535D02*
X022478Y028535D01*
X020904Y028535D02*
X018049Y028535D01*
X018049Y028632D02*
X017951Y028632D01*
X017951Y028729D02*
X018049Y028729D01*
X018049Y028826D02*
X017951Y028826D01*
X017712Y028826D02*
X017685Y028799D01*
X017666Y028765D01*
X017655Y028728D01*
X017655Y028632D02*
X017200Y028632D01*
X017297Y028535D02*
X017951Y028535D01*
X017655Y028438D02*
X017394Y028438D01*
X017491Y028341D02*
X017655Y028341D01*
X017659Y028244D02*
X017588Y028244D01*
X021297Y023786D02*
X021396Y023786D01*
X021396Y023689D02*
X021297Y023689D01*
X021297Y023592D02*
X021396Y023592D01*
X021396Y023495D02*
X021297Y023495D01*
X021297Y023398D02*
X021396Y023398D01*
X021396Y023301D02*
X021297Y023301D01*
X021297Y023010D02*
X021396Y023010D01*
X021396Y022913D02*
X021297Y022913D01*
X021297Y022816D02*
X021396Y022816D01*
X021396Y022720D02*
X021297Y022720D01*
X021297Y022623D02*
X021396Y022623D01*
X021396Y022526D02*
X021297Y022526D01*
X021927Y023204D02*
X022478Y023204D01*
X022478Y023301D02*
X021927Y023301D01*
X021927Y023398D02*
X022478Y023398D01*
X022478Y023495D02*
X021927Y023495D01*
X021927Y023592D02*
X022478Y023592D01*
X022478Y023689D02*
X021923Y023689D01*
X021845Y023786D02*
X022478Y023786D01*
X021346Y021173D02*
X021346Y020775D01*
X021248Y020677D01*
X021051Y020874D02*
X021150Y020972D01*
X021602Y019791D02*
X021602Y019397D01*
X021543Y019397D01*
X021642Y019397D01*
X021642Y019299D01*
X020362Y019397D02*
X020335Y019370D01*
X020323Y019370D01*
X020008Y019370D02*
X020008Y019555D01*
X019575Y019988D01*
X019378Y019988D01*
X018787Y019988D02*
X017606Y019988D01*
X017173Y019555D01*
X017173Y019370D01*
X016858Y019370D02*
X016858Y018964D01*
X017016Y018807D01*
X017213Y018807D01*
X016937Y018552D02*
X016701Y018552D01*
X016743Y018594D02*
X016783Y018691D01*
X016807Y018667D01*
X016876Y018598D01*
X016900Y018588D01*
X017000Y018489D01*
X017138Y018431D01*
X017231Y018431D01*
X017231Y018338D01*
X017288Y018200D01*
X017394Y018095D01*
X017532Y018038D01*
X017681Y018038D01*
X017819Y018095D01*
X017924Y018200D01*
X017982Y018338D01*
X017982Y018488D01*
X017979Y018494D01*
X017984Y018489D01*
X018122Y018431D01*
X018148Y018431D01*
X018148Y018304D01*
X018076Y018232D01*
X018018Y018094D01*
X018018Y017945D01*
X018076Y017807D01*
X018181Y017701D01*
X018319Y017644D01*
X018468Y017644D01*
X018606Y017701D01*
X018712Y017807D01*
X018769Y017945D01*
X018769Y018038D01*
X018862Y018038D01*
X019000Y018095D01*
X019083Y018178D01*
X019165Y018095D01*
X019229Y018069D01*
X019132Y018069D01*
X019042Y018031D01*
X018845Y017834D01*
X018776Y017765D01*
X018738Y017675D01*
X018738Y017320D01*
X018666Y017248D01*
X018609Y017110D01*
X018609Y016960D01*
X018666Y016822D01*
X018671Y016817D01*
X018665Y016820D01*
X018516Y016820D01*
X018378Y016763D01*
X018272Y016657D01*
X018215Y016519D01*
X018215Y016370D01*
X018272Y016232D01*
X018344Y016160D01*
X018344Y015805D01*
X018271Y015836D01*
X018122Y015836D01*
X017984Y015778D01*
X017902Y015696D01*
X017819Y015778D01*
X017681Y015836D01*
X017532Y015836D01*
X017394Y015778D01*
X017378Y015763D01*
X017334Y015870D01*
X017228Y015975D01*
X017090Y016032D01*
X016941Y016032D01*
X016803Y015975D01*
X016698Y015870D01*
X016640Y015732D01*
X016640Y015617D01*
X016612Y015549D01*
X016612Y015271D01*
X016383Y015271D01*
X016332Y015221D01*
X016326Y015222D01*
X016228Y015222D01*
X016159Y015222D01*
X016159Y015270D01*
X016173Y015282D01*
X016303Y015282D01*
X016441Y015339D01*
X016546Y015445D01*
X016604Y015582D01*
X016604Y015732D01*
X016546Y015870D01*
X016441Y015975D01*
X016303Y016032D01*
X016154Y016032D01*
X016016Y015975D01*
X015933Y015893D01*
X015850Y015975D01*
X015712Y016032D01*
X015563Y016032D01*
X015425Y015975D01*
X015342Y015893D01*
X015260Y015975D01*
X015122Y016032D01*
X014973Y016032D01*
X014835Y015975D01*
X014729Y015870D01*
X014672Y015732D01*
X014672Y015582D01*
X014722Y015461D01*
X014722Y015222D01*
X014654Y015222D01*
X014654Y014897D01*
X014654Y014726D01*
X014654Y014897D01*
X014654Y014897D01*
X014654Y014870D01*
X014654Y014869D02*
X014654Y014869D01*
X014654Y014897D02*
X014654Y015222D01*
X014555Y015222D01*
X014550Y015221D01*
X014499Y015271D01*
X014222Y015271D01*
X014233Y015282D01*
X014334Y015282D01*
X014472Y015339D01*
X014578Y015445D01*
X014635Y015582D01*
X014635Y015732D01*
X014578Y015870D01*
X014472Y015975D01*
X014334Y016032D01*
X014185Y016032D01*
X014047Y015975D01*
X013942Y015870D01*
X013885Y015732D01*
X013885Y015630D01*
X013848Y015593D01*
X013848Y015732D01*
X013791Y015870D01*
X013685Y015975D01*
X013547Y016032D01*
X013398Y016032D01*
X013260Y015975D01*
X013188Y015903D01*
X012931Y015903D01*
X012841Y015866D01*
X012772Y015796D01*
X012240Y015265D01*
X012222Y015222D01*
X012134Y015222D01*
X012134Y014897D01*
X012134Y014572D01*
X012232Y014572D01*
X012238Y014574D01*
X012289Y014523D01*
X012303Y014523D01*
X012274Y014494D01*
X012254Y014460D01*
X012247Y014433D01*
X012221Y014433D01*
X012082Y014572D01*
X012134Y014572D01*
X012134Y014897D01*
X012134Y014897D01*
X012134Y014897D01*
X012134Y015222D01*
X012079Y015222D01*
X012079Y015801D01*
X012577Y015801D01*
X012741Y015869D01*
X012867Y015995D01*
X012935Y016159D01*
X012935Y016337D01*
X012867Y016501D01*
X012741Y016626D01*
X012577Y016694D01*
X012079Y016694D01*
X012079Y016982D01*
X012577Y016982D01*
X012741Y017050D01*
X012867Y017176D01*
X012935Y017340D01*
X012935Y017518D01*
X012867Y017682D01*
X012741Y017808D01*
X012577Y017876D01*
X012079Y017876D01*
X012079Y018996D01*
X012203Y018996D01*
X012203Y018797D01*
X012240Y018707D01*
X012507Y018440D01*
X012507Y018338D01*
X012564Y018200D01*
X012669Y018095D01*
X012807Y018038D01*
X012957Y018038D01*
X013094Y018095D01*
X013200Y018200D01*
X013257Y018338D01*
X013257Y018431D01*
X013350Y018431D01*
X013488Y018489D01*
X013594Y018594D01*
X013651Y018732D01*
X013651Y018881D01*
X013594Y019019D01*
X013586Y019027D01*
X013605Y019046D01*
X013610Y019045D01*
X013709Y019045D01*
X013770Y019045D01*
X013745Y019019D01*
X013688Y018881D01*
X013688Y018732D01*
X013745Y018594D01*
X013850Y018489D01*
X013988Y018431D01*
X014138Y018431D01*
X014276Y018489D01*
X014381Y018594D01*
X014438Y018732D01*
X014438Y018881D01*
X014391Y018996D01*
X014719Y018996D01*
X014672Y018881D01*
X014672Y018732D01*
X014729Y018594D01*
X014835Y018489D01*
X014973Y018431D01*
X015122Y018431D01*
X015260Y018489D01*
X015365Y018594D01*
X015422Y018732D01*
X015422Y018834D01*
X015459Y018871D01*
X015459Y018732D01*
X015516Y018594D01*
X015622Y018489D01*
X015760Y018431D01*
X015909Y018431D01*
X016047Y018489D01*
X016130Y018571D01*
X016213Y018489D01*
X016351Y018431D01*
X016500Y018431D01*
X016638Y018489D01*
X016743Y018594D01*
X016766Y018649D02*
X016826Y018649D01*
X017081Y018455D02*
X016556Y018455D01*
X016294Y018455D02*
X015966Y018455D01*
X016110Y018552D02*
X016149Y018552D01*
X016425Y018807D02*
X016543Y018925D01*
X016543Y019370D01*
X015913Y019370D02*
X015913Y018925D01*
X015835Y018807D01*
X015598Y019063D02*
X015598Y019370D01*
X015598Y019063D02*
X015441Y018905D01*
X015441Y017822D01*
X016130Y017133D01*
X016425Y017429D01*
X018000Y017429D01*
X018000Y018511D01*
X017803Y018708D01*
X017803Y019370D01*
X018118Y019370D02*
X018118Y018885D01*
X018197Y018807D01*
X018394Y018511D02*
X018394Y018019D01*
X018739Y017873D02*
X018884Y017873D01*
X018787Y017776D02*
X018681Y017776D01*
X018740Y017679D02*
X018554Y017679D01*
X018738Y017582D02*
X012908Y017582D01*
X012935Y017486D02*
X018738Y017486D01*
X018738Y017389D02*
X012935Y017389D01*
X012915Y017292D02*
X018710Y017292D01*
X018644Y017195D02*
X012875Y017195D01*
X012789Y017098D02*
X018609Y017098D01*
X018609Y017001D02*
X012623Y017001D01*
X012755Y016613D02*
X018254Y016613D01*
X018215Y016516D02*
X012851Y016516D01*
X012901Y016419D02*
X018215Y016419D01*
X018235Y016322D02*
X012935Y016322D01*
X012935Y016226D02*
X018279Y016226D01*
X018344Y016129D02*
X012923Y016129D01*
X012980Y016051D02*
X014654Y016051D01*
X014654Y016641D01*
X014850Y016838D01*
X014850Y017429D01*
X014260Y017429D01*
X013709Y017980D01*
X013709Y019370D01*
X013709Y019045D01*
X013709Y019370D01*
X013709Y019370D01*
X013709Y019327D02*
X013709Y019327D01*
X013709Y019230D02*
X013709Y019230D01*
X013709Y019133D02*
X013709Y019133D01*
X013762Y019036D02*
X013595Y019036D01*
X013627Y018939D02*
X013712Y018939D01*
X013688Y018843D02*
X013651Y018843D01*
X013651Y018746D02*
X013688Y018746D01*
X013722Y018649D02*
X013616Y018649D01*
X013551Y018552D02*
X013787Y018552D01*
X013932Y018455D02*
X013407Y018455D01*
X013257Y018358D02*
X017231Y018358D01*
X017263Y018261D02*
X013225Y018261D01*
X013164Y018164D02*
X017325Y018164D01*
X017461Y018067D02*
X013027Y018067D01*
X012882Y018413D02*
X012449Y018846D01*
X012449Y019370D01*
X012203Y018939D02*
X012079Y018939D01*
X012079Y018843D02*
X012203Y018843D01*
X012224Y018746D02*
X012079Y018746D01*
X012079Y018649D02*
X012298Y018649D01*
X012395Y018552D02*
X012079Y018552D01*
X012079Y018455D02*
X012492Y018455D01*
X012507Y018358D02*
X012079Y018358D01*
X012079Y018261D02*
X012539Y018261D01*
X012600Y018164D02*
X012079Y018164D01*
X012079Y018067D02*
X012736Y018067D01*
X012583Y017873D02*
X018048Y017873D01*
X018018Y017970D02*
X012079Y017970D01*
X011602Y017822D02*
X011445Y017822D01*
X011445Y017232D02*
X011602Y017232D01*
X012079Y016904D02*
X018632Y016904D01*
X018485Y016807D02*
X012079Y016807D01*
X012079Y016710D02*
X018325Y016710D01*
X018591Y016444D02*
X018591Y015263D01*
X018748Y015106D01*
X018748Y014897D01*
X019063Y014897D02*
X019063Y015086D01*
X018787Y015362D01*
X018787Y015854D01*
X018984Y016051D01*
X019181Y015460D02*
X019378Y015263D01*
X019378Y014897D01*
X019693Y014897D02*
X019693Y014555D01*
X019772Y014476D01*
X020008Y014732D02*
X020106Y014633D01*
X020106Y014319D01*
X019772Y013984D01*
X019772Y013885D01*
X019518Y013609D02*
X019122Y013609D01*
X019122Y013705D02*
X019440Y013705D01*
X019453Y013673D02*
X019559Y013567D01*
X019697Y013510D01*
X019846Y013510D01*
X019984Y013567D01*
X020001Y013585D01*
X020016Y013570D01*
X020049Y013551D01*
X020087Y013541D01*
X020274Y013541D01*
X020274Y013836D01*
X020372Y013836D01*
X020372Y013571D01*
X020198Y013396D01*
X019122Y013396D01*
X019122Y013987D01*
X019007Y014102D01*
X018722Y014102D01*
X018636Y014188D01*
X018712Y014263D01*
X018769Y014401D01*
X018769Y014523D01*
X019396Y014523D01*
X019396Y014401D01*
X019453Y014263D01*
X019536Y014181D01*
X019453Y014098D01*
X019396Y013960D01*
X019396Y013811D01*
X019453Y013673D01*
X019400Y013802D02*
X019122Y013802D01*
X019122Y013899D02*
X019396Y013899D01*
X019411Y013996D02*
X019112Y013996D01*
X019016Y014093D02*
X019451Y014093D01*
X019527Y014190D02*
X018638Y014190D01*
X018722Y014287D02*
X019444Y014287D01*
X019404Y014384D02*
X018762Y014384D01*
X018769Y014481D02*
X019396Y014481D01*
X020008Y014732D02*
X020008Y014897D01*
X020274Y013802D02*
X020372Y013802D01*
X020372Y013705D02*
X020274Y013705D01*
X020274Y013609D02*
X020372Y013609D01*
X020313Y013512D02*
X019850Y013512D01*
X019693Y013512D02*
X019122Y013512D01*
X019122Y013415D02*
X020216Y013415D01*
X020067Y013492D02*
X019378Y013492D01*
X018728Y013689D02*
X018728Y013748D01*
X018394Y014082D01*
X018000Y014082D01*
X017488Y014594D01*
X017488Y014897D01*
X017173Y014897D02*
X017173Y014633D01*
X016819Y014279D01*
X016031Y014279D01*
X015913Y014897D02*
X015913Y015381D01*
X016228Y015657D01*
X015975Y015935D02*
X015891Y015935D01*
X015714Y016032D02*
X016152Y016032D01*
X016305Y016032D02*
X016939Y016032D01*
X017092Y016032D02*
X018344Y016032D01*
X018344Y015935D02*
X017269Y015935D01*
X017347Y015838D02*
X018344Y015838D01*
X018197Y015460D02*
X018118Y015381D01*
X018118Y014897D01*
X017803Y014897D02*
X017803Y015263D01*
X017606Y015460D01*
X017856Y015741D02*
X017947Y015741D01*
X017016Y015657D02*
X016858Y015500D01*
X016858Y014897D01*
X016524Y015263D02*
X016622Y015362D01*
X016622Y016444D01*
X016031Y017035D01*
X016130Y017133D01*
X016031Y017035D02*
X015047Y017035D01*
X014850Y016838D01*
X014971Y016032D02*
X014336Y016032D01*
X014184Y016032D02*
X013549Y016032D01*
X013396Y016032D02*
X012882Y016032D01*
X012980Y016051D02*
X012587Y015657D01*
X012488Y015657D01*
X012134Y015303D01*
X012079Y015256D02*
X012237Y015256D01*
X012328Y015353D02*
X012079Y015353D01*
X012079Y015450D02*
X012425Y015450D01*
X012522Y015547D02*
X012079Y015547D01*
X012079Y015644D02*
X012619Y015644D01*
X012716Y015741D02*
X012079Y015741D01*
X011602Y015657D02*
X011445Y015815D01*
X011445Y015854D01*
X011445Y015263D02*
X011602Y015263D01*
X012134Y015159D02*
X012134Y015159D01*
X012134Y015062D02*
X012134Y015062D01*
X012134Y014965D02*
X012134Y014965D01*
X012134Y014869D02*
X012134Y014869D01*
X012134Y014772D02*
X012134Y014772D01*
X012134Y014675D02*
X012134Y014675D01*
X012134Y014633D02*
X012291Y014476D01*
X012266Y014481D02*
X012173Y014481D01*
X012134Y014578D02*
X012134Y014578D01*
X012449Y014897D02*
X012449Y015126D01*
X012980Y015657D01*
X013472Y015657D01*
X013219Y015935D02*
X012807Y015935D01*
X012813Y015838D02*
X012666Y015838D01*
X013394Y015185D02*
X013394Y014897D01*
X013394Y015185D02*
X013472Y015263D01*
X013866Y015263D01*
X014260Y015657D01*
X014635Y015644D02*
X014672Y015644D01*
X014676Y015741D02*
X014631Y015741D01*
X014591Y015838D02*
X014716Y015838D01*
X014794Y015935D02*
X014513Y015935D01*
X014620Y015547D02*
X014687Y015547D01*
X014722Y015450D02*
X014580Y015450D01*
X014487Y015353D02*
X014722Y015353D01*
X014722Y015256D02*
X014514Y015256D01*
X014654Y015159D02*
X014654Y015159D01*
X014654Y015062D02*
X014654Y015062D01*
X014654Y014965D02*
X014654Y014965D01*
X014654Y014897D02*
X014654Y014897D01*
X014654Y014772D02*
X014654Y014772D01*
X014654Y014726D02*
X014654Y014726D01*
X014339Y014693D02*
X014752Y014279D01*
X014850Y014279D01*
X014968Y014897D02*
X014968Y015539D01*
X015047Y015657D01*
X015300Y015935D02*
X015385Y015935D01*
X015561Y016032D02*
X015124Y016032D01*
X015638Y015657D02*
X015441Y015460D01*
X015283Y015303D01*
X015283Y015224D01*
X015283Y014897D01*
X016228Y014897D02*
X016228Y015222D01*
X016228Y014897D01*
X016228Y014897D01*
X016228Y014965D02*
X016228Y014965D01*
X016228Y015062D02*
X016228Y015062D01*
X016228Y015159D02*
X016228Y015159D01*
X016159Y015256D02*
X016368Y015256D01*
X016455Y015353D02*
X016612Y015353D01*
X016612Y015450D02*
X016549Y015450D01*
X016589Y015547D02*
X016612Y015547D01*
X016604Y015644D02*
X016640Y015644D01*
X016644Y015741D02*
X016600Y015741D01*
X016560Y015838D02*
X016684Y015838D01*
X016763Y015935D02*
X016481Y015935D01*
X017752Y018067D02*
X018018Y018067D01*
X018047Y018164D02*
X017888Y018164D01*
X017949Y018261D02*
X018105Y018261D01*
X018148Y018358D02*
X017982Y018358D01*
X017982Y018455D02*
X018066Y018455D01*
X018394Y018511D02*
X018591Y018708D01*
X018591Y019004D01*
X018433Y019161D01*
X018433Y019370D01*
X018748Y019370D02*
X018748Y019141D01*
X018787Y019102D01*
X018787Y018413D01*
X018933Y018067D02*
X019129Y018067D01*
X019096Y018164D02*
X019069Y018164D01*
X018981Y017970D02*
X018769Y017970D01*
X018984Y017626D02*
X018984Y017035D01*
X019378Y017429D02*
X019968Y018019D01*
X019968Y018807D01*
X019693Y019082D01*
X019693Y019370D01*
X019378Y019370D02*
X019378Y019004D01*
X019772Y018610D01*
X019772Y018216D01*
X019378Y017822D01*
X019181Y017822D01*
X018984Y017626D01*
X019378Y018413D02*
X019063Y018728D01*
X019063Y019370D01*
X018106Y017776D02*
X012773Y017776D01*
X012868Y017679D02*
X018234Y017679D01*
X017606Y018413D02*
X017606Y019004D01*
X017488Y019122D01*
X017488Y019370D01*
X015703Y018455D02*
X015178Y018455D01*
X015323Y018552D02*
X015559Y018552D01*
X015494Y018649D02*
X015388Y018649D01*
X015422Y018746D02*
X015459Y018746D01*
X015459Y018843D02*
X015431Y018843D01*
X015283Y019043D02*
X015047Y018807D01*
X015283Y019043D02*
X015283Y019370D01*
X014968Y019370D02*
X014968Y019614D01*
X015244Y019889D01*
X015244Y019988D01*
X014457Y019988D02*
X014339Y019870D01*
X014339Y019370D01*
X014024Y019370D02*
X014024Y018846D01*
X014063Y018807D01*
X014414Y018939D02*
X014696Y018939D01*
X014672Y018843D02*
X014438Y018843D01*
X014438Y018746D02*
X014672Y018746D01*
X014706Y018649D02*
X014404Y018649D01*
X014339Y018552D02*
X014771Y018552D01*
X014916Y018455D02*
X014194Y018455D01*
X013276Y018807D02*
X013079Y019004D01*
X013079Y019370D01*
X013394Y019370D02*
X013394Y019712D01*
X013669Y019988D01*
X011602Y018807D02*
X011445Y018807D01*
X011125Y018358D02*
X009585Y018358D01*
X009585Y018455D02*
X010192Y018455D01*
X010047Y018552D02*
X009585Y018552D01*
X009585Y018649D02*
X009982Y018649D01*
X009948Y018746D02*
X009585Y018746D01*
X009652Y018843D02*
X009948Y018843D01*
X009972Y018939D02*
X009805Y018939D01*
X009874Y019036D02*
X010022Y019036D01*
X010131Y019133D02*
X009911Y019133D01*
X009911Y019230D02*
X010406Y019230D01*
X010411Y019226D02*
X010411Y019226D01*
X010309Y019327D02*
X009889Y019327D01*
X009842Y019424D02*
X010212Y019424D01*
X010115Y019521D02*
X009742Y019521D01*
X009921Y019715D02*
X009369Y019715D01*
X009272Y019812D02*
X009880Y019812D01*
X009846Y019909D02*
X009200Y019909D01*
X009277Y020006D02*
X009846Y020006D01*
X009846Y020103D02*
X009317Y020103D01*
X009320Y020199D02*
X009846Y020199D01*
X009846Y020296D02*
X009305Y020296D01*
X009265Y020393D02*
X009481Y020393D01*
X009417Y020490D02*
X009170Y020490D01*
X009417Y020587D02*
X008817Y020587D01*
X008817Y020684D02*
X009417Y020684D01*
X009417Y020781D02*
X008817Y020781D01*
X008817Y020878D02*
X009417Y020878D01*
X009417Y020975D02*
X008207Y020975D01*
X008207Y021072D02*
X008108Y021072D01*
X008108Y021169D02*
X008207Y021169D01*
X008207Y021266D02*
X008108Y021266D01*
X008108Y021363D02*
X008207Y021363D01*
X008207Y021459D02*
X008108Y021459D01*
X007982Y021750D02*
X007687Y021750D01*
X007687Y021653D02*
X009846Y021653D01*
X009846Y021750D02*
X009514Y021750D01*
X009612Y021847D02*
X009846Y021847D01*
X009846Y021944D02*
X009674Y021944D01*
X009715Y022041D02*
X009846Y022041D01*
X009846Y022138D02*
X009722Y022138D01*
X009722Y022235D02*
X009846Y022235D01*
X009846Y022332D02*
X009687Y022332D01*
X009643Y022429D02*
X009846Y022429D01*
X009846Y022526D02*
X009546Y022526D01*
X009525Y022623D02*
X009846Y022623D01*
X009353Y022978D02*
X009248Y022886D01*
X008971Y022623D02*
X008525Y022623D01*
X008525Y022720D02*
X008838Y022720D01*
X008766Y022816D02*
X008622Y022816D01*
X008719Y022913D02*
X008766Y022913D01*
X008950Y022526D02*
X008546Y022526D01*
X008643Y022429D02*
X008853Y022429D01*
X008809Y022332D02*
X008687Y022332D01*
X008722Y022235D02*
X008774Y022235D01*
X008774Y022138D02*
X008722Y022138D01*
X008715Y022041D02*
X008781Y022041D01*
X008822Y021944D02*
X008674Y021944D01*
X008612Y021847D02*
X008884Y021847D01*
X008982Y021750D02*
X008514Y021750D01*
X008808Y021459D02*
X009417Y021459D01*
X009417Y021363D02*
X008817Y021363D01*
X008817Y021266D02*
X009417Y021266D01*
X009417Y021169D02*
X008817Y021169D01*
X008817Y021072D02*
X009417Y021072D01*
X009487Y021556D02*
X007687Y021556D01*
X007687Y021847D02*
X007884Y021847D01*
X007822Y021944D02*
X007687Y021944D01*
X007687Y022041D02*
X007781Y022041D01*
X007774Y022138D02*
X007687Y022138D01*
X007687Y022235D02*
X007774Y022235D01*
X007809Y022332D02*
X007687Y022332D01*
X007700Y022429D02*
X007853Y022429D01*
X007797Y022526D02*
X007950Y022526D01*
X007971Y022623D02*
X007894Y022623D01*
X007482Y023107D02*
X006861Y023107D01*
X006861Y023010D02*
X007385Y023010D01*
X007288Y022913D02*
X006861Y022913D01*
X006861Y022816D02*
X007192Y022816D01*
X007099Y022720D02*
X006861Y022720D01*
X006878Y022623D02*
X007058Y022623D01*
X007053Y022526D02*
X006878Y022526D01*
X006878Y022429D02*
X007053Y022429D01*
X007053Y022332D02*
X006878Y022332D01*
X006878Y022235D02*
X007053Y022235D01*
X007053Y022138D02*
X006878Y022138D01*
X006878Y022041D02*
X007053Y022041D01*
X007053Y021944D02*
X006878Y021944D01*
X006878Y021847D02*
X007053Y021847D01*
X007053Y021750D02*
X006878Y021750D01*
X006878Y021653D02*
X007053Y021653D01*
X007053Y021556D02*
X006859Y021556D01*
X006799Y021459D02*
X007053Y021459D01*
X007053Y021363D02*
X006702Y021363D01*
X006605Y021266D02*
X007053Y021266D01*
X007053Y021169D02*
X006508Y021169D01*
X006620Y021072D02*
X007053Y021072D01*
X007053Y020975D02*
X006709Y020975D01*
X006749Y020878D02*
X007053Y020878D01*
X007053Y020781D02*
X006761Y020781D01*
X006754Y020684D02*
X007053Y020684D01*
X007053Y020587D02*
X006714Y020587D01*
X006681Y020490D02*
X007053Y020490D01*
X007053Y020393D02*
X006681Y020393D01*
X006681Y020296D02*
X007053Y020296D01*
X007053Y020199D02*
X006681Y020199D01*
X006671Y020103D02*
X007053Y020103D01*
X006967Y020006D02*
X006624Y020006D01*
X006527Y019909D02*
X006870Y019909D01*
X006777Y019812D02*
X006484Y019812D01*
X006484Y019715D02*
X006737Y019715D01*
X006697Y019618D02*
X006484Y019618D01*
X006484Y019521D02*
X006673Y019521D01*
X006673Y019424D02*
X006484Y019424D01*
X006484Y019327D02*
X006673Y019327D01*
X006696Y019230D02*
X006484Y019230D01*
X006484Y019133D02*
X006736Y019133D01*
X006776Y019036D02*
X006484Y019036D01*
X006484Y018939D02*
X006868Y018939D01*
X006965Y018843D02*
X006484Y018843D01*
X006484Y018746D02*
X007184Y018746D01*
X007556Y018746D02*
X007750Y018746D01*
X007775Y018843D02*
X007782Y018843D01*
X007715Y018649D02*
X006484Y018649D01*
X006484Y018552D02*
X007715Y018552D01*
X007715Y018455D02*
X006484Y018455D01*
X006484Y018358D02*
X007715Y018358D01*
X007715Y018261D02*
X006562Y018261D01*
X006659Y018164D02*
X007715Y018164D01*
X007715Y018067D02*
X006732Y018067D01*
X006760Y017970D02*
X007715Y017970D01*
X007715Y017873D02*
X006760Y017873D01*
X006760Y017776D02*
X007715Y017776D01*
X007681Y017679D02*
X006760Y017679D01*
X006760Y017582D02*
X007618Y017582D01*
X007585Y017486D02*
X006760Y017486D01*
X006779Y017389D02*
X006780Y017389D01*
X006779Y017292D02*
X006780Y017292D01*
X006779Y017195D02*
X006780Y017195D01*
X006779Y017098D02*
X006780Y017098D01*
X006779Y017001D02*
X006780Y017001D01*
X006779Y016904D02*
X006780Y016904D01*
X006779Y016807D02*
X006780Y016807D01*
X006779Y016710D02*
X006780Y016710D01*
X006779Y016613D02*
X006780Y016613D01*
X006779Y016516D02*
X006780Y016516D01*
X006908Y016516D02*
X007085Y016516D01*
X007111Y016543D02*
X006996Y016428D01*
X006996Y013548D01*
X007045Y013499D01*
X007045Y013413D01*
X007045Y013295D01*
X007055Y013258D01*
X007057Y013256D01*
X007055Y013253D01*
X007045Y013216D01*
X007045Y013098D01*
X007045Y012980D01*
X007055Y012943D01*
X007075Y012909D01*
X007102Y012881D01*
X007136Y012862D01*
X007173Y012852D01*
X007488Y012852D01*
X007488Y013098D01*
X007045Y013098D01*
X007488Y013098D01*
X007488Y013098D01*
X007488Y013098D01*
X007488Y013167D01*
X007488Y013413D01*
X007045Y013413D01*
X007488Y013413D01*
X007488Y013413D01*
X007488Y013413D01*
X007488Y013098D01*
X007488Y013098D01*
X007488Y012852D01*
X007803Y012852D01*
X007840Y012862D01*
X007874Y012881D01*
X007902Y012909D01*
X007921Y012943D01*
X007931Y012980D01*
X007931Y013098D01*
X007488Y013098D01*
X007488Y013098D01*
X007931Y013098D01*
X007931Y013216D01*
X007921Y013253D01*
X007920Y013256D01*
X007921Y013258D01*
X007931Y013295D01*
X007931Y013413D01*
X007931Y013499D01*
X007980Y013548D01*
X007980Y015324D01*
X008083Y015282D01*
X008232Y015282D01*
X008370Y015339D01*
X008476Y015445D01*
X008533Y015582D01*
X008533Y015732D01*
X008476Y015870D01*
X008370Y015975D01*
X008232Y016032D01*
X008130Y016032D01*
X008021Y016141D01*
X007980Y016158D01*
X007980Y016428D01*
X007865Y016543D01*
X007111Y016543D01*
X007018Y016613D02*
X008148Y016613D01*
X008148Y016612D02*
X008541Y016612D01*
X008541Y016513D01*
X008640Y016513D01*
X008640Y016100D01*
X008905Y016100D01*
X008943Y016110D01*
X008976Y016129D01*
X009004Y016157D01*
X009023Y016191D01*
X009033Y016228D01*
X009033Y016513D01*
X008640Y016513D01*
X008640Y016612D01*
X009033Y016612D01*
X009033Y016897D01*
X009023Y016935D01*
X009004Y016968D01*
X008976Y016996D01*
X008943Y017015D01*
X008905Y017025D01*
X008640Y017025D01*
X008640Y016612D01*
X008541Y016612D01*
X008541Y017025D01*
X008276Y017025D01*
X008238Y017015D01*
X008205Y016996D01*
X008177Y016968D01*
X008158Y016935D01*
X008148Y016897D01*
X008148Y016612D01*
X008148Y016710D02*
X007026Y016710D01*
X007026Y016807D02*
X008148Y016807D01*
X008149Y016904D02*
X007026Y016904D01*
X007026Y017001D02*
X008214Y017001D01*
X008142Y017098D02*
X008763Y017098D01*
X008648Y017195D02*
X008257Y017195D01*
X008310Y017292D02*
X008595Y017292D01*
X008570Y017389D02*
X008336Y017389D01*
X008336Y017486D02*
X008570Y017486D01*
X008602Y017582D02*
X008303Y017582D01*
X008241Y017679D02*
X008665Y017679D01*
X008699Y017776D02*
X008207Y017776D01*
X008207Y017873D02*
X008699Y017873D01*
X008660Y017970D02*
X008207Y017970D01*
X008207Y018067D02*
X008600Y018067D01*
X008570Y018164D02*
X008207Y018164D01*
X008207Y018261D02*
X008570Y018261D01*
X008597Y018358D02*
X008207Y018358D01*
X008289Y018455D02*
X008653Y018455D01*
X008774Y018552D02*
X008433Y018552D01*
X008498Y018649D02*
X009092Y018649D01*
X009052Y018746D02*
X008533Y018746D01*
X008533Y018843D02*
X008955Y018843D01*
X008858Y018939D02*
X008509Y018939D01*
X008459Y019036D02*
X008761Y019036D01*
X008664Y019133D02*
X008350Y019133D01*
X008470Y019327D02*
X008067Y019327D01*
X008067Y019424D02*
X008373Y019424D01*
X008290Y019521D02*
X008067Y019521D01*
X008044Y019618D02*
X008217Y019618D01*
X008176Y019715D02*
X008003Y019715D01*
X007963Y019812D02*
X008176Y019812D01*
X008194Y019909D02*
X007870Y019909D01*
X007773Y020006D02*
X008235Y020006D01*
X008332Y020103D02*
X007687Y020103D01*
X007687Y020199D02*
X008570Y020199D01*
X008585Y020296D02*
X007687Y020296D01*
X008108Y020393D02*
X008207Y020393D01*
X008207Y020490D02*
X008108Y020490D01*
X008108Y020587D02*
X008207Y020587D01*
X008207Y020684D02*
X008108Y020684D01*
X008108Y020781D02*
X008207Y020781D01*
X008207Y020878D02*
X008108Y020878D01*
X008945Y020185D02*
X008945Y019791D01*
X009535Y019200D01*
X009466Y019618D02*
X010018Y019618D01*
X009339Y018807D02*
X008551Y019594D01*
X008551Y019791D01*
X008567Y019230D02*
X008045Y019230D01*
X008157Y018807D02*
X007961Y018610D01*
X007961Y017429D01*
X007611Y017292D02*
X007020Y017292D01*
X007026Y017195D02*
X007664Y017195D01*
X007779Y017098D02*
X007026Y017098D01*
X006936Y017389D02*
X007585Y017389D01*
X007892Y016516D02*
X008541Y016516D01*
X008541Y016513D02*
X008148Y016513D01*
X008148Y016228D01*
X008158Y016191D01*
X008177Y016157D01*
X008205Y016129D01*
X008238Y016110D01*
X008276Y016100D01*
X008541Y016100D01*
X008541Y016513D01*
X008541Y016419D02*
X008640Y016419D01*
X008640Y016322D02*
X008541Y016322D01*
X008541Y016226D02*
X008640Y016226D01*
X008640Y016129D02*
X008541Y016129D01*
X008411Y015935D02*
X009092Y015935D01*
X009092Y016032D02*
X008234Y016032D01*
X008206Y016129D02*
X008034Y016129D01*
X007980Y016226D02*
X008148Y016226D01*
X008148Y016322D02*
X007980Y016322D01*
X007980Y016419D02*
X008148Y016419D01*
X007882Y015933D02*
X008157Y015657D01*
X008489Y015838D02*
X009092Y015838D01*
X009092Y015741D02*
X008529Y015741D01*
X008533Y015644D02*
X009092Y015644D01*
X009118Y015547D02*
X008518Y015547D01*
X008478Y015450D02*
X009198Y015450D01*
X009294Y015353D02*
X008384Y015353D01*
X008210Y015062D02*
X007980Y015062D01*
X007980Y014965D02*
X008113Y014965D01*
X008098Y014869D02*
X007980Y014869D01*
X007980Y014772D02*
X008098Y014772D01*
X008098Y014675D02*
X007980Y014675D01*
X007980Y014578D02*
X008098Y014578D01*
X008098Y014481D02*
X007980Y014481D01*
X007980Y014384D02*
X008098Y014384D01*
X008098Y014287D02*
X007980Y014287D01*
X007980Y014190D02*
X008098Y014190D01*
X008163Y014093D02*
X007980Y014093D01*
X007980Y013996D02*
X008862Y013996D01*
X008862Y013899D02*
X007980Y013899D01*
X007980Y013802D02*
X008299Y013802D01*
X008246Y013705D02*
X007980Y013705D01*
X007980Y013609D02*
X008246Y013609D01*
X008246Y013415D02*
X007931Y013415D01*
X007931Y013413D02*
X007488Y013413D01*
X007488Y013413D01*
X007931Y013413D01*
X007931Y013318D02*
X008246Y013318D01*
X008266Y013221D02*
X007930Y013221D01*
X007931Y013124D02*
X008862Y013124D01*
X008862Y013027D02*
X007931Y013027D01*
X007914Y012930D02*
X008862Y012930D01*
X008862Y012833D02*
X007008Y012833D01*
X007063Y012930D02*
X006711Y012930D01*
X006845Y013027D02*
X007045Y013027D01*
X007045Y013124D02*
X006918Y013124D01*
X006958Y013221D02*
X007047Y013221D01*
X007045Y013318D02*
X006958Y013318D01*
X006939Y013415D02*
X007045Y013415D01*
X007032Y013512D02*
X006897Y013512D01*
X006800Y013609D02*
X006996Y013609D01*
X006996Y013705D02*
X006396Y013705D01*
X006396Y013802D02*
X006996Y013802D01*
X006996Y013899D02*
X006396Y013899D01*
X006396Y013996D02*
X006996Y013996D01*
X006996Y014093D02*
X006396Y014093D01*
X006396Y014190D02*
X006996Y014190D01*
X006996Y014287D02*
X006396Y014287D01*
X006396Y014384D02*
X006996Y014384D01*
X006996Y014481D02*
X006396Y014481D01*
X006396Y014578D02*
X006996Y014578D01*
X006996Y014675D02*
X006396Y014675D01*
X006396Y014772D02*
X006996Y014772D01*
X006996Y014869D02*
X006396Y014869D01*
X006396Y014965D02*
X006996Y014965D01*
X006996Y015062D02*
X006396Y015062D01*
X006396Y015159D02*
X006996Y015159D01*
X006996Y015256D02*
X006396Y015256D01*
X006395Y015353D02*
X006996Y015353D01*
X006996Y015450D02*
X006367Y015450D01*
X006362Y015547D02*
X006996Y015547D01*
X006996Y015644D02*
X006322Y015644D01*
X006242Y015741D02*
X006996Y015741D01*
X006996Y015838D02*
X003925Y015838D01*
X003925Y015935D02*
X006996Y015935D01*
X006996Y016032D02*
X003930Y016032D01*
X003925Y015741D02*
X005151Y015741D01*
X005071Y015644D02*
X003925Y015644D01*
X003925Y015547D02*
X005031Y015547D01*
X005026Y015450D02*
X003925Y015450D01*
X003925Y015353D02*
X005040Y015353D01*
X005080Y015256D02*
X003925Y015256D01*
X003925Y015159D02*
X005172Y015159D01*
X005451Y015062D02*
X003925Y015062D01*
X003925Y014965D02*
X005548Y014965D01*
X005589Y014869D02*
X003925Y014869D01*
X003925Y014772D02*
X005589Y014772D01*
X005589Y014675D02*
X003925Y014675D01*
X003925Y014578D02*
X005589Y014578D01*
X005589Y014481D02*
X003925Y014481D01*
X003925Y014384D02*
X005589Y014384D01*
X005589Y014287D02*
X003925Y014287D01*
X003940Y014190D02*
X005589Y014190D01*
X005589Y014093D02*
X004037Y014093D01*
X004134Y013996D02*
X005589Y013996D01*
X005589Y013899D02*
X004230Y013899D01*
X004327Y013802D02*
X005589Y013802D01*
X005589Y013705D02*
X004424Y013705D01*
X004515Y013609D02*
X005589Y013609D01*
X005589Y013512D02*
X004555Y013512D01*
X004555Y013415D02*
X005589Y013415D01*
X005589Y013318D02*
X004555Y013318D01*
X004555Y013221D02*
X005589Y013221D01*
X005589Y013124D02*
X004555Y013124D01*
X004555Y013027D02*
X005589Y013027D01*
X005589Y012930D02*
X004555Y012930D01*
X003965Y012930D02*
X003347Y012930D01*
X003364Y013027D02*
X003965Y013027D01*
X003965Y013124D02*
X003364Y013124D01*
X003401Y013221D02*
X003965Y013221D01*
X003965Y013318D02*
X003413Y013318D01*
X003413Y013415D02*
X003880Y013415D01*
X003783Y013512D02*
X003413Y013512D01*
X003413Y013609D02*
X003686Y013609D01*
X003589Y013705D02*
X003413Y013705D01*
X002921Y013728D02*
X002606Y013728D01*
X002252Y014082D01*
X002193Y014082D01*
X002298Y013689D02*
X002298Y013689D01*
X002311Y013413D02*
X002193Y013295D01*
X002311Y013413D02*
X002921Y013413D01*
X002921Y013027D02*
X002921Y013027D01*
X002921Y012930D02*
X002921Y012930D01*
X002550Y012833D02*
X003402Y012833D01*
X003450Y012881D02*
X003335Y012766D01*
X003335Y012136D01*
X003318Y012153D01*
X002367Y012153D01*
X002252Y012038D01*
X002252Y011009D01*
X002367Y010893D01*
X003318Y010893D01*
X003433Y011009D01*
X003433Y011329D01*
X003471Y011366D01*
X003865Y011760D01*
X003907Y011862D01*
X003907Y011946D01*
X003945Y011946D01*
X003945Y012389D01*
X003945Y012389D01*
X003945Y012389D01*
X003945Y012832D01*
X003859Y012832D01*
X003810Y012881D01*
X003450Y012881D01*
X003335Y012736D02*
X002529Y012736D01*
X002527Y012639D02*
X003335Y012639D01*
X003335Y012542D02*
X002487Y012542D01*
X002432Y012445D02*
X003335Y012445D01*
X003335Y012349D02*
X002335Y012349D01*
X002272Y012058D02*
X002162Y012058D01*
X002173Y012047D02*
X002146Y012074D01*
X002112Y012094D01*
X002075Y012104D01*
X001711Y012104D01*
X001711Y011572D01*
X002203Y011572D01*
X002203Y011976D01*
X002193Y012013D01*
X002173Y012047D01*
X002203Y011961D02*
X002252Y011961D01*
X002252Y011864D02*
X002203Y011864D01*
X002203Y011767D02*
X002252Y011767D01*
X002252Y011670D02*
X002203Y011670D01*
X002203Y011573D02*
X002252Y011573D01*
X002252Y011476D02*
X001711Y011476D01*
X001711Y011474D02*
X001711Y011572D01*
X001612Y011572D01*
X001612Y011474D01*
X001120Y011474D01*
X001120Y011071D01*
X001130Y011033D01*
X001150Y011000D01*
X001177Y010972D01*
X001211Y010953D01*
X001248Y010943D01*
X001612Y010943D01*
X001612Y011474D01*
X001711Y011474D01*
X002203Y011474D01*
X002203Y011071D01*
X002193Y011033D01*
X002173Y011000D01*
X002146Y010972D01*
X002112Y010953D01*
X002075Y010943D01*
X001711Y010943D01*
X001711Y011474D01*
X001711Y011379D02*
X001612Y011379D01*
X001612Y011282D02*
X001711Y011282D01*
X001711Y011185D02*
X001612Y011185D01*
X001612Y011088D02*
X001711Y011088D01*
X001711Y010992D02*
X001612Y010992D01*
X001158Y010992D02*
X000923Y010992D01*
X000923Y011088D02*
X001120Y011088D01*
X001120Y011185D02*
X000923Y011185D01*
X000923Y011282D02*
X001120Y011282D01*
X001120Y011379D02*
X000923Y011379D01*
X000923Y011476D02*
X001612Y011476D01*
X001612Y011572D02*
X001120Y011572D01*
X001120Y011976D01*
X001130Y012013D01*
X001150Y012047D01*
X001177Y012074D01*
X001211Y012094D01*
X001248Y012104D01*
X001612Y012104D01*
X001612Y011572D01*
X001612Y011573D02*
X001711Y011573D01*
X001711Y011670D02*
X001612Y011670D01*
X001612Y011767D02*
X001711Y011767D01*
X001711Y011864D02*
X001612Y011864D01*
X001612Y011961D02*
X001711Y011961D01*
X001711Y012058D02*
X001612Y012058D01*
X001775Y012349D02*
X000923Y012349D01*
X000923Y012445D02*
X001678Y012445D01*
X001623Y012542D02*
X000923Y012542D01*
X000923Y012639D02*
X001583Y012639D01*
X001581Y012736D02*
X000923Y012736D01*
X000923Y012833D02*
X001581Y012833D01*
X001621Y012930D02*
X000923Y012930D01*
X000923Y013027D02*
X001178Y013027D01*
X001159Y013124D02*
X000923Y013124D01*
X000923Y013221D02*
X001159Y013221D01*
X001159Y013344D02*
X001474Y013344D01*
X001474Y013639D01*
X001288Y013639D01*
X001250Y013629D01*
X001216Y013610D01*
X001189Y013582D01*
X001169Y013549D01*
X001159Y013511D01*
X001159Y013344D01*
X001159Y013415D02*
X000923Y013415D01*
X000923Y013512D02*
X001160Y013512D01*
X001215Y013609D02*
X000923Y013609D01*
X000923Y013705D02*
X001878Y013705D01*
X001573Y013609D02*
X001474Y013609D01*
X001474Y013512D02*
X001573Y013512D01*
X001573Y013415D02*
X001474Y013415D01*
X001474Y013318D02*
X000923Y013318D01*
X000923Y013802D02*
X001185Y013802D01*
X001159Y013899D02*
X000923Y013899D01*
X000923Y013996D02*
X001159Y013996D01*
X001159Y014131D02*
X001474Y014131D01*
X001474Y014427D01*
X001288Y014427D01*
X001250Y014417D01*
X001216Y014397D01*
X001189Y014370D01*
X001169Y014336D01*
X001159Y014299D01*
X001159Y014131D01*
X001159Y014190D02*
X000923Y014190D01*
X000923Y014093D02*
X001474Y014093D01*
X001524Y014082D02*
X001524Y013295D01*
X001573Y013221D02*
X001474Y013221D01*
X001474Y013124D02*
X001573Y013124D01*
X001573Y013027D02*
X001474Y013027D01*
X001474Y013802D02*
X001573Y013802D01*
X001573Y013899D02*
X001474Y013899D01*
X001474Y013996D02*
X001573Y013996D01*
X001573Y014190D02*
X001474Y014190D01*
X001474Y014287D02*
X001573Y014287D01*
X001573Y014384D02*
X001474Y014384D01*
X001607Y014481D02*
X000923Y014481D01*
X000923Y014578D02*
X001581Y014578D01*
X001581Y014675D02*
X000923Y014675D01*
X000923Y014772D02*
X001597Y014772D01*
X001637Y014869D02*
X000923Y014869D01*
X000923Y014965D02*
X001712Y014965D01*
X001840Y015062D02*
X000923Y015062D01*
X000923Y015159D02*
X002429Y015159D01*
X002429Y015062D02*
X002271Y015062D01*
X002399Y014965D02*
X002429Y014965D01*
X002429Y015256D02*
X000923Y015256D01*
X000923Y015353D02*
X002305Y015353D01*
X002166Y015450D02*
X000923Y015450D01*
X000923Y015547D02*
X002069Y015547D01*
X001972Y015644D02*
X000923Y015644D01*
X000923Y015741D02*
X001875Y015741D01*
X001778Y015838D02*
X000923Y015838D01*
X000923Y015935D02*
X001681Y015935D01*
X001584Y016032D02*
X000923Y016032D01*
X000923Y016129D02*
X001487Y016129D01*
X001412Y016226D02*
X000923Y016226D01*
X000923Y016322D02*
X001348Y016322D01*
X001251Y016419D02*
X000923Y016419D01*
X000923Y016516D02*
X001248Y016516D01*
X001248Y016613D02*
X000923Y016613D01*
X000923Y016710D02*
X001248Y016710D01*
X001248Y016807D02*
X000923Y016807D01*
X000923Y016904D02*
X001248Y016904D01*
X001270Y017001D02*
X000923Y017001D01*
X000923Y017098D02*
X001248Y017098D01*
X001248Y017195D02*
X000923Y017195D01*
X000923Y017292D02*
X001248Y017292D01*
X001248Y017389D02*
X000923Y017389D01*
X000923Y017486D02*
X001248Y017486D01*
X001248Y017582D02*
X000923Y017582D01*
X000923Y017679D02*
X001279Y017679D01*
X001385Y017776D02*
X000923Y017776D01*
X000923Y017873D02*
X001385Y017873D01*
X001385Y017970D02*
X000923Y017970D01*
X000923Y018067D02*
X001385Y018067D01*
X001385Y018164D02*
X000923Y018164D01*
X000923Y018261D02*
X001385Y018261D01*
X001383Y018358D02*
X000923Y018358D01*
X000923Y018455D02*
X001319Y018455D01*
X001286Y018552D02*
X000923Y018552D01*
X000923Y018649D02*
X001286Y018649D01*
X001311Y018746D02*
X000923Y018746D01*
X000923Y018843D02*
X001363Y018843D01*
X001476Y018939D02*
X000923Y018939D01*
X000923Y019036D02*
X003304Y019036D01*
X003401Y018939D02*
X001846Y018939D01*
X001959Y018843D02*
X002512Y018843D01*
X002508Y018838D02*
X002488Y018805D01*
X002478Y018767D01*
X002478Y018600D01*
X002793Y018600D01*
X002793Y018895D01*
X002607Y018895D01*
X002569Y018885D01*
X002535Y018866D01*
X002508Y018838D01*
X002478Y018746D02*
X002011Y018746D01*
X002037Y018649D02*
X002478Y018649D01*
X002478Y018455D02*
X002003Y018455D01*
X002037Y018552D02*
X002793Y018552D01*
X002793Y018649D02*
X002892Y018649D01*
X002892Y018746D02*
X002793Y018746D01*
X002793Y018843D02*
X002892Y018843D01*
X002892Y018552D02*
X003384Y018552D01*
X003384Y018649D02*
X003482Y018649D01*
X003482Y018600D02*
X003740Y018600D01*
X003944Y018397D01*
X003944Y017964D01*
X003986Y017862D01*
X004064Y017785D01*
X004400Y017448D01*
X004395Y017448D01*
X004346Y017399D01*
X004260Y017399D01*
X004260Y016956D01*
X004014Y016956D01*
X003945Y016956D01*
X003945Y016956D01*
X004260Y016956D01*
X004260Y016956D01*
X004260Y016956D01*
X004260Y017399D01*
X004142Y017399D01*
X004104Y017389D01*
X004102Y017388D01*
X004100Y017389D01*
X004063Y017399D01*
X003945Y017399D01*
X003945Y016956D01*
X003945Y016956D01*
X003945Y017399D01*
X003876Y017399D01*
X003876Y017478D01*
X003838Y017568D01*
X003825Y017582D01*
X003827Y017583D01*
X003827Y018180D01*
X003753Y018253D01*
X003767Y018277D01*
X003778Y018315D01*
X003778Y018502D01*
X003482Y018502D01*
X003482Y018600D01*
X003482Y018552D02*
X003789Y018552D01*
X003778Y018455D02*
X003886Y018455D01*
X003944Y018358D02*
X003778Y018358D01*
X003758Y018261D02*
X003944Y018261D01*
X003944Y018164D02*
X003827Y018164D01*
X003827Y018067D02*
X003944Y018067D01*
X003944Y017970D02*
X003827Y017970D01*
X003827Y017873D02*
X003981Y017873D01*
X004072Y017776D02*
X003827Y017776D01*
X003827Y017679D02*
X004169Y017679D01*
X004266Y017582D02*
X003826Y017582D01*
X003873Y017486D02*
X004363Y017486D01*
X004260Y017389D02*
X004260Y017389D01*
X004260Y017292D02*
X004260Y017292D01*
X004260Y017195D02*
X004260Y017195D01*
X004260Y017098D02*
X004260Y017098D01*
X004260Y017001D02*
X004260Y017001D01*
X004104Y017389D02*
X004101Y017389D01*
X003945Y017389D02*
X003945Y017389D01*
X003945Y017292D02*
X003945Y017292D01*
X003945Y017195D02*
X003945Y017195D01*
X003945Y017098D02*
X003945Y017098D01*
X003945Y017001D02*
X003945Y017001D01*
X003630Y016956D02*
X003630Y017429D01*
X003433Y017429D01*
X002510Y018261D02*
X002344Y018261D01*
X002401Y018164D02*
X002433Y018164D01*
X002478Y018358D02*
X002218Y018358D01*
X002275Y019424D02*
X000923Y019424D01*
X000923Y019327D02*
X003013Y019327D01*
X003110Y019230D02*
X000923Y019230D01*
X000923Y019133D02*
X003207Y019133D01*
X003384Y018843D02*
X003482Y018843D01*
X003482Y018746D02*
X003384Y018746D01*
X004095Y019521D02*
X004645Y019521D01*
X004713Y019424D02*
X004191Y019424D01*
X004288Y019327D02*
X004713Y019327D01*
X004713Y019230D02*
X004385Y019230D01*
X004482Y019133D02*
X004713Y019133D01*
X004713Y019036D02*
X004579Y019036D01*
X004676Y018939D02*
X004713Y018939D01*
X004575Y019618D02*
X003998Y019618D01*
X003901Y019715D02*
X004575Y019715D01*
X004575Y019812D02*
X003804Y019812D01*
X003707Y019909D02*
X003934Y019909D01*
X003933Y019909D02*
X003967Y019890D01*
X004004Y019880D01*
X004171Y019880D01*
X004171Y020194D01*
X003876Y020194D01*
X003876Y020008D01*
X003886Y019970D01*
X003905Y019937D01*
X003933Y019909D01*
X003877Y020006D02*
X003630Y020006D01*
X003630Y020103D02*
X003876Y020103D01*
X003876Y020296D02*
X003630Y020296D01*
X003630Y020199D02*
X004171Y020199D01*
X004171Y020103D02*
X004270Y020103D01*
X004270Y020006D02*
X004171Y020006D01*
X004171Y019909D02*
X004270Y019909D01*
X004507Y019909D02*
X004575Y019909D01*
X004564Y020006D02*
X004575Y020006D01*
X004565Y020103D02*
X004575Y020103D01*
X003876Y020393D02*
X003630Y020393D01*
X003630Y020490D02*
X003879Y020490D01*
X003854Y020587D02*
X003602Y020587D01*
X003630Y020684D02*
X003827Y020684D01*
X003827Y020781D02*
X003630Y020781D01*
X003630Y020878D02*
X003827Y020878D01*
X003827Y020975D02*
X003630Y020975D01*
X003630Y021072D02*
X003827Y021072D01*
X003827Y021169D02*
X003630Y021169D01*
X003720Y021266D02*
X003881Y021266D01*
X004026Y021363D02*
X004252Y021363D01*
X004193Y021459D02*
X004351Y021459D01*
X004287Y021556D02*
X004441Y021556D01*
X004401Y021653D02*
X004327Y021653D01*
X004361Y021750D02*
X004367Y021750D01*
X004361Y021847D02*
X004367Y021847D01*
X004356Y021944D02*
X004372Y021944D01*
X004412Y022041D02*
X004316Y022041D01*
X004262Y022138D02*
X004466Y022138D01*
X004563Y022235D02*
X004165Y022235D01*
X004066Y022429D02*
X003662Y022429D01*
X003759Y022526D02*
X003969Y022526D01*
X003914Y022623D02*
X003815Y022623D01*
X003855Y022720D02*
X003874Y022720D01*
X003861Y022816D02*
X003867Y022816D01*
X003861Y022913D02*
X003867Y022913D01*
X003900Y023010D02*
X003829Y023010D01*
X003789Y023107D02*
X003940Y023107D01*
X004032Y023204D02*
X003696Y023204D01*
X003534Y023301D02*
X004060Y023301D01*
X004060Y023398D02*
X003101Y023398D01*
X003039Y023301D02*
X003195Y023301D01*
X002646Y023078D02*
X002587Y023137D01*
X002695Y022429D02*
X003066Y022429D01*
X002990Y022360D02*
X002695Y022360D01*
X002695Y022045D01*
X002862Y022045D01*
X002899Y022055D01*
X002933Y022074D01*
X002961Y022102D01*
X002980Y022136D01*
X002990Y022173D01*
X002990Y022360D01*
X002990Y022332D02*
X006287Y022332D01*
X006287Y022235D02*
X006165Y022235D01*
X006262Y022138D02*
X006287Y022138D01*
X005890Y022429D02*
X005662Y022429D01*
X005759Y022526D02*
X005867Y022526D01*
X005867Y022623D02*
X005815Y022623D01*
X005855Y022720D02*
X005867Y022720D01*
X005861Y022816D02*
X005867Y022816D01*
X005861Y022913D02*
X005867Y022913D01*
X005867Y023010D02*
X005829Y023010D01*
X005789Y023107D02*
X005867Y023107D01*
X005867Y023204D02*
X005721Y023204D01*
X005698Y023301D02*
X005953Y023301D01*
X005646Y023398D02*
X007773Y023398D01*
X007676Y023301D02*
X006775Y023301D01*
X006861Y023204D02*
X007579Y023204D01*
X007870Y023495D02*
X005549Y023495D01*
X005452Y023592D02*
X007967Y023592D01*
X008064Y023689D02*
X005402Y023689D01*
X005402Y023786D02*
X008161Y023786D01*
X008256Y023883D02*
X005402Y023883D01*
X005402Y023980D02*
X008256Y023980D01*
X008256Y024076D02*
X005402Y024076D01*
X005402Y024173D02*
X008256Y024173D01*
X008256Y024270D02*
X005402Y024270D01*
X005402Y024367D02*
X008322Y024367D01*
X008305Y024464D02*
X007209Y024464D01*
X007050Y024398D02*
X007394Y024541D01*
X007657Y024804D01*
X007799Y025147D01*
X007799Y025519D01*
X007657Y025863D01*
X007394Y026126D01*
X007050Y026269D01*
X006678Y026269D01*
X006334Y026126D01*
X006071Y025863D01*
X005929Y025519D01*
X005929Y025147D01*
X006071Y024804D01*
X006334Y024541D01*
X006678Y024398D01*
X007050Y024398D01*
X007414Y024561D02*
X008305Y024561D01*
X008305Y024702D02*
X008600Y024702D01*
X008600Y025017D01*
X008433Y025017D01*
X008396Y025007D01*
X008362Y024988D01*
X008335Y024960D01*
X008315Y024927D01*
X008305Y024889D01*
X008305Y024702D01*
X008305Y024755D02*
X007608Y024755D01*
X007677Y024852D02*
X008305Y024852D01*
X008328Y024949D02*
X007717Y024949D01*
X007757Y025046D02*
X009982Y025046D01*
X009905Y024949D02*
X008971Y024949D01*
X008994Y024852D02*
X009865Y024852D01*
X009846Y024755D02*
X008994Y024755D01*
X008699Y024755D02*
X008600Y024755D01*
X008600Y024852D02*
X008699Y024852D01*
X008699Y024949D02*
X008600Y024949D01*
X008600Y024658D02*
X007511Y024658D01*
X007797Y025143D02*
X010079Y025143D01*
X010176Y025240D02*
X007799Y025240D01*
X007799Y025337D02*
X010273Y025337D01*
X010320Y025433D02*
X007799Y025433D01*
X007795Y025530D02*
X010320Y025530D01*
X010320Y025627D02*
X007755Y025627D01*
X007714Y025724D02*
X010320Y025724D01*
X010320Y025821D02*
X007674Y025821D01*
X007602Y025918D02*
X010320Y025918D01*
X010320Y026015D02*
X007505Y026015D01*
X007408Y026112D02*
X010320Y026112D01*
X010320Y026209D02*
X007194Y026209D01*
X007115Y026787D02*
X006933Y026862D01*
X006793Y027002D01*
X006717Y027185D01*
X006717Y027382D01*
X006793Y027565D01*
X006933Y027705D01*
X007115Y027780D01*
X007313Y027780D01*
X007496Y027705D01*
X007635Y027565D01*
X007711Y027382D01*
X007711Y027185D01*
X007635Y027002D01*
X007496Y026862D01*
X007313Y026787D01*
X007115Y026787D01*
X007106Y026790D02*
X002122Y026790D01*
X002113Y026787D02*
X002296Y026862D01*
X002435Y027002D01*
X002511Y027185D01*
X002511Y027382D01*
X002435Y027565D01*
X002296Y027705D01*
X002113Y027780D01*
X001915Y027780D01*
X001733Y027705D01*
X001593Y027565D01*
X001517Y027382D01*
X001517Y027185D01*
X001593Y027002D01*
X001733Y026862D01*
X001915Y026787D01*
X002113Y026787D01*
X001906Y026790D02*
X000923Y026790D01*
X000923Y026693D02*
X010320Y026693D01*
X010320Y026597D02*
X000923Y026597D01*
X000923Y026500D02*
X010320Y026500D01*
X010320Y026403D02*
X000923Y026403D01*
X000923Y026306D02*
X010320Y026306D01*
X010320Y026790D02*
X007322Y026790D01*
X007521Y026887D02*
X010320Y026887D01*
X010320Y026984D02*
X007618Y026984D01*
X007668Y027081D02*
X010320Y027081D01*
X010320Y027178D02*
X007708Y027178D01*
X007711Y027275D02*
X010320Y027275D01*
X010320Y027372D02*
X007711Y027372D01*
X007675Y027469D02*
X010320Y027469D01*
X010320Y027566D02*
X007634Y027566D01*
X007538Y027663D02*
X010320Y027663D01*
X010320Y027760D02*
X007363Y027760D01*
X007065Y027760D02*
X002163Y027760D01*
X002338Y027663D02*
X006891Y027663D01*
X006794Y027566D02*
X002434Y027566D01*
X002475Y027469D02*
X006753Y027469D01*
X006717Y027372D02*
X002511Y027372D01*
X002511Y027275D02*
X006717Y027275D01*
X006720Y027178D02*
X002508Y027178D01*
X002468Y027081D02*
X006760Y027081D01*
X006811Y026984D02*
X002418Y026984D01*
X002321Y026887D02*
X006908Y026887D01*
X006534Y026209D02*
X002694Y026209D01*
X002550Y026269D02*
X002178Y026269D01*
X001834Y026126D01*
X001571Y025863D01*
X001429Y025519D01*
X001429Y025147D01*
X001571Y024804D01*
X001834Y024541D01*
X002178Y024398D01*
X002550Y024398D01*
X002894Y024541D01*
X003157Y024804D01*
X003299Y025147D01*
X003299Y025519D01*
X003157Y025863D01*
X002894Y026126D01*
X002550Y026269D01*
X002908Y026112D02*
X006320Y026112D01*
X006223Y026015D02*
X003005Y026015D01*
X003102Y025918D02*
X006126Y025918D01*
X006054Y025821D02*
X003174Y025821D01*
X003214Y025724D02*
X006014Y025724D01*
X005974Y025627D02*
X003255Y025627D01*
X003295Y025530D02*
X005934Y025530D01*
X005929Y025433D02*
X003299Y025433D01*
X003299Y025337D02*
X005929Y025337D01*
X005929Y025240D02*
X003299Y025240D01*
X003297Y025143D02*
X005931Y025143D01*
X005971Y025046D02*
X003257Y025046D01*
X003217Y024949D02*
X006011Y024949D01*
X006052Y024852D02*
X005304Y024852D01*
X005401Y024755D02*
X006120Y024755D01*
X006217Y024658D02*
X005402Y024658D01*
X005402Y024561D02*
X006314Y024561D01*
X006519Y024464D02*
X005402Y024464D01*
X004712Y024852D02*
X003177Y024852D01*
X003108Y024755D02*
X004024Y024755D01*
X003972Y024658D02*
X003011Y024658D01*
X002914Y024561D02*
X003875Y024561D01*
X003778Y024464D02*
X002709Y024464D01*
X002712Y024367D02*
X000923Y024367D01*
X000923Y024270D02*
X002603Y024270D01*
X002514Y024173D02*
X000923Y024173D01*
X000923Y024076D02*
X002426Y024076D01*
X002337Y023980D02*
X000923Y023980D01*
X000923Y023883D02*
X002248Y023883D01*
X002159Y023786D02*
X000923Y023786D01*
X000923Y023689D02*
X002070Y023689D01*
X001981Y023592D02*
X000923Y023592D01*
X000923Y023495D02*
X001892Y023495D01*
X001804Y023398D02*
X000923Y023398D01*
X000923Y023301D02*
X001715Y023301D01*
X001626Y023204D02*
X000923Y023204D01*
X000923Y023107D02*
X001535Y023107D01*
X001489Y023010D02*
X000923Y023010D01*
X000923Y022913D02*
X001483Y022913D01*
X001483Y022816D02*
X000923Y022816D01*
X000923Y022720D02*
X001483Y022720D01*
X001483Y022623D02*
X000923Y022623D01*
X000923Y022526D02*
X001483Y022526D01*
X001483Y022429D02*
X000923Y022429D01*
X000923Y022332D02*
X001483Y022332D01*
X001483Y022235D02*
X000923Y022235D01*
X000923Y022138D02*
X001483Y022138D01*
X001483Y022041D02*
X000923Y022041D01*
X000923Y021944D02*
X001483Y021944D01*
X001483Y021847D02*
X000923Y021847D01*
X000923Y021750D02*
X001483Y021750D01*
X001483Y021653D02*
X000923Y021653D01*
X000923Y021556D02*
X001483Y021556D01*
X001483Y021459D02*
X000923Y021459D01*
X000923Y021363D02*
X001483Y021363D01*
X001483Y021266D02*
X000923Y021266D01*
X000923Y021169D02*
X001483Y021169D01*
X001483Y021072D02*
X000923Y021072D01*
X000923Y020975D02*
X001483Y020975D01*
X001483Y020878D02*
X000923Y020878D01*
X000923Y020781D02*
X001483Y020781D01*
X001483Y020684D02*
X000923Y020684D01*
X000923Y020587D02*
X001483Y020587D01*
X001483Y020490D02*
X000923Y020490D01*
X000923Y020393D02*
X001483Y020393D01*
X001483Y020296D02*
X000923Y020296D01*
X000923Y020199D02*
X001495Y020199D01*
X001549Y020103D02*
X000923Y020103D01*
X000923Y020006D02*
X001646Y020006D01*
X001743Y019909D02*
X000923Y019909D01*
X000923Y019812D02*
X001840Y019812D01*
X001937Y019715D02*
X000923Y019715D01*
X000923Y019618D02*
X002033Y019618D01*
X002130Y019521D02*
X000923Y019521D01*
X002453Y021556D02*
X002984Y021556D01*
X002914Y021459D02*
X002550Y021459D01*
X002647Y021363D02*
X002879Y021363D01*
X003088Y021653D02*
X002430Y021653D01*
X002430Y021750D02*
X003193Y021750D01*
X003298Y021847D02*
X002430Y021847D01*
X002430Y021944D02*
X003372Y021944D01*
X003412Y022041D02*
X002430Y022041D01*
X002596Y022138D02*
X002695Y022138D01*
X002695Y022235D02*
X002596Y022235D01*
X002596Y022332D02*
X002695Y022332D01*
X002990Y022235D02*
X003563Y022235D01*
X003466Y022138D02*
X002981Y022138D01*
X002646Y020244D02*
X002587Y020244D01*
X004662Y022429D02*
X005066Y022429D01*
X004969Y022526D02*
X004759Y022526D01*
X004815Y022623D02*
X004914Y022623D01*
X004874Y022720D02*
X004855Y022720D01*
X004861Y022816D02*
X004867Y022816D01*
X004861Y022913D02*
X004867Y022913D01*
X004900Y023010D02*
X004829Y023010D01*
X004789Y023107D02*
X004927Y023107D01*
X004830Y023204D02*
X004774Y023204D01*
X004358Y023728D02*
X004417Y023787D01*
X005165Y022235D02*
X005563Y022235D01*
X005466Y022138D02*
X005262Y022138D01*
X005316Y022041D02*
X005412Y022041D01*
X005372Y021944D02*
X005356Y021944D01*
X005361Y021847D02*
X005367Y021847D01*
X002019Y024464D02*
X000923Y024464D01*
X000923Y024561D02*
X001814Y024561D01*
X001717Y024658D02*
X000923Y024658D01*
X000923Y024755D02*
X001620Y024755D01*
X001552Y024852D02*
X000923Y024852D01*
X000923Y024949D02*
X001511Y024949D01*
X001471Y025046D02*
X000923Y025046D01*
X000923Y025143D02*
X001431Y025143D01*
X001429Y025240D02*
X000923Y025240D01*
X000923Y025337D02*
X001429Y025337D01*
X001429Y025433D02*
X000923Y025433D01*
X000923Y025530D02*
X001434Y025530D01*
X001474Y025627D02*
X000923Y025627D01*
X000923Y025724D02*
X001514Y025724D01*
X001554Y025821D02*
X000923Y025821D01*
X000923Y025918D02*
X001626Y025918D01*
X001723Y026015D02*
X000923Y026015D01*
X000923Y026112D02*
X001820Y026112D01*
X002034Y026209D02*
X000923Y026209D01*
X000923Y026887D02*
X001708Y026887D01*
X001611Y026984D02*
X000923Y026984D01*
X000923Y027081D02*
X001560Y027081D01*
X001520Y027178D02*
X000923Y027178D01*
X000923Y027275D02*
X001517Y027275D01*
X001517Y027372D02*
X000923Y027372D01*
X000923Y027469D02*
X001553Y027469D01*
X001594Y027566D02*
X000923Y027566D01*
X000923Y027663D02*
X001691Y027663D01*
X001865Y027760D02*
X000923Y027760D01*
X000923Y027857D02*
X010320Y027857D01*
X010320Y027954D02*
X000923Y027954D01*
X000923Y028050D02*
X010320Y028050D01*
X010320Y028147D02*
X008388Y028147D01*
X008409Y028168D02*
X008447Y028260D01*
X008447Y028951D01*
X008409Y029044D01*
X008338Y029115D01*
X008245Y029153D01*
X007850Y029153D01*
X007811Y029137D01*
X007757Y029115D01*
X007755Y029112D01*
X007687Y029044D01*
X007687Y029044D01*
X007591Y028948D01*
X007588Y028945D01*
X007579Y028924D01*
X007502Y028956D01*
X007205Y028956D01*
X007158Y028936D01*
X007158Y028951D01*
X007120Y029044D01*
X007049Y029115D01*
X006956Y029153D01*
X006856Y029153D01*
X006764Y029115D01*
X006709Y029060D01*
X006655Y029115D01*
X006563Y029153D01*
X006462Y029153D01*
X006370Y029115D01*
X006299Y029044D01*
X006261Y028951D01*
X006261Y028936D01*
X006213Y028956D01*
X005916Y028956D01*
X005824Y028918D01*
X005792Y028886D01*
X005760Y028918D01*
X005667Y028956D01*
X005567Y028956D01*
X005519Y028936D01*
X005470Y028956D01*
X005283Y028956D01*
X005195Y029044D01*
X005127Y029112D01*
X005124Y029115D01*
X005071Y029137D01*
X005032Y029153D01*
X004735Y029153D01*
X004697Y029137D01*
X004642Y029115D01*
X004610Y029083D01*
X004578Y029115D01*
X004486Y029153D01*
X003992Y029153D01*
X003899Y029115D01*
X003828Y029044D01*
X003790Y028951D01*
X003790Y028851D01*
X003828Y028758D01*
X003899Y028688D01*
X003987Y028651D01*
X003987Y028560D01*
X003899Y028524D01*
X003828Y028453D01*
X003790Y028361D01*
X003790Y028260D01*
X003828Y028168D01*
X003899Y028097D01*
X003992Y028059D01*
X004486Y028059D01*
X004578Y028097D01*
X004610Y028129D01*
X004642Y028097D01*
X004735Y028059D01*
X005032Y028059D01*
X005124Y028097D01*
X005294Y028266D01*
X005332Y028359D01*
X005332Y028436D01*
X005365Y028403D01*
X005365Y028260D01*
X005404Y028168D01*
X005474Y028097D01*
X005567Y028059D01*
X005667Y028059D01*
X005760Y028097D01*
X005792Y028129D01*
X005824Y028097D01*
X005916Y028059D01*
X006213Y028059D01*
X006306Y028097D01*
X006404Y028195D01*
X006404Y028195D01*
X006436Y028227D01*
X006567Y028097D01*
X006659Y028059D01*
X006759Y028059D01*
X006852Y028097D01*
X006923Y028168D01*
X007007Y028252D01*
X007042Y028168D01*
X007113Y028097D01*
X007205Y028059D01*
X007502Y028059D01*
X007595Y028097D01*
X007627Y028129D01*
X007659Y028097D01*
X007752Y028059D01*
X007852Y028059D01*
X007944Y028097D01*
X007998Y028151D01*
X008053Y028097D01*
X008145Y028059D01*
X008245Y028059D01*
X008338Y028097D01*
X008409Y028168D01*
X008440Y028244D02*
X010320Y028244D01*
X010320Y028341D02*
X008447Y028341D01*
X008447Y028438D02*
X010320Y028438D01*
X010321Y028535D02*
X008447Y028535D01*
X008447Y028632D02*
X010361Y028632D01*
X010432Y028729D02*
X008447Y028729D01*
X008447Y028826D02*
X010529Y028826D01*
X010626Y028923D02*
X008447Y028923D01*
X008419Y029020D02*
X010723Y029020D01*
X010820Y029117D02*
X008333Y029117D01*
X007762Y029117D02*
X007044Y029117D01*
X007130Y029020D02*
X007663Y029020D01*
X007588Y028945D02*
X007588Y028945D01*
X007757Y029115D02*
X007757Y029115D01*
X007995Y028147D02*
X008002Y028147D01*
X007063Y028147D02*
X006902Y028147D01*
X006999Y028244D02*
X007010Y028244D01*
X006516Y028147D02*
X006356Y028147D01*
X006289Y029020D02*
X005219Y029020D01*
X005195Y029044D02*
X005195Y029044D01*
X005124Y029115D02*
X005124Y029115D01*
X005119Y029117D02*
X006375Y029117D01*
X006650Y029117D02*
X006769Y029117D01*
X005836Y028923D02*
X005748Y028923D01*
X005365Y028341D02*
X005325Y028341D01*
X005372Y028244D02*
X005272Y028244D01*
X005175Y028147D02*
X005424Y028147D01*
X004647Y029117D02*
X004573Y029117D01*
X003904Y029117D02*
X003284Y029117D01*
X003289Y029115D02*
X003196Y029153D01*
X003096Y029153D01*
X003004Y029115D01*
X002950Y029060D01*
X002895Y029115D01*
X002803Y029153D01*
X002703Y029153D01*
X002610Y029115D01*
X002539Y029044D01*
X002533Y029029D01*
X002518Y029044D01*
X002448Y029115D01*
X002381Y029142D01*
X002355Y029153D01*
X002255Y029153D01*
X002162Y029115D01*
X002091Y029044D01*
X002064Y028977D01*
X002053Y028951D01*
X002053Y028766D01*
X002000Y028819D01*
X001845Y028974D01*
X001818Y029005D01*
X001810Y029010D01*
X001803Y029016D01*
X001765Y029032D01*
X001531Y029149D01*
X001431Y029156D01*
X001336Y029124D01*
X001261Y029058D01*
X001216Y028969D01*
X001209Y028869D01*
X001240Y028774D01*
X001302Y028702D01*
X001250Y028650D01*
X001227Y028595D01*
X001212Y028557D01*
X001212Y028359D01*
X001250Y028266D01*
X001321Y028195D01*
X001419Y028097D01*
X001512Y028059D01*
X001809Y028059D01*
X001901Y028097D01*
X001933Y028129D01*
X001965Y028097D01*
X002058Y028059D01*
X002552Y028059D01*
X002644Y028097D01*
X002676Y028129D01*
X002708Y028097D01*
X002801Y028059D01*
X003098Y028059D01*
X003191Y028097D01*
X003261Y028168D01*
X003360Y028266D01*
X003398Y028359D01*
X003398Y028951D01*
X003360Y029044D01*
X003289Y029115D01*
X003370Y029020D02*
X003818Y029020D01*
X003790Y028923D02*
X003398Y028923D01*
X003398Y028826D02*
X003800Y028826D01*
X003858Y028729D02*
X003398Y028729D01*
X003398Y028632D02*
X003987Y028632D01*
X003926Y028535D02*
X003398Y028535D01*
X003398Y028438D02*
X003822Y028438D01*
X003790Y028341D02*
X003391Y028341D01*
X003338Y028244D02*
X003797Y028244D01*
X003849Y028147D02*
X003241Y028147D01*
X003009Y029117D02*
X002890Y029117D01*
X002615Y029117D02*
X002443Y029117D01*
X002518Y029044D02*
X002518Y029044D01*
X002167Y029117D02*
X001596Y029117D01*
X001794Y029020D02*
X002082Y029020D01*
X002053Y028923D02*
X001896Y028923D01*
X001993Y028826D02*
X002053Y028826D01*
X002000Y028819D02*
X002000Y028819D01*
X001279Y028729D02*
X000923Y028729D01*
X000923Y028826D02*
X001223Y028826D01*
X001213Y028923D02*
X000923Y028923D01*
X000923Y029020D02*
X001241Y029020D01*
X001328Y029117D02*
X000923Y029117D01*
X000923Y029214D02*
X010916Y029214D01*
X011013Y029310D02*
X000923Y029310D01*
X000923Y028632D02*
X001243Y028632D01*
X001212Y028535D02*
X000923Y028535D01*
X000923Y028438D02*
X001212Y028438D01*
X001219Y028341D02*
X000923Y028341D01*
X000923Y028244D02*
X001272Y028244D01*
X001369Y028147D02*
X000923Y028147D01*
X005815Y017582D02*
X005854Y017543D01*
X005854Y017399D01*
X005835Y017399D01*
X005835Y016956D01*
X005835Y016513D01*
X005835Y016956D01*
X005835Y016956D01*
X005835Y016956D01*
X005835Y017399D01*
X005815Y017399D01*
X005815Y017582D01*
X005815Y017486D02*
X005854Y017486D01*
X005835Y017389D02*
X005835Y017389D01*
X005835Y017292D02*
X005835Y017292D01*
X005835Y017195D02*
X005835Y017195D01*
X005835Y017098D02*
X005835Y017098D01*
X005835Y017001D02*
X005835Y017001D01*
X005835Y016904D02*
X005835Y016904D01*
X005835Y016807D02*
X005835Y016807D01*
X005835Y016710D02*
X005835Y016710D01*
X005835Y016613D02*
X005835Y016613D01*
X005835Y016516D02*
X005835Y016516D01*
X005780Y016419D02*
X006996Y016419D01*
X006996Y016322D02*
X005697Y016322D01*
X005600Y016226D02*
X006996Y016226D01*
X006996Y016129D02*
X005503Y016129D01*
X005652Y015741D02*
X005742Y015741D01*
X005992Y015460D02*
X006150Y015303D01*
X006150Y012389D01*
X006465Y012389D02*
X006465Y013177D01*
X006583Y013295D01*
X007075Y012736D02*
X008862Y012736D01*
X008862Y012639D02*
X007075Y012639D01*
X007075Y012542D02*
X008862Y012542D01*
X008862Y012445D02*
X007075Y012445D01*
X007075Y012349D02*
X008862Y012349D01*
X008862Y012252D02*
X007075Y012252D01*
X007075Y012155D02*
X008862Y012155D01*
X008862Y012058D02*
X007075Y012058D01*
X007026Y011961D02*
X008862Y011961D01*
X008862Y011864D02*
X007024Y011864D01*
X006978Y011767D02*
X008862Y011767D01*
X008862Y011670D02*
X006881Y011670D01*
X006784Y011573D02*
X008862Y011573D01*
X008006Y011476D02*
X006761Y011476D01*
X006732Y011379D02*
X007909Y011379D01*
X007900Y011282D02*
X006676Y011282D01*
X006551Y011185D02*
X007900Y011185D01*
X007900Y011088D02*
X006390Y011088D01*
X006327Y011464D02*
X006386Y011523D01*
X006779Y011917D01*
X006779Y012389D01*
X007488Y012930D02*
X007488Y012930D01*
X007488Y013027D02*
X007488Y013027D01*
X007488Y013124D02*
X007488Y013124D01*
X007488Y013221D02*
X007488Y013221D01*
X007488Y013318D02*
X007488Y013318D01*
X007944Y013512D02*
X008561Y013512D01*
X008561Y013609D02*
X008659Y013609D01*
X008659Y013705D02*
X008561Y013705D01*
X008561Y013802D02*
X008659Y013802D01*
X008659Y013415D02*
X008561Y013415D01*
X008561Y013318D02*
X008659Y013318D01*
X008659Y013221D02*
X008561Y013221D01*
X009279Y013492D02*
X009339Y013492D01*
X009339Y013689D01*
X009815Y013836D02*
X009815Y014043D01*
X010352Y014043D01*
X010320Y013964D01*
X010320Y013846D01*
X010286Y013812D01*
X010262Y013826D01*
X010224Y013836D01*
X010037Y013836D01*
X010037Y013541D01*
X009939Y013541D01*
X009939Y013836D01*
X009815Y013836D01*
X009815Y013899D02*
X010320Y013899D01*
X010333Y013996D02*
X009815Y013996D01*
X009939Y013802D02*
X010037Y013802D01*
X010037Y013705D02*
X009939Y013705D01*
X009939Y013609D02*
X010037Y013609D01*
X010037Y013443D02*
X010037Y013147D01*
X010224Y013147D01*
X010262Y013157D01*
X010286Y013171D01*
X010359Y013098D01*
X010368Y013098D01*
X010380Y013070D01*
X010492Y012958D01*
X010689Y012762D01*
X011082Y012368D01*
X011228Y012307D01*
X011386Y012307D01*
X011532Y012368D01*
X011599Y012435D01*
X011599Y011740D01*
X011660Y011594D01*
X011771Y011482D01*
X011860Y011393D01*
X011837Y011371D01*
X011837Y009707D01*
X011953Y009592D01*
X012906Y009592D01*
X013021Y009707D01*
X013021Y011371D01*
X012906Y011486D01*
X012852Y011486D01*
X012825Y011551D01*
X012508Y011868D01*
X012590Y011834D01*
X014415Y011834D01*
X014396Y011815D01*
X014377Y011781D01*
X014367Y011743D01*
X014367Y011478D01*
X014860Y011478D01*
X014860Y011380D01*
X014367Y011380D01*
X014367Y011115D01*
X014377Y011077D01*
X014396Y011043D01*
X014424Y011016D01*
X014426Y011014D01*
X014317Y010906D01*
X014317Y010152D01*
X014391Y010079D01*
X014317Y010006D01*
X014317Y009441D01*
X011898Y009441D01*
X011577Y009762D01*
X011564Y009768D01*
X011564Y010006D01*
X011491Y010079D01*
X011564Y010152D01*
X011564Y010906D01*
X011455Y011014D01*
X011458Y011016D01*
X011485Y011043D01*
X011505Y011077D01*
X011515Y011115D01*
X011515Y011380D01*
X011021Y011380D01*
X011021Y011478D01*
X010923Y011478D01*
X010923Y011380D01*
X010430Y011380D01*
X010430Y011115D01*
X010440Y011077D01*
X010459Y011043D01*
X010487Y011016D01*
X009815Y011016D01*
X009815Y013147D01*
X009939Y013147D01*
X009939Y013443D01*
X010037Y013443D01*
X010037Y013415D02*
X009939Y013415D01*
X009939Y013318D02*
X010037Y013318D01*
X010037Y013221D02*
X009939Y013221D01*
X009815Y013124D02*
X010333Y013124D01*
X010423Y013027D02*
X009815Y013027D01*
X009815Y012930D02*
X010520Y012930D01*
X010617Y012833D02*
X009815Y012833D01*
X009815Y012736D02*
X010714Y012736D01*
X010811Y012639D02*
X009815Y012639D01*
X009815Y012542D02*
X010908Y012542D01*
X011005Y012445D02*
X009815Y012445D01*
X009815Y012349D02*
X011129Y012349D01*
X011485Y012349D02*
X011599Y012349D01*
X011599Y012252D02*
X009815Y012252D01*
X009815Y012155D02*
X011599Y012155D01*
X011599Y012058D02*
X009815Y012058D01*
X009815Y011961D02*
X011599Y011961D01*
X011599Y011864D02*
X011416Y011864D01*
X011424Y011862D02*
X011387Y011872D01*
X011021Y011872D01*
X011021Y011478D01*
X011515Y011478D01*
X011515Y011743D01*
X011505Y011781D01*
X011485Y011815D01*
X011458Y011842D01*
X011424Y011862D01*
X011509Y011767D02*
X011599Y011767D01*
X011628Y011670D02*
X011515Y011670D01*
X011515Y011573D02*
X011680Y011573D01*
X011777Y011476D02*
X011021Y011476D01*
X011021Y011573D02*
X010923Y011573D01*
X010923Y011478D02*
X010923Y011872D01*
X010558Y011872D01*
X010520Y011862D01*
X010487Y011842D01*
X010459Y011815D01*
X010440Y011781D01*
X010430Y011743D01*
X010430Y011478D01*
X010923Y011478D01*
X010923Y011476D02*
X009815Y011476D01*
X009815Y011379D02*
X010430Y011379D01*
X010430Y011282D02*
X009815Y011282D01*
X009815Y011185D02*
X010430Y011185D01*
X010437Y011088D02*
X009815Y011088D01*
X009815Y011573D02*
X010430Y011573D01*
X010430Y011670D02*
X009815Y011670D01*
X009815Y011767D02*
X010436Y011767D01*
X010529Y011864D02*
X009815Y011864D01*
X010487Y011016D02*
X010487Y011016D01*
X010923Y011670D02*
X011021Y011670D01*
X011021Y011767D02*
X010923Y011767D01*
X010923Y011864D02*
X011021Y011864D01*
X011515Y011379D02*
X011846Y011379D01*
X011837Y011282D02*
X011515Y011282D01*
X011515Y011185D02*
X011837Y011185D01*
X011837Y011088D02*
X011508Y011088D01*
X011478Y010992D02*
X011837Y010992D01*
X011837Y010895D02*
X011564Y010895D01*
X011564Y010798D02*
X011837Y010798D01*
X011837Y010701D02*
X011564Y010701D01*
X011564Y010604D02*
X011837Y010604D01*
X011837Y010507D02*
X011564Y010507D01*
X011564Y010410D02*
X011837Y010410D01*
X011837Y010313D02*
X011564Y010313D01*
X011564Y010216D02*
X011837Y010216D01*
X011837Y010119D02*
X011531Y010119D01*
X011547Y010022D02*
X011837Y010022D01*
X011837Y009925D02*
X011564Y009925D01*
X011564Y009828D02*
X011837Y009828D01*
X011837Y009732D02*
X011608Y009732D01*
X011705Y009635D02*
X011910Y009635D01*
X011802Y009538D02*
X014317Y009538D01*
X014317Y009635D02*
X012948Y009635D01*
X013021Y009732D02*
X014317Y009732D01*
X014317Y009828D02*
X013021Y009828D01*
X013021Y009925D02*
X014317Y009925D01*
X014334Y010022D02*
X013021Y010022D01*
X013021Y010119D02*
X014351Y010119D01*
X014317Y010216D02*
X013021Y010216D01*
X013021Y010313D02*
X014317Y010313D01*
X014317Y010410D02*
X013021Y010410D01*
X013021Y010507D02*
X014317Y010507D01*
X014317Y010604D02*
X013021Y010604D01*
X013021Y010701D02*
X014317Y010701D01*
X014317Y010798D02*
X013021Y010798D01*
X013021Y010895D02*
X014317Y010895D01*
X014403Y010992D02*
X013021Y010992D01*
X013021Y011088D02*
X014374Y011088D01*
X014367Y011185D02*
X013021Y011185D01*
X013021Y011282D02*
X014367Y011282D01*
X014367Y011379D02*
X013012Y011379D01*
X012915Y011476D02*
X014860Y011476D01*
X014367Y011573D02*
X012803Y011573D01*
X012706Y011670D02*
X014367Y011670D01*
X014373Y011767D02*
X012609Y011767D01*
X012517Y011864D02*
X012512Y011864D01*
X012144Y013836D02*
X012144Y013877D01*
X012211Y013944D01*
X012685Y014476D02*
X012764Y014555D01*
X013079Y014673D02*
X013472Y014279D01*
X013079Y014673D02*
X013079Y014897D01*
X013848Y015644D02*
X013885Y015644D01*
X013888Y015741D02*
X013844Y015741D01*
X013804Y015838D02*
X013928Y015838D01*
X014007Y015935D02*
X013725Y015935D01*
X014024Y014897D02*
X014024Y014712D01*
X014260Y014476D01*
X014260Y014279D01*
X014339Y014693D02*
X014339Y014897D01*
X015441Y013689D02*
X015598Y013728D01*
X018394Y014476D02*
X018433Y014515D01*
X018433Y014897D01*
X020953Y013885D02*
X020992Y013885D01*
X021295Y011864D02*
X022478Y011864D01*
X022478Y011767D02*
X021411Y011767D01*
X021480Y011670D02*
X022478Y011670D01*
X022478Y011573D02*
X021520Y011573D01*
X021533Y011476D02*
X022478Y011476D01*
X022478Y011379D02*
X021533Y011379D01*
X021503Y011282D02*
X022478Y011282D01*
X022478Y011185D02*
X021463Y011185D01*
X021369Y011088D02*
X022478Y011088D01*
X022478Y010992D02*
X021195Y010992D01*
X021220Y010895D02*
X022478Y010895D01*
X022478Y010798D02*
X021380Y010798D01*
X021468Y010701D02*
X022478Y010701D01*
X022478Y010604D02*
X021508Y010604D01*
X021533Y010507D02*
X022478Y010507D01*
X022478Y010410D02*
X021533Y010410D01*
X021516Y010313D02*
X022478Y010313D01*
X022478Y010216D02*
X021476Y010216D01*
X021400Y010119D02*
X022478Y010119D01*
X022478Y010022D02*
X021269Y010022D01*
X021349Y009828D02*
X022478Y009828D01*
X022478Y009732D02*
X021446Y009732D01*
X021495Y009635D02*
X022478Y009635D01*
X022478Y009538D02*
X021533Y009538D01*
X021533Y009441D02*
X022478Y009441D01*
X022478Y009344D02*
X021529Y009344D01*
X021489Y009247D02*
X022478Y009247D01*
X022478Y009150D02*
X021431Y009150D01*
X021334Y009053D02*
X022478Y009053D01*
X022478Y009925D02*
X015501Y009925D01*
X016938Y009828D02*
X016961Y009828D01*
X017399Y008640D02*
X017399Y008570D01*
X017468Y008570D01*
X017389Y008084D02*
X017668Y008084D01*
X017571Y007987D02*
X017486Y007987D01*
X017770Y008181D02*
X019000Y008181D01*
X018904Y008084D02*
X018726Y008084D01*
X018467Y008278D02*
X019213Y008278D01*
X019582Y008375D02*
X018502Y008375D01*
X018502Y008471D02*
X019582Y008471D01*
X019593Y008568D02*
X018187Y008568D01*
X018187Y008471D02*
X018089Y008471D01*
X018089Y008375D02*
X018187Y008375D01*
X018187Y008278D02*
X018089Y008278D01*
X018502Y008665D02*
X019633Y008665D01*
X019698Y008762D02*
X018636Y008762D01*
X018735Y008859D02*
X019805Y008859D01*
X020536Y007793D02*
X022478Y007793D01*
X022478Y007696D02*
X020514Y007696D01*
X020544Y007599D02*
X022478Y007599D01*
X022478Y007502D02*
X020562Y007502D01*
X020562Y007405D02*
X022478Y007405D01*
X022478Y007308D02*
X020562Y007308D01*
X020562Y007211D02*
X022478Y007211D01*
X022478Y007115D02*
X020542Y007115D01*
X020502Y007018D02*
X022478Y007018D01*
X022478Y006921D02*
X020462Y006921D01*
X020422Y006824D02*
X022478Y006824D01*
X022478Y006727D02*
X020339Y006727D01*
X020242Y006630D02*
X022478Y006630D01*
X022478Y006533D02*
X020145Y006533D01*
X019928Y006436D02*
X022478Y006436D01*
X022478Y006339D02*
X016899Y006339D01*
X016287Y005815D02*
X016031Y005815D01*
X015798Y005581D01*
X015289Y005581D01*
X015776Y005951D02*
X015820Y005951D01*
X015776Y006048D02*
X015874Y006048D01*
X015926Y006145D02*
X015776Y006145D01*
X015776Y006242D02*
X015931Y006242D01*
X015945Y006339D02*
X015776Y006339D01*
X015727Y006436D02*
X015951Y006436D01*
X015727Y006521D02*
X015289Y006521D01*
X015289Y006521D01*
X015289Y006759D01*
X015599Y006759D01*
X015636Y006748D01*
X015670Y006729D01*
X015697Y006702D01*
X015717Y006668D01*
X015727Y006630D01*
X015672Y006727D02*
X016111Y006727D01*
X015289Y006727D02*
X015289Y006727D01*
X015289Y006630D02*
X015289Y006630D01*
X015289Y006533D02*
X015289Y006533D01*
X015289Y006521D02*
X015289Y006521D01*
X014852Y006533D02*
X013933Y006533D01*
X013829Y007041D02*
X013829Y007426D01*
X013472Y007783D01*
X013097Y007793D02*
X012667Y007793D01*
X012661Y007696D02*
X013102Y007696D01*
X013142Y007599D02*
X012621Y007599D01*
X012653Y007890D02*
X013110Y007890D01*
X013151Y007987D02*
X012613Y007987D01*
X012521Y008084D02*
X013242Y008084D01*
X013223Y007502D02*
X013076Y007502D01*
X013199Y007479D02*
X013199Y007041D01*
X013199Y007041D01*
X013199Y007479D01*
X013199Y007405D02*
X013199Y007405D01*
X013199Y007308D02*
X013199Y007308D01*
X013199Y007211D02*
X013199Y007211D01*
X013199Y007115D02*
X013199Y007115D01*
X012882Y006405D02*
X012685Y006208D01*
X012052Y006208D01*
X012049Y006211D01*
X012049Y006521D02*
X012094Y006566D01*
X012094Y007586D01*
X012291Y007783D01*
X012061Y008084D02*
X008601Y008084D01*
X008561Y007987D02*
X011970Y007987D01*
X011929Y007890D02*
X008466Y007890D01*
X008289Y007793D02*
X011916Y007793D01*
X011874Y007696D02*
X011633Y007696D01*
X011661Y007599D02*
X011848Y007599D01*
X011848Y007502D02*
X011661Y007502D01*
X011661Y007405D02*
X011848Y007405D01*
X011848Y007308D02*
X011661Y007308D01*
X011661Y007211D02*
X011848Y007211D01*
X011848Y007115D02*
X011664Y007115D01*
X011682Y007018D02*
X011848Y007018D01*
X011848Y006921D02*
X011682Y006921D01*
X011642Y006824D02*
X011848Y006824D01*
X011597Y006727D02*
X011584Y006727D01*
X011030Y006727D02*
X008862Y006727D01*
X008886Y006630D02*
X011030Y006630D01*
X011030Y006533D02*
X008968Y006533D01*
X009065Y006436D02*
X011030Y006436D01*
X011030Y006339D02*
X009162Y006339D01*
X009259Y006242D02*
X011030Y006242D01*
X011033Y006145D02*
X009356Y006145D01*
X009453Y006048D02*
X011075Y006048D01*
X011172Y005951D02*
X009550Y005951D01*
X009647Y005855D02*
X011269Y005855D01*
X011197Y005758D02*
X009744Y005758D01*
X009840Y005661D02*
X011100Y005661D01*
X011004Y005564D02*
X009937Y005564D01*
X009929Y005224D02*
X008748Y006405D01*
X008492Y006405D01*
X008463Y006824D02*
X010972Y006824D01*
X010932Y006921D02*
X008560Y006921D01*
X008600Y007018D02*
X010928Y007018D01*
X010628Y007115D02*
X010530Y007115D01*
X010530Y007211D02*
X010628Y007211D01*
X010628Y007308D02*
X010530Y007308D01*
X010529Y007405D02*
X008581Y007405D01*
X008621Y007308D02*
X010215Y007308D01*
X010215Y007211D02*
X008631Y007211D01*
X008631Y007115D02*
X010237Y007115D01*
X010215Y007502D02*
X008514Y007502D01*
X008405Y007599D02*
X010215Y007599D01*
X010263Y007696D02*
X007155Y007696D01*
X007155Y007793D02*
X007239Y007793D01*
X007502Y007793D02*
X008026Y007793D01*
X007849Y007890D02*
X007679Y007890D01*
X007618Y007599D02*
X007910Y007599D01*
X007801Y007502D02*
X007727Y007502D01*
X007724Y008568D02*
X007804Y008568D01*
X007918Y008665D02*
X007610Y008665D01*
X007155Y008762D02*
X011228Y008762D01*
X011131Y008859D02*
X007155Y008859D01*
X007163Y008956D02*
X011034Y008956D01*
X011325Y008665D02*
X008397Y008665D01*
X008511Y008568D02*
X011422Y008568D01*
X010628Y007696D02*
X010530Y007696D01*
X010530Y007599D02*
X010628Y007599D01*
X010628Y007502D02*
X010530Y007502D01*
X011248Y007389D02*
X011248Y007330D01*
X011307Y007330D01*
X011307Y007389D02*
X011248Y007389D01*
X011369Y005581D02*
X011012Y005224D01*
X009929Y005224D01*
X009831Y005027D02*
X009043Y005815D01*
X008492Y005815D01*
X008157Y005457D02*
X008214Y005401D01*
X008770Y005401D01*
X008886Y005516D01*
X008886Y005569D01*
X008941Y005569D01*
X009691Y004819D01*
X009782Y004781D01*
X011159Y004781D01*
X011250Y004819D01*
X011319Y004888D01*
X011446Y005015D01*
X011612Y005015D01*
X011612Y004951D01*
X012049Y004951D01*
X012049Y004951D01*
X011612Y004951D01*
X011612Y004877D01*
X011597Y004877D01*
X011551Y004877D01*
X011548Y004876D01*
X011544Y004876D01*
X011503Y004857D01*
X011460Y004839D01*
X011458Y004837D01*
X011455Y004836D01*
X011424Y004803D01*
X011391Y004770D01*
X011107Y004486D01*
X009244Y004486D01*
X008957Y004773D01*
X008887Y004842D01*
X008886Y004843D01*
X008886Y004932D01*
X008770Y005047D01*
X008214Y005047D01*
X008157Y004991D01*
X008101Y005047D01*
X007544Y005047D01*
X007488Y004991D01*
X007445Y005009D01*
X007295Y005009D01*
X007252Y004991D01*
X007215Y005027D01*
X006619Y005027D01*
X006546Y004954D01*
X006522Y004968D01*
X006484Y004978D01*
X006297Y004978D01*
X006297Y004683D01*
X006199Y004683D01*
X006199Y004978D01*
X006012Y004978D01*
X005974Y004968D01*
X005941Y004948D01*
X005913Y004921D01*
X005894Y004887D01*
X005884Y004850D01*
X005884Y004683D01*
X006199Y004683D01*
X006199Y004584D01*
X006297Y004584D01*
X006297Y004387D01*
X006297Y004092D01*
X006199Y004092D01*
X006199Y004584D01*
X005884Y004584D01*
X005884Y004417D01*
X005894Y004380D01*
X005913Y004346D01*
X005921Y004338D01*
X005913Y004330D01*
X005894Y004297D01*
X005884Y004259D01*
X005884Y004092D01*
X006199Y004092D01*
X006199Y003994D01*
X005884Y003994D01*
X005884Y003827D01*
X005894Y003789D01*
X005913Y003755D01*
X005941Y003728D01*
X005974Y003708D01*
X006012Y003698D01*
X006199Y003698D01*
X006199Y003994D01*
X006297Y003994D01*
X006297Y003698D01*
X006484Y003698D01*
X006522Y003708D01*
X006546Y003723D01*
X006619Y003649D01*
X007215Y003649D01*
X007252Y003686D01*
X007295Y003668D01*
X007445Y003668D01*
X007488Y003686D01*
X007544Y003630D01*
X008101Y003630D01*
X008157Y003686D01*
X008214Y003630D01*
X008770Y003630D01*
X008886Y003745D01*
X008886Y003797D01*
X011356Y003797D01*
X011446Y003834D01*
X011516Y003904D01*
X011662Y004050D01*
X011678Y004034D01*
X012332Y004034D01*
X012332Y003801D01*
X012569Y003801D01*
X012569Y003801D01*
X012569Y004239D01*
X012536Y004239D01*
X012536Y004802D01*
X012487Y004852D01*
X012487Y004951D01*
X012487Y005040D01*
X012536Y005089D01*
X012536Y005614D01*
X013198Y005614D01*
X013212Y005599D01*
X013201Y005599D01*
X013063Y005542D01*
X012957Y005437D01*
X012900Y005299D01*
X012900Y005197D01*
X012742Y005039D01*
X012673Y004970D01*
X012636Y004879D01*
X012636Y004239D01*
X012569Y004239D01*
X012569Y003801D01*
X012569Y003801D01*
X012332Y003801D01*
X012332Y003502D01*
X006094Y003502D01*
X003579Y006016D01*
X003620Y006114D01*
X003620Y006267D01*
X004125Y006267D01*
X004164Y006307D01*
X004201Y006297D01*
X004368Y006297D01*
X004368Y006612D01*
X004467Y006612D01*
X004467Y006710D01*
X004762Y006710D01*
X004762Y006897D01*
X004752Y006935D01*
X004738Y006959D01*
X004811Y007032D01*
X004811Y007628D01*
X004696Y007744D01*
X004144Y007744D01*
X004144Y009929D01*
X004361Y009929D01*
X004395Y009963D01*
X004395Y009740D01*
X004449Y009608D01*
X004474Y009583D01*
X004493Y009539D01*
X004598Y009433D01*
X004736Y009376D01*
X004886Y009376D01*
X005024Y009433D01*
X005129Y009539D01*
X005186Y009677D01*
X005186Y009826D01*
X005129Y009964D01*
X005109Y009984D01*
X005109Y010007D01*
X005146Y010044D01*
X005146Y010360D01*
X005164Y010341D01*
X005194Y010269D01*
X005328Y010135D01*
X005504Y010062D01*
X005526Y010062D01*
X005484Y010020D01*
X005412Y009846D01*
X005412Y009657D01*
X005484Y009483D01*
X005617Y009350D01*
X005762Y009290D01*
X005744Y009279D01*
X005716Y009252D01*
X005697Y009218D01*
X005687Y009180D01*
X005687Y009013D01*
X006002Y009013D01*
X006002Y008915D01*
X006100Y008915D01*
X006100Y008637D01*
X005984Y008520D01*
X005912Y008346D01*
X005912Y008157D01*
X005984Y007983D01*
X006117Y007850D01*
X006291Y007778D01*
X006480Y007778D01*
X006601Y007828D01*
X006601Y007795D01*
X006468Y007663D01*
X006291Y007663D01*
X006117Y007590D01*
X005984Y007457D01*
X005912Y007283D01*
X005912Y007094D01*
X005984Y006920D01*
X006117Y006787D01*
X006291Y006715D01*
X006297Y006715D01*
X006297Y006454D01*
X006199Y006454D01*
X006199Y006356D01*
X006297Y006356D01*
X006297Y006061D01*
X006297Y005864D01*
X006199Y005864D01*
X006199Y006356D01*
X005884Y006356D01*
X005884Y006189D01*
X005894Y006151D01*
X005913Y006118D01*
X005921Y006110D01*
X005913Y006102D01*
X005894Y006068D01*
X005884Y006031D01*
X005884Y005864D01*
X006199Y005864D01*
X006199Y005765D01*
X006297Y005765D01*
X006297Y005470D01*
X006484Y005470D01*
X006522Y005480D01*
X006546Y005494D01*
X006619Y005421D01*
X007215Y005421D01*
X007252Y005457D01*
X007295Y005439D01*
X007445Y005439D01*
X007488Y005457D01*
X007544Y005401D01*
X008101Y005401D01*
X008157Y005457D01*
X008492Y004633D02*
X008748Y004633D01*
X009142Y004240D01*
X011209Y004240D01*
X011600Y004631D01*
X011701Y004633D01*
X011600Y004631D02*
X012049Y004631D01*
X012049Y004321D02*
X011585Y004321D01*
X011307Y004043D01*
X008492Y004043D01*
X008863Y003722D02*
X012332Y003722D01*
X012332Y003625D02*
X005970Y003625D01*
X005951Y003722D02*
X005873Y003722D01*
X005886Y003819D02*
X005777Y003819D01*
X005680Y003916D02*
X005884Y003916D01*
X005884Y004110D02*
X005486Y004110D01*
X005583Y004013D02*
X006199Y004013D01*
X006199Y004110D02*
X006297Y004110D01*
X006297Y004207D02*
X006199Y004207D01*
X006199Y004304D02*
X006297Y004304D01*
X006297Y004401D02*
X006199Y004401D01*
X006199Y004498D02*
X006297Y004498D01*
X006199Y004594D02*
X005001Y004594D01*
X005098Y004498D02*
X005884Y004498D01*
X005888Y004401D02*
X005195Y004401D01*
X005292Y004304D02*
X005898Y004304D01*
X005884Y004207D02*
X005389Y004207D01*
X004904Y004691D02*
X005884Y004691D01*
X005884Y004788D02*
X004807Y004788D01*
X004710Y004885D02*
X005893Y004885D01*
X006199Y004885D02*
X006297Y004885D01*
X006297Y004788D02*
X006199Y004788D01*
X006199Y004691D02*
X006297Y004691D01*
X006574Y004982D02*
X004613Y004982D01*
X004516Y005079D02*
X009431Y005079D01*
X009528Y004982D02*
X008835Y004982D01*
X008886Y004885D02*
X009625Y004885D01*
X009764Y004788D02*
X008941Y004788D01*
X009038Y004691D02*
X011312Y004691D01*
X011391Y004770D02*
X011391Y004770D01*
X011409Y004788D02*
X011177Y004788D01*
X011316Y004885D02*
X011612Y004885D01*
X011612Y004982D02*
X011413Y004982D01*
X011344Y005261D02*
X011110Y005027D01*
X009831Y005027D01*
X009334Y005176D02*
X004420Y005176D01*
X004323Y005273D02*
X009237Y005273D01*
X009140Y005370D02*
X004226Y005370D01*
X004129Y005467D02*
X006573Y005467D01*
X006297Y005564D02*
X006199Y005564D01*
X006199Y005470D02*
X006199Y005765D01*
X005884Y005765D01*
X005884Y005598D01*
X005894Y005561D01*
X005913Y005527D01*
X005941Y005500D01*
X005974Y005480D01*
X006012Y005470D01*
X006199Y005470D01*
X006199Y005661D02*
X006297Y005661D01*
X006297Y005758D02*
X006199Y005758D01*
X006199Y005855D02*
X003741Y005855D01*
X003644Y005951D02*
X005884Y005951D01*
X005889Y006048D02*
X003592Y006048D01*
X003620Y006145D02*
X005897Y006145D01*
X005884Y006242D02*
X003620Y006242D01*
X003827Y006661D02*
X003787Y006700D01*
X002941Y006700D01*
X002646Y006405D01*
X002646Y005708D01*
X002146Y005208D01*
X002146Y005133D01*
X002547Y004732D01*
X003925Y004732D01*
X005795Y002862D01*
X014457Y002862D01*
X014769Y003174D01*
X014769Y003801D01*
X014459Y003801D02*
X014459Y003849D01*
X014457Y003851D01*
X014457Y003256D01*
X014260Y003059D01*
X005894Y003059D01*
X003744Y005208D01*
X003146Y005208D01*
X003146Y006102D02*
X005992Y003256D01*
X014063Y003256D01*
X014139Y003332D01*
X014139Y003801D01*
X013829Y003801D02*
X013829Y004203D01*
X014063Y004437D01*
X014414Y004304D02*
X014852Y004304D01*
X014495Y004401D02*
X014438Y004401D01*
X013276Y004633D02*
X013199Y004557D01*
X013199Y003801D01*
X012882Y003803D02*
X012882Y004830D01*
X013276Y005224D01*
X013115Y005564D02*
X012536Y005564D01*
X012536Y005467D02*
X012988Y005467D01*
X012930Y005370D02*
X012536Y005370D01*
X012536Y005273D02*
X012900Y005273D01*
X012880Y005176D02*
X012536Y005176D01*
X012526Y005079D02*
X012783Y005079D01*
X012686Y004982D02*
X012487Y004982D01*
X012487Y004951D02*
X012049Y004951D01*
X012049Y004951D01*
X012487Y004951D01*
X012487Y004885D02*
X012638Y004885D01*
X012636Y004788D02*
X012536Y004788D01*
X012536Y004691D02*
X012636Y004691D01*
X012636Y004594D02*
X012536Y004594D01*
X012536Y004498D02*
X012636Y004498D01*
X012636Y004401D02*
X012536Y004401D01*
X012536Y004304D02*
X012636Y004304D01*
X012569Y004207D02*
X012569Y004207D01*
X012569Y004110D02*
X012569Y004110D01*
X012569Y004013D02*
X012569Y004013D01*
X012569Y003916D02*
X012569Y003916D01*
X012569Y003819D02*
X012569Y003819D01*
X012332Y003819D02*
X011410Y003819D01*
X011528Y003916D02*
X012332Y003916D01*
X012332Y004013D02*
X011625Y004013D01*
X011118Y004498D02*
X009232Y004498D01*
X009135Y004594D02*
X011215Y004594D01*
X011344Y005261D02*
X012049Y005261D01*
X012049Y005581D02*
X011369Y005581D01*
X012332Y003528D02*
X006067Y003528D01*
X006199Y003722D02*
X006297Y003722D01*
X006297Y003819D02*
X006199Y003819D01*
X006199Y003916D02*
X006297Y003916D01*
X006545Y003722D02*
X006546Y003722D01*
X005556Y002753D02*
X000923Y002753D01*
X000923Y002850D02*
X005459Y002850D01*
X005362Y002947D02*
X000923Y002947D01*
X000923Y003044D02*
X005265Y003044D01*
X005168Y003141D02*
X000923Y003141D01*
X000923Y003238D02*
X005072Y003238D01*
X004975Y003334D02*
X000923Y003334D01*
X000923Y003431D02*
X004878Y003431D01*
X004781Y003528D02*
X000923Y003528D01*
X000923Y003625D02*
X004684Y003625D01*
X004587Y003722D02*
X000923Y003722D01*
X000923Y003819D02*
X001864Y003819D01*
X001768Y003916D02*
X000923Y003916D01*
X000923Y004013D02*
X001713Y004013D01*
X001673Y004110D02*
X000923Y004110D01*
X000923Y004207D02*
X001672Y004207D01*
X001672Y004304D02*
X000923Y004304D01*
X000923Y004401D02*
X001712Y004401D01*
X001765Y004498D02*
X000923Y004498D01*
X000923Y004594D02*
X001861Y004594D01*
X001921Y004788D02*
X000923Y004788D01*
X000923Y004691D02*
X002240Y004691D01*
X001798Y004885D02*
X000923Y004885D01*
X000923Y004982D02*
X001726Y004982D01*
X001686Y005079D02*
X000923Y005079D01*
X000923Y005176D02*
X001672Y005176D01*
X001672Y005273D02*
X000923Y005273D01*
X000923Y005370D02*
X001700Y005370D01*
X001740Y005467D02*
X000923Y005467D01*
X000923Y005564D02*
X001831Y005564D01*
X001999Y005661D02*
X000923Y005661D01*
X000923Y005758D02*
X001995Y005758D01*
X001829Y005855D02*
X000923Y005855D01*
X000923Y005951D02*
X001739Y005951D01*
X001699Y006048D02*
X000923Y006048D01*
X000923Y006145D02*
X001672Y006145D01*
X001672Y006242D02*
X000923Y006242D01*
X000923Y006339D02*
X001687Y006339D01*
X001670Y006436D02*
X000923Y006436D01*
X000923Y006533D02*
X001576Y006533D01*
X001482Y006630D02*
X000923Y006630D01*
X000923Y006727D02*
X001425Y006727D01*
X001415Y006824D02*
X000923Y006824D01*
X000923Y006921D02*
X001415Y006921D01*
X001415Y007018D02*
X000923Y007018D01*
X000923Y007115D02*
X001415Y007115D01*
X001415Y007211D02*
X000923Y007211D01*
X000923Y007308D02*
X001415Y007308D01*
X001415Y007405D02*
X000923Y007405D01*
X000923Y007502D02*
X001415Y007502D01*
X001415Y007599D02*
X000923Y007599D01*
X000923Y007696D02*
X001415Y007696D01*
X001415Y007793D02*
X000923Y007793D01*
X000923Y007890D02*
X001415Y007890D01*
X001415Y007987D02*
X000923Y007987D01*
X000923Y008084D02*
X001415Y008084D01*
X001415Y008181D02*
X000923Y008181D01*
X000923Y008278D02*
X001415Y008278D01*
X001415Y008375D02*
X000923Y008375D01*
X000923Y008471D02*
X001415Y008471D01*
X001415Y008568D02*
X000923Y008568D01*
X000923Y008665D02*
X001415Y008665D01*
X001415Y008762D02*
X000923Y008762D01*
X000923Y008859D02*
X001415Y008859D01*
X001415Y008956D02*
X000923Y008956D01*
X000923Y009053D02*
X001415Y009053D01*
X001415Y009150D02*
X000923Y009150D01*
X000923Y009247D02*
X001431Y009247D01*
X001496Y009344D02*
X000923Y009344D01*
X000923Y009441D02*
X001593Y009441D01*
X001690Y009538D02*
X000923Y009538D01*
X000923Y009635D02*
X001787Y009635D01*
X001877Y009732D02*
X000923Y009732D01*
X000923Y009828D02*
X001878Y009828D01*
X001918Y009925D02*
X000923Y009925D01*
X000923Y010022D02*
X001992Y010022D01*
X002159Y010119D02*
X000923Y010119D01*
X000923Y010216D02*
X002537Y010216D01*
X002539Y010119D02*
X002345Y010119D01*
X002537Y010391D02*
X002852Y010391D01*
X002852Y010687D01*
X002666Y010687D01*
X002628Y010677D01*
X002594Y010657D01*
X002567Y010630D01*
X002547Y010596D01*
X002537Y010558D01*
X002537Y010391D01*
X002537Y010410D02*
X000923Y010410D01*
X000923Y010507D02*
X002537Y010507D01*
X002552Y010604D02*
X000923Y010604D01*
X000923Y010701D02*
X003238Y010701D01*
X003319Y010895D02*
X003931Y010895D01*
X004028Y010992D02*
X003416Y010992D01*
X003433Y011088D02*
X004125Y011088D01*
X004222Y011185D02*
X003433Y011185D01*
X003433Y011282D02*
X004230Y011282D01*
X004190Y011379D02*
X003484Y011379D01*
X003581Y011476D02*
X004167Y011476D01*
X004147Y011573D02*
X003678Y011573D01*
X003775Y011670D02*
X004050Y011670D01*
X003986Y011767D02*
X003867Y011767D01*
X003907Y011864D02*
X003965Y011864D01*
X003945Y011961D02*
X003945Y011961D01*
X003945Y012058D02*
X003945Y012058D01*
X003945Y012155D02*
X003945Y012155D01*
X003945Y012252D02*
X003945Y012252D01*
X003945Y012349D02*
X003945Y012349D01*
X003945Y012445D02*
X003945Y012445D01*
X003945Y012542D02*
X003945Y012542D01*
X003945Y012639D02*
X003945Y012639D01*
X003945Y012736D02*
X003945Y012736D01*
X003965Y012833D02*
X003858Y012833D01*
X003335Y012252D02*
X000923Y012252D01*
X000923Y012155D02*
X003335Y012155D01*
X002252Y011379D02*
X002203Y011379D01*
X002203Y011282D02*
X002252Y011282D01*
X002252Y011185D02*
X002203Y011185D01*
X002203Y011088D02*
X002252Y011088D01*
X002269Y010992D02*
X002165Y010992D01*
X002366Y010895D02*
X000923Y010895D01*
X000923Y010798D02*
X003834Y010798D01*
X004144Y009925D02*
X004395Y009925D01*
X004395Y009828D02*
X004144Y009828D01*
X004144Y009732D02*
X004398Y009732D01*
X004439Y009635D02*
X004144Y009635D01*
X004144Y009538D02*
X004494Y009538D01*
X004591Y009441D02*
X004144Y009441D01*
X004144Y009344D02*
X005632Y009344D01*
X005714Y009247D02*
X004144Y009247D01*
X004144Y009150D02*
X005687Y009150D01*
X005687Y009053D02*
X004144Y009053D01*
X004144Y008956D02*
X006002Y008956D01*
X006002Y008915D02*
X005687Y008915D01*
X005687Y008748D01*
X005697Y008710D01*
X005716Y008677D01*
X005744Y008649D01*
X005778Y008630D01*
X005815Y008620D01*
X006002Y008620D01*
X006002Y008915D01*
X006002Y008859D02*
X006100Y008859D01*
X006100Y008762D02*
X006002Y008762D01*
X006002Y008665D02*
X006100Y008665D01*
X006032Y008568D02*
X004144Y008568D01*
X004144Y008471D02*
X005964Y008471D01*
X005924Y008375D02*
X004144Y008375D01*
X004144Y008278D02*
X005912Y008278D01*
X005912Y008181D02*
X004144Y008181D01*
X004144Y008084D02*
X005942Y008084D01*
X005982Y007987D02*
X004144Y007987D01*
X004144Y007890D02*
X006077Y007890D01*
X006254Y007793D02*
X004144Y007793D01*
X004743Y007696D02*
X006502Y007696D01*
X006517Y007793D02*
X006599Y007793D01*
X006138Y007599D02*
X004811Y007599D01*
X004811Y007502D02*
X006029Y007502D01*
X005962Y007405D02*
X004811Y007405D01*
X004811Y007308D02*
X005922Y007308D01*
X005912Y007211D02*
X004811Y007211D01*
X004811Y007115D02*
X005912Y007115D01*
X005944Y007018D02*
X004796Y007018D01*
X004755Y006921D02*
X005984Y006921D01*
X006080Y006824D02*
X004762Y006824D01*
X004762Y006727D02*
X005952Y006727D01*
X005941Y006720D02*
X005913Y006693D01*
X005894Y006659D01*
X005884Y006621D01*
X005884Y006454D01*
X006199Y006454D01*
X006199Y006750D01*
X006012Y006750D01*
X005974Y006740D01*
X005941Y006720D01*
X005886Y006630D02*
X004467Y006630D01*
X004467Y006612D02*
X004762Y006612D01*
X004762Y006425D01*
X004752Y006388D01*
X004732Y006354D01*
X004705Y006326D01*
X004671Y006307D01*
X004634Y006297D01*
X004467Y006297D01*
X004467Y006612D01*
X004467Y006533D02*
X004368Y006533D01*
X004368Y006436D02*
X004467Y006436D01*
X004467Y006339D02*
X004368Y006339D01*
X004718Y006339D02*
X005884Y006339D01*
X005884Y006533D02*
X004762Y006533D01*
X004762Y006436D02*
X006199Y006436D01*
X006199Y006339D02*
X006297Y006339D01*
X006297Y006242D02*
X006199Y006242D01*
X006199Y006145D02*
X006297Y006145D01*
X006297Y006048D02*
X006199Y006048D01*
X006199Y005951D02*
X006297Y005951D01*
X005884Y005758D02*
X003838Y005758D01*
X003935Y005661D02*
X005884Y005661D01*
X005893Y005564D02*
X004032Y005564D01*
X003146Y006102D02*
X003146Y006208D01*
X002619Y006727D02*
X002074Y006727D01*
X002066Y006734D02*
X002240Y006734D01*
X002414Y006806D01*
X002547Y006940D01*
X002620Y007114D01*
X002620Y007303D01*
X002547Y007477D01*
X002414Y007610D01*
X002240Y007682D01*
X002051Y007682D01*
X001907Y007623D01*
X001907Y007734D01*
X002504Y007734D01*
X002620Y007850D01*
X002620Y008567D01*
X002569Y008617D01*
X002569Y008629D01*
X002582Y008642D01*
X002594Y008629D01*
X002628Y008610D01*
X002666Y008600D01*
X002833Y008600D01*
X002833Y008915D01*
X002931Y008915D01*
X002931Y008600D01*
X003098Y008600D01*
X003136Y008610D01*
X003169Y008629D01*
X003197Y008657D01*
X003216Y008691D01*
X003226Y008728D01*
X003226Y008915D01*
X002931Y008915D01*
X002931Y009013D01*
X003226Y009013D01*
X003226Y009200D01*
X003216Y009238D01*
X003197Y009271D01*
X003169Y009299D01*
X003136Y009318D01*
X003098Y009328D01*
X002931Y009328D01*
X002931Y009013D01*
X002833Y009013D01*
X002833Y009328D01*
X002666Y009328D01*
X002628Y009318D01*
X002594Y009299D01*
X002582Y009287D01*
X002491Y009378D01*
X002330Y009378D01*
X002371Y009395D01*
X002567Y009395D01*
X002623Y009338D01*
X003180Y009338D01*
X003236Y009394D01*
X003292Y009338D01*
X003510Y009338D01*
X003510Y007705D01*
X003452Y007647D01*
X003325Y007647D01*
X003240Y007682D01*
X003051Y007682D01*
X002877Y007610D01*
X002744Y007477D01*
X002672Y007303D01*
X002672Y007114D01*
X002744Y006940D01*
X002788Y006896D01*
X002732Y006840D01*
X002458Y006566D01*
X002414Y006610D01*
X002240Y006682D01*
X002117Y006682D01*
X002066Y006734D01*
X002366Y006630D02*
X002522Y006630D01*
X002431Y006824D02*
X002716Y006824D01*
X002763Y006921D02*
X002528Y006921D01*
X002580Y007018D02*
X002712Y007018D01*
X002672Y007115D02*
X002620Y007115D01*
X002620Y007211D02*
X002672Y007211D01*
X002674Y007308D02*
X002617Y007308D01*
X002577Y007405D02*
X002714Y007405D01*
X002769Y007502D02*
X002522Y007502D01*
X002425Y007599D02*
X002866Y007599D01*
X002563Y007793D02*
X003510Y007793D01*
X003510Y007890D02*
X002620Y007890D01*
X002620Y007987D02*
X003510Y007987D01*
X003510Y008084D02*
X002620Y008084D01*
X002620Y008181D02*
X003510Y008181D01*
X003510Y008278D02*
X002620Y008278D01*
X002620Y008375D02*
X003510Y008375D01*
X003510Y008471D02*
X002620Y008471D01*
X002618Y008568D02*
X003510Y008568D01*
X003510Y008665D02*
X003202Y008665D01*
X003226Y008762D02*
X003510Y008762D01*
X003510Y008859D02*
X003226Y008859D01*
X003226Y009053D02*
X003510Y009053D01*
X003510Y008956D02*
X002931Y008956D01*
X002931Y008859D02*
X002833Y008859D01*
X002833Y008762D02*
X002931Y008762D01*
X002931Y008665D02*
X002833Y008665D01*
X002833Y009053D02*
X002931Y009053D01*
X002931Y009150D02*
X002833Y009150D01*
X002833Y009247D02*
X002931Y009247D01*
X003186Y009344D02*
X003287Y009344D01*
X003211Y009247D02*
X003510Y009247D01*
X003510Y009150D02*
X003226Y009150D01*
X002618Y009344D02*
X002525Y009344D01*
X002252Y009752D02*
X001661Y009161D01*
X001661Y006799D01*
X002146Y006299D01*
X002146Y006208D01*
X002296Y005758D02*
X002347Y005758D01*
X002579Y004401D02*
X003908Y004401D01*
X004005Y004304D02*
X002619Y004304D01*
X002620Y004207D02*
X004102Y004207D01*
X004199Y004110D02*
X002618Y004110D01*
X002578Y004013D02*
X004296Y004013D01*
X004393Y003916D02*
X002524Y003916D01*
X002427Y003819D02*
X004490Y003819D01*
X005653Y002656D02*
X000923Y002656D01*
X001907Y007696D02*
X003501Y007696D01*
X004144Y008665D02*
X005728Y008665D01*
X005687Y008762D02*
X004144Y008762D01*
X004144Y008859D02*
X005687Y008859D01*
X006002Y009013D02*
X006002Y009287D01*
X006154Y009350D01*
X006288Y009483D01*
X006360Y009657D01*
X006360Y009846D01*
X006288Y010020D01*
X006246Y010062D01*
X006526Y010062D01*
X006484Y010020D01*
X006412Y009846D01*
X006412Y009657D01*
X006484Y009483D01*
X006609Y009358D01*
X006422Y009358D01*
X006349Y009285D01*
X006325Y009299D01*
X006287Y009309D01*
X006100Y009309D01*
X006100Y009013D01*
X006002Y009013D01*
X006002Y009053D02*
X006100Y009053D01*
X006100Y009150D02*
X006002Y009150D01*
X006002Y009247D02*
X006100Y009247D01*
X006140Y009344D02*
X006408Y009344D01*
X006526Y009441D02*
X006245Y009441D01*
X006310Y009538D02*
X006461Y009538D01*
X006421Y009635D02*
X006350Y009635D01*
X006360Y009732D02*
X006412Y009732D01*
X006412Y009828D02*
X006360Y009828D01*
X006327Y009925D02*
X006445Y009925D01*
X006486Y010022D02*
X006285Y010022D01*
X005992Y010539D02*
X005992Y010795D01*
X005992Y011464D02*
X006327Y011464D01*
X005835Y012389D02*
X005835Y015027D01*
X005402Y015460D01*
X007488Y015933D02*
X007882Y015933D01*
X007980Y015256D02*
X009357Y015256D01*
X009369Y015159D02*
X007980Y015159D01*
X008971Y015062D02*
X009409Y015062D01*
X009732Y015263D02*
X010776Y015263D01*
X010126Y015657D02*
X010126Y016523D01*
X010087Y016563D01*
X009775Y017098D02*
X009585Y017098D01*
X009585Y017195D02*
X009751Y017195D01*
X009751Y017292D02*
X009585Y017292D01*
X009585Y017389D02*
X009785Y017389D01*
X009849Y017486D02*
X009585Y017486D01*
X009585Y017582D02*
X009835Y017582D01*
X009779Y017679D02*
X009585Y017679D01*
X009585Y017776D02*
X009751Y017776D01*
X009751Y017873D02*
X009585Y017873D01*
X009585Y017970D02*
X009781Y017970D01*
X009840Y018067D02*
X009585Y018067D01*
X009585Y018164D02*
X009970Y018164D01*
X009585Y018261D02*
X011125Y018261D01*
X009636Y017001D02*
X009585Y017001D01*
X009585Y016904D02*
X009594Y016904D01*
X009585Y016807D02*
X009594Y016807D01*
X009585Y016710D02*
X009594Y016710D01*
X009585Y016613D02*
X009594Y016613D01*
X009585Y016516D02*
X009594Y016516D01*
X009585Y016419D02*
X009594Y016419D01*
X009585Y016322D02*
X009594Y016322D01*
X009585Y016226D02*
X009594Y016226D01*
X009585Y016129D02*
X009632Y016129D01*
X009585Y016032D02*
X009880Y016032D01*
X009873Y015935D02*
X009585Y015935D01*
X009585Y015838D02*
X009795Y015838D01*
X009754Y015741D02*
X009603Y015741D01*
X009700Y015644D02*
X009751Y015644D01*
X009732Y015263D02*
X009339Y015657D01*
X009339Y018807D01*
X008945Y018216D02*
X008945Y017429D01*
X008967Y017001D02*
X009092Y017001D01*
X009092Y016904D02*
X009032Y016904D01*
X009033Y016807D02*
X009092Y016807D01*
X009092Y016710D02*
X009033Y016710D01*
X009033Y016613D02*
X009092Y016613D01*
X009092Y016516D02*
X008640Y016516D01*
X008640Y016613D02*
X008541Y016613D01*
X008541Y016710D02*
X008640Y016710D01*
X008640Y016807D02*
X008541Y016807D01*
X008541Y016904D02*
X008640Y016904D01*
X008640Y017001D02*
X008541Y017001D01*
X009033Y016419D02*
X009092Y016419D01*
X009092Y016322D02*
X009033Y016322D01*
X009033Y016226D02*
X009092Y016226D01*
X009092Y016129D02*
X008975Y016129D01*
X010657Y013492D02*
X010911Y013098D01*
X010913Y013098D01*
X006886Y009752D02*
X006886Y009653D01*
X006878Y009653D01*
X005526Y009441D02*
X005031Y009441D01*
X005128Y009538D02*
X005461Y009538D01*
X005421Y009635D02*
X005169Y009635D01*
X005186Y009732D02*
X005412Y009732D01*
X005412Y009828D02*
X005185Y009828D01*
X005145Y009925D02*
X005445Y009925D01*
X005486Y010022D02*
X005124Y010022D01*
X005146Y010119D02*
X005366Y010119D01*
X005247Y010216D02*
X005146Y010216D01*
X005146Y010313D02*
X005176Y010313D01*
X002951Y010410D02*
X002852Y010410D01*
X002852Y010507D02*
X002951Y010507D01*
X002951Y010604D02*
X002852Y010604D01*
X002852Y010313D02*
X000923Y010313D01*
X000923Y011573D02*
X001120Y011573D01*
X001120Y011670D02*
X000923Y011670D01*
X000923Y011767D02*
X001120Y011767D01*
X001120Y011864D02*
X000923Y011864D01*
X000923Y011961D02*
X001120Y011961D01*
X001160Y012058D02*
X000923Y012058D01*
X000923Y014287D02*
X001159Y014287D01*
X001203Y014384D02*
X000923Y014384D01*
X002842Y016326D02*
X002921Y016248D01*
X009350Y024561D02*
X009356Y024561D01*
X009350Y024658D02*
X009356Y024658D01*
X010323Y023531D02*
X010323Y023478D01*
X011455Y022041D02*
X011505Y022041D01*
X011110Y021425D02*
X011110Y020972D01*
X010323Y020874D02*
X010224Y020972D01*
X010126Y020972D01*
X019968Y021956D02*
X019972Y021960D01*
X015014Y008084D02*
X014884Y008084D01*
X014654Y007783D02*
X014457Y007586D01*
X014457Y007043D01*
X014459Y007041D01*
X014139Y007041D02*
X014139Y007707D01*
X014063Y007783D01*
X014293Y008084D02*
X014424Y008084D01*
X013833Y008084D02*
X013702Y008084D01*
X014769Y007308D02*
X014769Y007041D01*
X014769Y007308D02*
X015244Y007783D01*
X018148Y005370D02*
X018246Y005370D01*
X018246Y005467D02*
X022478Y005467D01*
X020812Y002753D02*
X020767Y002753D01*
X020383Y002753D02*
X020373Y002753D01*
X019989Y002753D02*
X019926Y002753D01*
X019541Y002753D02*
X019281Y002753D01*
X019378Y002850D02*
X019444Y002850D01*
X018246Y004788D02*
X018148Y004788D01*
X018148Y004885D02*
X018246Y004885D01*
X018246Y004982D02*
X018148Y004982D01*
X018148Y005079D02*
X018246Y005079D01*
X018246Y005176D02*
X018148Y005176D01*
X018148Y005273D02*
X018246Y005273D01*
X019181Y005618D02*
X019347Y005224D01*
X019575Y004996D01*
X018810Y006727D02*
X018758Y006727D01*
X009043Y005467D02*
X008836Y005467D01*
X008886Y005564D02*
X008946Y005564D01*
X006976Y006464D02*
X006917Y006405D01*
X006297Y006533D02*
X006199Y006533D01*
X006199Y006630D02*
X006297Y006630D01*
X006262Y006727D02*
X006199Y006727D01*
X006386Y007189D02*
X006382Y007193D01*
D49*
X004614Y011523D02*
X004260Y011878D01*
X004260Y012389D01*
X004260Y013452D01*
X003669Y014043D01*
X003630Y014082D01*
X003630Y016149D01*
X003827Y016346D01*
X003630Y016543D01*
X003630Y016956D01*
X003827Y016346D02*
X004575Y016346D01*
X004575Y016956D01*
X004575Y016346D02*
X005303Y016346D01*
X005520Y016563D01*
X005520Y016956D01*
X005520Y017704D01*
X005205Y018019D01*
X005205Y018433D01*
X005795Y018019D02*
X005795Y020086D01*
X005894Y020185D01*
X005894Y020972D01*
X006583Y021661D01*
X006583Y022615D01*
X006364Y022833D01*
X006386Y020775D02*
X006386Y020185D01*
X006189Y019988D01*
X006189Y018216D01*
X006465Y017941D01*
X006465Y016956D01*
X006150Y016956D02*
X006150Y017665D01*
X005795Y018019D01*
X005205Y019181D02*
X005008Y019181D01*
X005008Y019889D01*
X004968Y019889D01*
X004968Y020539D01*
X004811Y020539D01*
X004968Y020539D02*
X005402Y020539D01*
X005795Y020086D02*
X005736Y020027D01*
X005638Y019889D01*
X004811Y021208D02*
X004516Y021208D01*
X004220Y020913D01*
X003669Y014043D02*
X002921Y014043D01*
D50*
X004614Y011523D02*
X004811Y011326D01*
X005598Y010539D01*
X011602Y016248D02*
X012488Y016248D01*
X012488Y017429D02*
X011602Y017429D01*
D51*
X012094Y023669D02*
X012417Y023992D01*
X012752Y023992D01*
D52*
X009339Y024515D02*
X009339Y024653D01*
X008650Y024653D01*
X008650Y023984D02*
X008650Y023826D01*
X007370Y022547D01*
X007370Y019423D01*
X004811Y011326D02*
X004083Y010598D01*
X004083Y010342D01*
X003827Y010342D01*
X003571Y010342D01*
X003827Y010342D02*
X003827Y009752D01*
X003571Y009752D01*
X003827Y009752D02*
X003827Y007330D01*
X004417Y007330D01*
X003827Y007330D02*
X003268Y007330D01*
X003146Y007208D01*
X014909Y010529D02*
X015569Y010529D01*
X015638Y010598D01*
X015638Y011267D02*
X015071Y011267D01*
X014909Y011429D01*
X017399Y009299D02*
X017399Y008640D01*
X020067Y013492D02*
X020362Y013787D01*
M02*
