G75*
G70*
%OFA0B0*%
%FSLAX24Y24*%
%IPPOS*%
%LPD*%
%AMOC8*
5,1,8,0,0,1.08239X$1,22.5*
%
%ADD10R,0.0787X0.1181*%
%ADD11R,0.0787X0.0984*%
%ADD12R,0.1655X0.1655*%
%ADD13R,0.0443X0.0157*%
%ADD14R,0.0157X0.0443*%
%ADD15R,0.0356X0.0867*%
%ADD16R,0.0415X0.0867*%
%ADD17C,0.0710*%
%ADD18R,0.0552X0.0867*%
%ADD19C,0.1080*%
%ADD20C,0.0634*%
%ADD21R,0.0680X0.0680*%
%ADD22C,0.0680*%
%ADD23C,0.1025*%
%ADD24C,0.1458*%
%ADD25R,0.0474X0.0513*%
%ADD26R,0.0946X0.0867*%
%ADD27R,0.0513X0.0474*%
%ADD28R,0.0946X0.0316*%
%ADD29R,0.0634X0.0634*%
%ADD30C,0.1661*%
%ADD31R,0.0552X0.0552*%
%ADD32R,0.0946X0.1104*%
%ADD33R,0.0178X0.1104*%
%ADD34C,0.1582*%
%ADD35C,0.1346*%
%ADD36R,0.0592X0.0671*%
%ADD37C,0.0437*%
D10*
X001268Y013689D03*
X017213Y005421D03*
D11*
X008748Y025992D03*
D12*
X016130Y017133D03*
D13*
X020367Y017035D03*
X020367Y016838D03*
X020367Y016641D03*
X020367Y016444D03*
X020367Y016248D03*
X020367Y016051D03*
X020367Y015854D03*
X020367Y015657D03*
X020367Y015460D03*
X020367Y015263D03*
X020367Y015067D03*
X020367Y014870D03*
X020367Y014673D03*
X020367Y014476D03*
X020367Y014279D03*
X020367Y014082D03*
X020367Y013885D03*
X020367Y013689D03*
X020367Y017232D03*
X020367Y017429D03*
X020367Y017626D03*
X020367Y017822D03*
X020367Y018019D03*
X020367Y018216D03*
X020367Y018413D03*
X020367Y018610D03*
X020367Y018807D03*
X020367Y019004D03*
X020367Y019200D03*
X020367Y019397D03*
X020367Y019594D03*
X020367Y019791D03*
X020367Y019988D03*
X020367Y020185D03*
X020367Y020381D03*
X020367Y020578D03*
X011893Y020578D03*
X011893Y020381D03*
X011893Y020185D03*
X011893Y019988D03*
X011893Y019791D03*
X011893Y019594D03*
X011893Y019397D03*
X011893Y019200D03*
X011893Y019004D03*
X011893Y018807D03*
X011893Y018610D03*
X011893Y018413D03*
X011893Y018216D03*
X011893Y018019D03*
X011893Y017822D03*
X011893Y017626D03*
X011893Y017429D03*
X011893Y017232D03*
X011893Y017035D03*
X011893Y016838D03*
X011893Y016641D03*
X011893Y016444D03*
X011893Y016248D03*
X011893Y016051D03*
X011893Y015854D03*
X011893Y015657D03*
X011893Y015460D03*
X011893Y015263D03*
X011893Y015067D03*
X011893Y014870D03*
X011893Y014673D03*
X011893Y014476D03*
X011893Y014279D03*
X011893Y014082D03*
X011893Y013885D03*
X011893Y013689D03*
D14*
X012685Y012896D03*
X012882Y012896D03*
X013079Y012896D03*
X013276Y012896D03*
X013472Y012896D03*
X013669Y012896D03*
X013866Y012896D03*
X014063Y012896D03*
X014260Y012896D03*
X014457Y012896D03*
X014654Y012896D03*
X014850Y012896D03*
X015047Y012896D03*
X015244Y012896D03*
X015441Y012896D03*
X015638Y012896D03*
X015835Y012896D03*
X016031Y012896D03*
X016228Y012896D03*
X016425Y012896D03*
X016622Y012896D03*
X016819Y012896D03*
X017016Y012896D03*
X017213Y012896D03*
X017409Y012896D03*
X017606Y012896D03*
X017803Y012896D03*
X018000Y012896D03*
X018197Y012896D03*
X018394Y012896D03*
X018591Y012896D03*
X018787Y012896D03*
X018984Y012896D03*
X019181Y012896D03*
X019378Y012896D03*
X019575Y012896D03*
X019575Y021371D03*
X019378Y021371D03*
X019181Y021371D03*
X018984Y021371D03*
X018787Y021371D03*
X018591Y021371D03*
X018394Y021371D03*
X018197Y021371D03*
X018000Y021371D03*
X017803Y021371D03*
X017606Y021371D03*
X017409Y021371D03*
X017213Y021371D03*
X017016Y021371D03*
X016819Y021371D03*
X016622Y021371D03*
X016425Y021371D03*
X016228Y021371D03*
X016031Y021371D03*
X015835Y021371D03*
X015638Y021371D03*
X015441Y021371D03*
X015244Y021371D03*
X015047Y021371D03*
X014850Y021371D03*
X014654Y021371D03*
X014457Y021371D03*
X014260Y021371D03*
X014063Y021371D03*
X013866Y021371D03*
X013669Y021371D03*
X013472Y021371D03*
X013276Y021371D03*
X013079Y021371D03*
X012882Y021371D03*
X012685Y021371D03*
D15*
X018217Y024476D03*
X018650Y024476D03*
X019083Y024476D03*
X019516Y024476D03*
X019949Y024476D03*
X020382Y024476D03*
X020815Y024476D03*
X021248Y024476D03*
D16*
X017724Y024476D03*
X017272Y024476D03*
D17*
X017409Y025893D03*
X021346Y025893D03*
D18*
X022252Y027803D03*
X016504Y027803D03*
D19*
X007370Y019423D03*
X007370Y011541D03*
D20*
X002146Y004208D03*
X003146Y004208D03*
X003146Y005208D03*
X003146Y006208D03*
X003146Y007208D03*
X003146Y008208D03*
X002146Y007208D03*
X002146Y006208D03*
X002146Y005208D03*
X006386Y007189D03*
X006386Y008252D03*
X007370Y008252D03*
X008157Y008252D03*
X008157Y007189D03*
X007370Y007189D03*
X009142Y007189D03*
X009142Y008252D03*
X006886Y009752D03*
X002055Y012739D03*
X002055Y014639D03*
X008248Y022153D03*
X009248Y022153D03*
X018984Y011448D03*
X018984Y010448D03*
X018984Y009448D03*
X018984Y008448D03*
X020157Y008448D03*
X020157Y009448D03*
X020157Y010448D03*
X020157Y011448D03*
X021157Y011448D03*
X021157Y010448D03*
X021157Y009448D03*
X016425Y006371D03*
X016425Y004471D03*
D21*
X006364Y022833D03*
D22*
X005864Y021833D03*
X005364Y022833D03*
X004864Y021833D03*
X004364Y022833D03*
X003864Y021833D03*
X003364Y022833D03*
X002864Y021833D03*
X003014Y027283D03*
X002014Y027283D03*
X006214Y027283D03*
X007214Y027283D03*
D23*
X007764Y024183D03*
X001464Y024183D03*
D24*
X002364Y025333D03*
X006864Y025333D03*
D25*
X005146Y018413D03*
X004476Y018413D03*
X003768Y018413D03*
X003098Y018413D03*
X011307Y006543D03*
X011307Y005874D03*
X012488Y005559D03*
X012488Y004889D03*
X013276Y010992D03*
X013276Y011661D03*
X014260Y011661D03*
X014260Y010992D03*
X017016Y010992D03*
X017606Y010992D03*
X017606Y011661D03*
X017016Y011661D03*
X017272Y008374D03*
X017941Y008374D03*
X019772Y022409D03*
X019772Y023078D03*
X015185Y023531D03*
X015185Y024122D03*
X014516Y024122D03*
X014516Y023531D03*
D26*
X011504Y004830D03*
X011504Y003649D03*
D27*
X013276Y003511D03*
X013276Y004181D03*
X013925Y006602D03*
X014594Y006602D03*
X011248Y010539D03*
X010579Y010539D03*
G36*
X011567Y011528D02*
X011928Y011889D01*
X012263Y011554D01*
X011902Y011193D01*
X011567Y011528D01*
G37*
G36*
X012041Y012001D02*
X012402Y012362D01*
X012737Y012027D01*
X012376Y011666D01*
X012041Y012001D01*
G37*
X010657Y020185D03*
X010657Y020972D03*
X009988Y020972D03*
X009988Y020185D03*
X010520Y022901D03*
X011110Y022901D03*
X011701Y022901D03*
X011701Y023570D03*
X011110Y023570D03*
X010520Y023570D03*
X012291Y023570D03*
X012882Y023570D03*
X013472Y023570D03*
X013472Y022901D03*
X012882Y022901D03*
X012291Y022901D03*
X003768Y017822D03*
X003098Y017822D03*
X021405Y018807D03*
X022075Y018807D03*
X021937Y017960D03*
X021937Y017291D03*
X022075Y019988D03*
X021405Y019988D03*
D28*
X005441Y020041D03*
X005441Y019541D03*
X005441Y019041D03*
X005441Y020541D03*
X003394Y020541D03*
X003394Y020041D03*
X003394Y019541D03*
X003394Y019041D03*
D29*
X005886Y009752D03*
X002146Y008208D03*
X021157Y008448D03*
D30*
X019575Y007359D03*
X021465Y006178D03*
X019575Y004996D03*
D31*
X018020Y009161D03*
X017193Y009161D03*
X012488Y004259D03*
X012488Y003433D03*
D32*
X021346Y021169D03*
X021346Y023137D03*
D33*
X014260Y025574D03*
X014063Y025574D03*
X013866Y025574D03*
X013669Y025574D03*
X013472Y025574D03*
X013276Y025574D03*
X013079Y025574D03*
X012882Y025574D03*
X012685Y025574D03*
X012488Y025574D03*
X012291Y025574D03*
X012094Y025574D03*
X011898Y025574D03*
X011701Y025574D03*
X011504Y025574D03*
X011307Y025574D03*
X011110Y025574D03*
X010913Y025574D03*
X010717Y025574D03*
D34*
X009634Y025874D03*
X015342Y025874D03*
X016130Y017133D03*
D35*
X010350Y008358D03*
X010350Y006122D03*
X005177Y006122D03*
X005177Y008358D03*
X009634Y028220D03*
X015342Y028220D03*
D36*
X014634Y005815D03*
X013886Y005815D03*
D37*
X014063Y005224D03*
X014654Y005224D03*
X014063Y004437D03*
X013276Y004633D03*
X013276Y005224D03*
X012882Y006405D03*
X013472Y007783D03*
X014063Y007783D03*
X014654Y007783D03*
X015244Y007783D03*
X014063Y009752D03*
X013669Y010145D03*
X013276Y009752D03*
X012291Y007783D03*
X011307Y006996D03*
X010126Y010539D03*
X010126Y012114D03*
X010126Y012704D03*
X010717Y012114D03*
X011504Y012507D03*
X011307Y013492D03*
X010717Y013689D03*
X010913Y014673D03*
X009732Y015657D03*
X009339Y015263D03*
X008157Y015657D03*
X007961Y017429D03*
X008945Y017429D03*
X008945Y018216D03*
X008157Y018807D03*
X008551Y019791D03*
X008945Y020185D03*
X009535Y019200D03*
X010323Y018807D03*
X010126Y017822D03*
X009732Y017232D03*
X010913Y016641D03*
X012488Y016248D03*
X012488Y017429D03*
X012882Y018413D03*
X013276Y018807D03*
X014063Y018807D03*
X014457Y019988D03*
X015244Y019988D03*
X015244Y020578D03*
X014457Y021956D03*
X013866Y021956D03*
X014063Y022941D03*
X015638Y022744D03*
X016425Y023137D03*
X017016Y023137D03*
X017803Y023137D03*
X017803Y022547D03*
X018394Y022547D03*
X018000Y021956D03*
X018197Y020578D03*
X018787Y019988D03*
X019378Y019988D03*
X019378Y018413D03*
X018787Y018413D03*
X018394Y018019D03*
X018197Y018807D03*
X017606Y018413D03*
X017213Y018807D03*
X016425Y018807D03*
X015835Y018807D03*
X015047Y018807D03*
X013669Y019988D03*
X013669Y020578D03*
X011110Y020185D03*
X011110Y020972D03*
X013276Y015657D03*
X013866Y015657D03*
X013472Y014279D03*
X012882Y013689D03*
X012685Y012311D03*
X014260Y012311D03*
X014654Y013689D03*
X014850Y014279D03*
X014260Y014279D03*
X015441Y013689D03*
X016031Y014279D03*
X016228Y015657D03*
X015638Y015657D03*
X015047Y015657D03*
X017016Y015657D03*
X017606Y015460D03*
X018197Y015460D03*
X018984Y016051D03*
X018591Y016444D03*
X018984Y017035D03*
X019378Y017429D03*
X019772Y017035D03*
X020953Y016051D03*
X019772Y015460D03*
X019181Y015460D03*
X019772Y014476D03*
X019772Y013885D03*
X019181Y014279D03*
X018394Y014476D03*
X017606Y013689D03*
X017213Y012311D03*
X017409Y010145D03*
X016819Y010145D03*
X018000Y010145D03*
X019181Y012212D03*
X020559Y012311D03*
X020953Y014279D03*
X020953Y018807D03*
X021543Y019397D03*
X020953Y019988D03*
X019772Y021956D03*
X018787Y023531D03*
X017213Y025106D03*
X016228Y024515D03*
X016622Y021956D03*
X016819Y020578D03*
X018591Y025893D03*
X019181Y025893D03*
X019772Y025893D03*
X020756Y025106D03*
X021346Y025106D03*
X014457Y027074D03*
X013866Y027468D03*
X013669Y026878D03*
X013079Y027074D03*
X012094Y026878D03*
X011504Y026878D03*
X006386Y020775D03*
X004220Y019791D03*
X003433Y017232D03*
X002055Y018019D03*
X001661Y018610D03*
X004417Y015854D03*
X005008Y015854D03*
X005402Y015460D03*
X005992Y015460D03*
X004811Y014476D03*
X004417Y014082D03*
X006386Y011523D03*
X006583Y013295D03*
X006583Y013885D03*
X006976Y017822D03*
X003236Y010539D03*
X002252Y009752D03*
X004614Y009555D03*
X007370Y005815D03*
X007370Y004633D03*
X007370Y004043D03*
M02*
